<svg xmlns="http://www.w3.org/2000/svg" viewBox="0 0 1557.02 1557.02"><defs><style>.cls-1{fill:none;}</style></defs><g id="Layer_2" data-name="Layer 2"><g id="Layer_1-2" data-name="Layer 1"><path class="cls-1" d="M778.51,0C348.38,0,0,348.38,0,778.51S348.38,1557,778.51,1557,1557,1208.63,1557,778.51,1208.63,0,778.51,0Zm0,1401.31c-344.1,0-622.81-278.7-622.81-622.8S434.41,155.7,778.51,155.7s622.8,278.71,622.8,622.81S1122.61,1401.31,778.51,1401.31Z"/><path d="M778.08,389.25c-214.86,0-389.25,174.39-389.25,389.26s174.39,389.25,389.25,389.25,389.26-174.38,389.26-389.25S993,389.25,778.08,389.25Z"/></g></g></svg>