<svg xmlns="http://www.w3.org/2000/svg" width="22.42" height="22.423" viewBox="0 0 22.42 22.423">
  <g id="bitcoin" transform="translate(-0.004 0.001)">
    <path id="Path_707" data-name="Path 707" d="M22.089,13.923A11.208,11.208,0,1,1,13.925.335a11.209,11.209,0,0,1,8.164,13.588Z" transform="translate(0 0)" fill="#f7931a"/>
    <path id="Path_708" data-name="Path 708" d="M26.273,16.858c.223-1.492-.913-2.294-2.466-2.829l.5-2.021L23.08,11.7l-.491,1.968c-.323-.081-.655-.157-.985-.232l.494-1.981-1.229-.307-.5,2.02c-.268-.061-.53-.121-.785-.185v-.006l-1.7-.424-.327,1.314s.913.209.893.222a.654.654,0,0,1,.573.715l-.574,2.3a1.019,1.019,0,0,1,.128.041l-.13-.032-.8,3.225a.448.448,0,0,1-.564.292c.012.018-.894-.223-.894-.223l-.611,1.408,1.6.4c.3.075.59.153.877.226l-.509,2.044,1.229.307.5-2.022c.335.091.661.175.98.254l-.5,2.013,1.23.307.509-2.04c2.1.4,3.675.237,4.338-1.66a2.159,2.159,0,0,0-1.13-2.984,1.963,1.963,0,0,0,1.571-1.807ZM23.462,20.8c-.38,1.528-2.952.7-3.786.495l.675-2.708c.834.208,3.507.62,3.111,2.213Zm.38-3.963c-.347,1.39-2.488.684-3.182.51l.612-2.456C21.967,15.063,24.2,15.386,23.842,16.836Z" transform="translate(-10.116 -7.244)" fill="#fff"/>
  </g>
</svg>
