<svg id="Layer_1" data-name="Layer 1" xmlns="http://www.w3.org/2000/svg" viewBox="0 0 2417.6 2514.37"><defs><style>.cls-1{fill:#e4761b;stroke:#e4761b;}.cls-1,.cls-10,.cls-2,.cls-3,.cls-4,.cls-5,.cls-6,.cls-7,.cls-8,.cls-9{stroke-miterlimit:23.8;stroke-width:5.95px;}.cls-2{fill:#f6851b;stroke:#f6851b;}.cls-3{fill:#763d16;stroke:#763d16;}.cls-4{fill:#e2761b;stroke:#e2761b;}.cls-5{fill:#c0ad9e;stroke:#c0ad9e;}.cls-6{fill:#cd6116;stroke:#cd6116;}.cls-7{fill:#e4751f;stroke:#e4751f;}.cls-8{fill:#233447;stroke:#233447;}.cls-9{fill:#d7c1b3;stroke:#d7c1b3;}.cls-10{fill:#161616;stroke:#161616;}</style></defs><path class="cls-1" d="M2278.27,1730.72,2133.1,2221.56l-285-77.94Z" transform="translate(3.2 14.18)"/><path class="cls-1" d="M1848.12,2143.62,2123,1767l155.28-36.3Z" transform="translate(3.2 14.18)"/><path class="cls-2" d="M2064.68,1360.66l213.59,370.06L2123,1767Zm0,0,137.44-95.19,76.15,465.25Z" transform="translate(3.2 14.18)"/><path class="cls-3" d="M1889.77,1081l395.05-161.82-19.64,88.64Zm362.92,33.32L1889.77,1081l375.41-73.18Z" transform="translate(3.2 14.18)"/><path class="cls-3" d="M2252.69,1114.35l-50.57,151.12L1889.77,1081Zm79.13-157.66-66.64,51.16,19.64-88.64Zm-79.13,157.66,12.49-106.5,53,44Z" transform="translate(3.2 14.18)"/><path class="cls-4" d="M1541.72,2024l98.76,31.53,207.64,88Z" transform="translate(3.2 14.18)"/><path class="cls-3" d="M2202.12,1265.47l50.57-151.12,43.43,33.32Zm0,0L1792.2,1130.41l97.57-49.38Z" transform="translate(3.2 14.18)"/><path class="cls-3" d="M1987.34,617.56,1889.77,1081l-97.57,49.38Z" transform="translate(3.2 14.18)"/><path class="cls-3" d="M2284.82,919.21,1889.77,1081l97.57-463.47Z" transform="translate(3.2 14.18)"/><path class="cls-3" d="M1987.34,617.56,2399.64,570,2284.82,919.21Z" transform="translate(3.2 14.18)"/><path class="cls-2" d="M2202.12,1265.47l-137.44,95.19L1792.2,1130.41Z" transform="translate(3.2 14.18)"/><path class="cls-3" d="M2381.8,236.2,2399.64,570l-412.3,47.59Z" transform="translate(3.2 14.18)"/><path class="cls-4" d="M2381.8,236.2l-824,599.12L1547.07,429Z" transform="translate(3.2 14.18)"/><path class="cls-2" d="M934.27,380.18,1547.07,429l10.71,406.36Z" transform="translate(3.2 14.18)"/><path class="cls-3" d="M1792.2,1130.41,1557.78,835.32l429.56-217.76Z" transform="translate(3.2 14.18)"/><path class="cls-1" d="M1792.2,1130.41l272.48,230.25-382.55,42.24Z" transform="translate(3.2 14.18)"/><path class="cls-1" d="M1682.13,1402.9,1557.78,835.32l234.42,295.09Z" transform="translate(3.2 14.18)"/><path class="cls-3" d="M1987.34,617.56,1557.78,835.32l824-599.12Z" transform="translate(3.2 14.18)"/><path class="cls-5" d="M939.62,2134.1,1134.18,2337,869.42,2096Z" transform="translate(3.2 14.18)"/><path class="cls-6" d="M1848.12,2143.62l92.22-350.43L2123,1767Z" transform="translate(3.2 14.18)"/><path class="cls-4" d="M150.71,1157.78l336.75-354L194.15,1115.54Z" transform="translate(3.2 14.18)"/><path class="cls-2" d="M2123,1767l-182.65,26.17,124.34-432.53Zm-565.21-931.7L1230,824.61,934.27,380.18Z" transform="translate(3.2 14.18)"/><path class="cls-7" d="M2064.68,1360.66l-124.34,432.53L1930.22,1582Z" transform="translate(3.2 14.18)"/><path class="cls-6" d="M1682.13,1402.9l382.55-42.24L1930.22,1582Z" transform="translate(3.2 14.18)"/><path class="cls-2" d="M1230,824.61l327.82,10.71,124.35,567.58Z" transform="translate(3.2 14.18)"/><path class="cls-1" d="M1230,824.61,345.27,6l589,374.23ZM933.68,2258.45,165,2496.43,11.5,1910.4Z" transform="translate(3.2 14.18)"/><path class="cls-3" d="M265,1304.14l290.33-227.87,243.34,56.52Z" transform="translate(3.2 14.18)"/><path class="cls-3" d="M798.62,1132.79l-243.34-56.52,130.3-537.84Z" transform="translate(3.2 14.18)"/><path class="cls-3" d="M194.15,1115.54l361.13-39.27L265,1304.14Z" transform="translate(3.2 14.18)"/><path class="cls-6" d="M1930.22,1582l-149.92-75.55-98.17-103.53Z" transform="translate(3.2 14.18)"/><path class="cls-3" d="M194.15,1115.54l-25.59-135,386.72,95.78Z" transform="translate(3.2 14.18)"/><path class="cls-8" d="M1749.36,1676.58l30.94-170.15L1930.22,1582Z" transform="translate(3.2 14.18)"/><path class="cls-2" d="M1940.34,1793.19l-191-116.61,180.86-94.6Z" transform="translate(3.2 14.18)"/><path class="cls-3" d="M555.28,1076.27,168.56,980.49,137,866.85Zm130.3-537.84-130.3,537.84L137,866.85Zm0,0L1230,824.61,798.62,1132.79Z" transform="translate(3.2 14.18)"/><path class="cls-1" d="M798.62,1132.79,1230,824.61l192.17,587.22Zm623.51,279L826,1399.33l-27.37-266.54Z" transform="translate(3.2 14.18)"/><path class="cls-2" d="M265,1304.14l533.67-171.35L826,1399.33Zm1417.18,98.76-260,8.93L1230,824.61Z" transform="translate(3.2 14.18)"/><path class="cls-6" d="M1780.3,1506.43l-30.94,170.15-67.23-273.68Z" transform="translate(3.2 14.18)"/><path class="cls-3" d="M345.27,6,1230,824.61,685.58,538.43Z" transform="translate(3.2 14.18)"/><path class="cls-1" d="M11.5,1910.4l746.07-30.94,176.11,379Z" transform="translate(3.2 14.18)"/><path class="cls-6" d="M933.68,2258.45l-176.11-379,366.49-17.85Z" transform="translate(3.2 14.18)"/><path class="cls-2" d="M1749.36,1676.58l191,116.61,105.31,248.1ZM826,1399.33,11.5,1910.4,265,1304.14Zm-68.42,480.13L11.5,1910.4,826,1399.33Zm924.56-476.56,48.78,177.3-235.6,13.68Zm-186.82,191-73.18-182.05,260-8.93Z" transform="translate(3.2 14.18)"/><path class="cls-5" d="M1134.18,2337l-200.5-78.53L1631,2375.65Z" transform="translate(3.2 14.18)"/><path class="cls-3" d="M265,1304.14,150.71,1157.78l43.44-42.24Z" transform="translate(3.2 14.18)"/><path class="cls-9" d="M1710.09,2288.79,1631,2375.65l-697.28-117.2Z" transform="translate(3.2 14.18)"/><path class="cls-1" d="M1747.57,2075.8,933.68,2258.45l190.38-396.84Z" transform="translate(3.2 14.18)"/><path class="cls-9" d="M933.68,2258.45l813.89-182.65-37.48,213Z" transform="translate(3.2 14.18)"/><path class="cls-3" d="M137,866.85,110.26,409.33l575.32,129.1Zm57.12,248.69L115,1035.22l53.54-54.73Z" transform="translate(3.2 14.18)"/><path class="cls-6" d="M1288.86,1529.63l133.27-117.8-19,288Z" transform="translate(3.2 14.18)"/><path class="cls-6" d="M1422.13,1411.83l-133.27,117.8-193.95,100.55Z" transform="translate(3.2 14.18)"/><path class="cls-2" d="M2045.65,2041.29l-36.3-26.77-260-337.94Z" transform="translate(3.2 14.18)"/><path class="cls-6" d="M1094.91,1630.18,826,1399.33l596.14,12.5Z" transform="translate(3.2 14.18)"/><path class="cls-7" d="M1403.09,1699.79l19-288,73.18,182.05Z" transform="translate(3.2 14.18)"/><path class="cls-3" d="M88.84,912.07,137,866.85l31.53,113.64Z" transform="translate(3.2 14.18)"/><path class="cls-8" d="M1403.09,1699.79l-308.18-69.61,193.95-100.55Z" transform="translate(3.2 14.18)"/><path class="cls-3" d="M685.58,538.43,110.26,409.33,345.27,6Z" transform="translate(3.2 14.18)"/><path class="cls-5" d="M1631,2375.65l32.72,89.25L1134.18,2337Z" transform="translate(3.2 14.18)"/><path class="cls-2" d="M1124.06,1861.61l-29.15-231.43,308.18,69.61Z" transform="translate(3.2 14.18)"/><path class="cls-7" d="M826,1399.33l268.92,230.85,29.15,231.43Z" transform="translate(3.2 14.18)"/><path class="cls-2" d="M1495.31,1593.88l235.6-13.68,278.44,434.32ZM826,1399.33l298.07,462.28-366.49,17.85Z" transform="translate(3.2 14.18)"/><path class="cls-7" d="M1495.31,1593.88,1788,2039.5l-384.94-339.71Z" transform="translate(3.2 14.18)"/><path class="cls-2" d="M1403.09,1699.79,1788,2039.51l-40.46,36.29Z" transform="translate(3.2 14.18)"/><path class="cls-2" d="M1747.57,2075.8l-623.51-214.19,279-161.82Zm261.78-61.28-221.32,25-292.72-445.63Z" transform="translate(3.2 14.18)"/><path class="cls-5" d="M2067.66,2223.94l-95.19,191-308.79,50Zm-404,241L1631,2375.65l79.13-86.86Z" transform="translate(3.2 14.18)"/><path class="cls-5" d="M1710.09,2288.79l58.31-23.2L1663.68,2464.9Zm-46.41,176.11,104.72-199.31,299.26-41.65Z" transform="translate(3.2 14.18)"/><path class="cls-10" d="M2009.35,2014.52l73.18,44.62L1860,2085.91Z" transform="translate(3.2 14.18)"/><path class="cls-10" d="M1860,2085.91l-72-46.4,221.32-25Zm-25.58,35.1,270.7-32.72-37.48,135.65Z" transform="translate(3.2 14.18)"/><path class="cls-10" d="M2067.66,2223.94l-299.26,41.65,66-144.58Zm-299.26,41.65-58.31,23.2,37.48-213Zm-20.83-189.79,40.46-36.3,72,46.41Zm335-16.66,22.61,29.15L1834.44,2121Z" transform="translate(3.2 14.18)"/><path class="cls-10" d="M1834.44,2121l25.58-35.1,222.51-26.77Zm-86.87-45.21,86.87,45.21-66,144.58Z" transform="translate(3.2 14.18)"/><path class="cls-10" d="M1860,2085.91l-25.58,35.1-86.87-45.21Z" transform="translate(3.2 14.18)"/></svg>