<svg xmlns="http://www.w3.org/2000/svg" viewBox="0 0 894 382.09"><defs><style>.cls-1{font-size:184.79px;font-family:Raleway-SemiBoldItalic, Raleway;font-weight:600;font-style:italic;letter-spacing:-0.05em;}.cls-1,.cls-6{fill:#fff;}.cls-2{letter-spacing:-0.03em;}.cls-3{letter-spacing:-0.04em;}.cls-4{letter-spacing:-0.04em;}.cls-5{letter-spacing:-0.03em;}.cls-7{fill:#ffde00;}</style></defs><g id="Layer_1" data-name="Layer 1"><text class="cls-1" transform="translate(196.63 174.72) scale(1.05 1)">A<tspan class="cls-2" x="111.43" y="0">u</tspan><tspan class="cls-3" x="214.17" y="0">t</tspan><tspan class="cls-4" x="271.83" y="0">o</tspan><tspan class="cls-2" x="372.35" y="0">fi</tspan><tspan class="cls-5" x="464.38" y="0">c</tspan><tspan class="cls-2" x="556.96" y="0">a</tspan></text><path class="cls-6" d="M197.69,140.16l30.4-24.49c.41,3.2.94,6,1.11,8.92,1.21,20.68-5.11,41-18.55,61.06-.21.31-.47.6-.66.92-.76,1.28-1.31,1.32-2,.5-2.63-3.23-5.4-6.32-8-9.6q-5.31-6.74-10.41-13.72a13.21,13.21,0,0,1-1.67-4.52c2,4.68,5.4,7.78,8.65,11.46,6.78-12.56,10.4-24.06,11.22-36.89Z" transform="translate(-46.46 -41.76)"/><path class="cls-6" d="M142.32,222.21l14-26.86h.06c-2.07,5.14-4.13,10.27-6.34,15.75a16.53,16.53,0,0,0,3.56-.51c12.46-4.6,23.42-13.23,33.15-25.11.07-.1.12-.22.39-.7-1.65-1.56-3.27-3.29-5.08-4.75a29.91,29.91,0,0,0-5.44-3.55c-3.37-1.67-7.13-1.13-11.22,2.42,3.25-4.43,9.93-7.24,13.67-5.17a40.94,40.94,0,0,1,9.29,7c4.56,4.61,8.7,9.72,13.05,14.59.66.73.64,1.32-.34,2.36-17.63,18.71-36,27.86-55.38,25.3A34.82,34.82,0,0,1,142.32,222.21Z" transform="translate(-46.46 -41.76)"/><path class="cls-6" d="M206.72,117C198.53,96.34,184,95.34,179.9,96c-.58,5.35-1.15,10.53-1.71,15.71-.14,1.35-.28,2.71-.41,4.07-.07-5.16-.15-10.32-.19-15.48,0-3.86,0-7.75-.08-11.57,0-1.53.43-2,1.73-2.38,17.2-4.61,30.79-1.07,40.4,11.16,2.15,2.74,3.67,6.15,5.46,9.27.39.68.46,1.34-.56,2.18-8.69,7.09-17.37,14.18-26.55,19.91a66.82,66.82,0,0,1-7.47,4.09c-4.37,2-7.85,1.19-10.66-1.29a6.07,6.07,0,0,1-1.87-5c2.38,4.23,6.38,4.8,11.36,2.68a69.12,69.12,0,0,0,16.48-10.16,1.89,1.89,0,0,0,.89-2.18Z" transform="translate(-46.46 -41.76)"/><path class="cls-6" d="M136.53,217.76c.88-1.8,1.9-3.56,2.84-5.34,5.51-10.4,10.83-20.84,14.59-31.78,2.25-6.53,2-11.91-.69-16.31a6.91,6.91,0,0,0-1.34-1.5,5.13,5.13,0,0,0-2.59-1.2,19.93,19.93,0,0,0-3.54-.38c-9.14.12-18.32.38-27.46.52-1.39,0-2,.5-2.25,2.24-2.85,16.29-1.38,30.41,5.19,41.93a34.5,34.5,0,0,0,12.85,13C135.14,219.53,135.79,219.27,136.53,217.76Zm-7.93-13.63c-8-8.18-11.27-19.61-10.28-34a3,3,0,0,1,1.89-2.76c3.64-1.87,7.16-2.29,10.66-2.73,4-.5,7.66-1.08,11.88.33,1.45.31,2.91,2.14,3.83,4.21,2.19,4.91,1.15,10.61-1.13,16.58A146.76,146.76,0,0,1,139.19,200C135.86,206.5,132.23,207.87,128.6,204.13Z" transform="translate(-46.46 -41.76)"/><path class="cls-6" d="M157.6,145.75c5-4.65,8.66-10,9.89-16.81a131.35,131.35,0,0,0,1.89-22.75c0-5.25,0-10.46-.08-16.14-2,1.09-3.69,1.91-5.35,2.92-21.16,12.91-35.55,32.14-44.19,56.75-.48,1.38-.26,1.86.93,1.79,2.87-.16,5.68,0,8.56-.3,6.81-.58,13.62-1.22,20.47-2A13.35,13.35,0,0,0,157.6,145.75Zm-8.86-2.05a36.08,36.08,0,0,1-18.48,1.45,5.28,5.28,0,0,1-1.77-.64c-2.52-1.52-3.06-2.46-1.1-6.16.5-.94,1-1.9,1.44-2.86,6.63-12.85,15.39-23.43,26.5-31.43,4.2-3,7.37-2.25,7.93,2.35a54.64,54.64,0,0,1-3,24.28,29.69,29.69,0,0,1-2.82,6.1,19.27,19.27,0,0,1-3.05,3.68A12.76,12.76,0,0,1,148.74,143.7Z" transform="translate(-46.46 -41.76)"/><path class="cls-6" d="M173.74,140.49c1.38-2.34,1.22-5-.37-6s-4,.12-5.37,2.46-1.22,5,.37,6S172.36,142.82,173.74,140.49Zm-4,.75c-.87-.54-1-2-.2-3.3s2.07-1.88,2.94-1.34,1,2,.2,3.29S170.64,141.77,169.77,141.24Z" transform="translate(-46.46 -41.76)"/><path class="cls-6" d="M186.75,145.71c1.38-2.33,1.22-5-.37-6s-4,.12-5.37,2.45-1.21,5,.37,6S185.37,148.05,186.75,145.71Zm-4,.75c-.87-.54-1-2-.2-3.29s2.07-1.88,2.94-1.34,1,2,.2,3.29S183.65,147,182.78,146.46Z" transform="translate(-46.46 -41.76)"/><path class="cls-6" d="M162.17,156.64c1.38-2.34,1.21-5-.37-6s-4,.11-5.38,2.45-1.21,5,.38,6S160.79,159,162.17,156.64Zm-4,.75c-.87-.54-1-2-.21-3.29s2.08-1.88,2.94-1.34,1,2,.21,3.29S159.07,157.93,158.2,157.39Z" transform="translate(-46.46 -41.76)"/><path class="cls-6" d="M168.81,171.66c1.38-2.34,1.21-5-.37-6s-4,.11-5.38,2.45-1.21,5,.38,6S167.43,174,168.81,171.66Zm-4,.75c-.87-.54-1-2-.21-3.29s2.08-1.88,3-1.35.95,2,.2,3.3S165.71,173,164.84,172.41Z" transform="translate(-46.46 -41.76)"/><path class="cls-6" d="M183.38,164.39c1.38-2.33,1.21-5-.38-6s-4,.11-5.37,2.45-1.21,5,.37,6S182,166.73,183.38,164.39Zm-4,.75c-.87-.54-1-2-.21-3.29s2.07-1.88,2.94-1.34,1,2,.21,3.29S180.27,165.68,179.41,165.14Z" transform="translate(-46.46 -41.76)"/><path class="cls-6" d="M178.58,157.94c2.83-4.8,2.49-10.34-.77-12.36s-8.2.24-11,5-2.49,10.34.77,12.36S175.74,162.74,178.58,157.94Zm-9.29,3.51c-2.62-1.62-2.9-6.07-.62-9.92s6.25-5.67,8.87-4.05,2.89,6.07.61,9.92S171.9,163.07,169.29,161.45Z" transform="translate(-46.46 -41.76)"/><path class="cls-6" d="M176.83,148.67c-2.18-1.35-5.48.16-7.37,3.36s-1.67,6.91.51,8.25,5.48-.15,7.37-3.36S179,150,176.83,148.67Z" transform="translate(-46.46 -41.76)"/><path class="cls-6" d="M194.84,225.87a107.84,107.84,0,0,0,10.44-9.07,120.93,120.93,0,0,0,9.65-10.71,131,131,0,0,0,8.43-11.83,136.27,136.27,0,0,0,6.89-12.33,134.13,134.13,0,0,0,5.45-12.77,129,129,0,0,0,4-13.11,116.49,116.49,0,0,0,2.51-13.38,104.7,104.7,0,0,0,.87-13.52,90.15,90.15,0,0,0-1-13.5,76.69,76.69,0,0,0-3.23-13.29,64.26,64.26,0,0,0-5.61-12.19A52.46,52.46,0,0,0,225.33,80a46.44,46.44,0,0,0-22.66-12.55,52.41,52.41,0,0,0-14.51-1.22A63.53,63.53,0,0,0,172,69.29a77.51,77.51,0,0,0-10.72,4.38,83,83,0,0,1,14.39-6.24,66.61,66.61,0,0,1,17-3.21,54.89,54.89,0,0,1,15.24,1.27c1.14.26,2.25.56,3.35.9s2.17.7,3.22,1.1,2.08.83,3.09,1.3,2,1,3,1.49l-9-4.91c-1-.55-2-1.07-3.07-1.55s-2.12-1-3.21-1.37-2.21-.81-3.34-1.16-2.3-.68-3.47-1a58.66,58.66,0,0,0-15.76-1.54,69.09,69.09,0,0,0-17.5,3,86.19,86.19,0,0,0-18.56,8.17A107.79,107.79,0,0,0,128,83.81a126.19,126.19,0,0,0-16.6,18.76,133.88,133.88,0,0,0-12.74,21.69,131.78,131.78,0,0,0-8.27,23.06,119.75,119.75,0,0,0-3.56,22.83,100.59,100.59,0,0,0,1,21.2A80.11,80.11,0,0,0,93,209.83a64.37,64.37,0,0,0,8.75,15A55.81,55.81,0,0,0,113.49,236c.56.39,1.13.77,1.7,1.14s1.13.72,1.71,1.06,1.14.67,1.72,1,1.16.62,1.74.91l9.15,4.56c-.56-.28-1.12-.58-1.67-.88s-1.11-.62-1.66-1-1.1-.67-1.64-1-1.09-.72-1.62-1.11a51.86,51.86,0,0,1-11.16-10.84,61.44,61.44,0,0,1-8.25-14.73,78.7,78.7,0,0,1-4.72-18.21A100,100,0,0,1,98,178.09a93.14,93.14,0,0,0,.86,14.33,74.66,74.66,0,0,0,4.49,17.33,58.26,58.26,0,0,0,7.84,14,49.68,49.68,0,0,0,10.62,10.32,46.35,46.35,0,0,0,12.23,6.23,48.7,48.7,0,0,0,12.69,2.42,57.19,57.19,0,0,0,12.69-.72,69.27,69.27,0,0,0,12.37-3.3,82.39,82.39,0,0,0,11.85-5.48A96.14,96.14,0,0,0,194.84,225.87Zm-57.38-124A111.17,111.17,0,0,1,173.1,77.8a49.9,49.9,0,0,1,27.39-3.12,41.52,41.52,0,0,1,21,10,49.62,49.62,0,0,1,13.15,19.63,66.86,66.86,0,0,1,3.33,12,62.23,62.23,0,0,0-2.42-7.9A51.86,51.86,0,0,0,230,97.68a42.76,42.76,0,0,0-7.71-8.59A39.33,39.33,0,0,0,212.54,83a46.35,46.35,0,0,0-11.43-3.23,45.48,45.48,0,0,0-12.72.4,12.68,12.68,0,0,1,2.09-.13c.75,0,1.5,0,2.24,0a38.22,38.22,0,0,1,20.06,5.59,39.41,39.41,0,0,1,14.38,16.2,59.38,59.38,0,0,1,5.87,24A90.16,90.16,0,0,1,229.87,153a112.9,112.9,0,0,1-11.23,27.1,111.45,111.45,0,0,1-18.51,24,87.12,87.12,0,0,1-22.74,16.37,57.48,57.48,0,0,1-22.79,6,39.12,39.12,0,0,1-20.34-4.5,36.24,36.24,0,0,1-5.91-4l.24.26q.58.67,1.2,1.32c.41.43.82.84,1.24,1.25s.86.81,1.29,1.19.88.77,1.33,1.13a39.47,39.47,0,0,0,20.82,8.68,51.32,51.32,0,0,0,21.75-2.56,68.15,68.15,0,0,0,8.87-3.67,73.07,73.07,0,0,1-12.82,5.71A54,54,0,0,1,149.4,234c-7.84-.87-19.38-2.36-25.92-7.68-7-5.66-12.1-13.43-15.31-22.76-3.37-9.79-4.54-21.12-3.43-33.18a106.38,106.38,0,0,1,10.53-37.71A110.8,110.8,0,0,1,137.46,101.89Z" transform="translate(-46.46 -41.76)"/><path class="cls-6" d="M46.48,142.39a92.19,92.19,0,0,0,1.39,14.19,85.43,85.43,0,0,0,3.45,13.26,80.27,80.27,0,0,0,5.32,12q1.52,2.77,3.24,5.39a40.24,40.24,0,0,0,4.83,6.7c3.42,3.74,4.34,4.75,5.39,5.76.56.53.66.59.73.62s.49.15.71.19c.06-.11-5-10.1-6.17-10-.5,0-.15.87-.74.69-.17-.05-.52-.16-1.57-1.4-.46-.54-.63-.77-1.58-2.07-.91-1.69-1.75-3.43-2.54-5.2,3.22,4.72,3.33,4.86,4,5.53.41.41.6.53.79.5C65.14,188,65.14,188,65,187c0-.1-2.61-11-3.78-11.54-.63-.27-1.22.7-1.39,1s-.49.9-1.67-.71a14.37,14.37,0,0,1-1.29-2.18c-1.33-2.56-2.07-3.92-2.55-4.64-.18-.73-.34-1.46-.51-2.19,3.45,5.73,3.45,5.73,4.09,6.3.22.18.57.48.9.32,2-1.12,2-1.12,2-2.37,0-.11-.55-11.08-1.91-11.41-.5-.13-1.18.36-2,1.46-.62.79-1.44-.15-1.76-.59A9.46,9.46,0,0,1,54,158.41a29.64,29.64,0,0,0-2.24-4.64c-.12-1.49-.21-3-.26-4.52a8.12,8.12,0,0,0,.38,1.05c2.79,5.91,2.79,5.91,3.41,6.42a.87.87,0,0,0,1,.19c2.69-1.67,2.69-1.67,3-3,0-.12,1.61-11.88.07-12.08-.56-.08-1.45.53-2.64,1.81-.87.93-1.64,0-1.92-.4a7.1,7.1,0,0,1-.85-2.07c-1.23-4.19-1.68-4.81-2-5q.27-3,.74-6a8.92,8.92,0,0,0,.37,2.1c2.18,6.1,2.18,6.1,2.8,6.57a.94.94,0,0,0,1.15.08c3.54-2.16,3.54-2.16,4.13-3.67,0-.12,4-12.55,2.24-12.76-.27,0-1.14.11-3.4,2.13a1.3,1.3,0,0,1-2.26-.36,5.72,5.72,0,0,1-.55-2c-.64-3.8-1.15-5.31-1.71-5,.53-1.92,1.12-3.84,1.77-5.74a7.2,7.2,0,0,0,.08,2.2c1.45,5.82,1.45,5.82,2.05,6.23a1.13,1.13,0,0,0,1.26,0c4.2-2.38,4.2-2.38,5.1-3.89.06-.12,5.79-11.53,4.27-11.91-.36-.09-1.35.05-4.06,2-1.41,1-2.1.22-2.33-.16a4,4,0,0,1-.41-1.89c-.24-3.78-.7-4.52-1.11-4.48.78-1.63,1.59-3.25,2.44-4.84a6,6,0,0,0-.08,1.86c1,5.79,1,5.79,1.69,6.17a1.55,1.55,0,0,0,1.52,0c5.32-2.43,5.32-2.43,6.51-3.86.09-.11,7.88-11,6.14-11.38-.41-.09-1.59,0-4.94,1.82-1.52.82-2.27.37-2.58,0a2.78,2.78,0,0,1-.45-2c0-2.44-.16-3.86-.61-4.22l.36-.51c.6-.84,1.21-1.67,1.84-2.49a2.78,2.78,0,0,0,0,.64c.63,4.93.63,4.93,1.28,5.27a2,2,0,0,0,1.59,0c5.73-2,5.73-2,6.87-3,.41-.35,8.74-8.94,7.53-9.52-.27-.13-1.34-.26-5.38,1.34-1.39.55-2.14.36-2.52.1a1.79,1.79,0,0,1-.5-1.82,7.6,7.6,0,0,0-.1-3.13c.81-.82,1.62-1.63,2.45-2.43.39,4.36.39,4.36,1.08,4.67a2.64,2.64,0,0,0,1.76,0c6.45-1.6,6.45-1.6,7.76-2.41.11-.07,10-7.37,8.7-7.91-.31-.12-1.49-.27-5.93.92-1.64.44-2.46.2-2.85-.08-.58-.41-.47-1-.38-1.51a6.57,6.57,0,0,0,.12-2.34c.8-.59,1.6-1.16,2.41-1.72.23,3.1.25,3.12.92,3.39h0a3.54,3.54,0,0,0,1.83.09c6.73-1,6.73-1,8.16-1.6.11,0,10.11-5,9.27-5.62l-.11-.05c-.34-.11-1.6-.3-6.12.35a5.31,5.31,0,0,1-2.75-.13.9.9,0,0,1-.56-1.28,4.28,4.28,0,0,0,.2-1.61c1-.52,2-1,3.08-1.5.2,2.39.23,2.41.93,2.65a5.11,5.11,0,0,0,2,.19c7.11-.37,7.11-.37,8.39-.65.95-.21,10-3,10.13-3.41a.4.4,0,0,0-.18-.13c-3.19-1-6,.37-9.13-.55-1.13-.33-1-.79-.84-1.07a2.91,2.91,0,0,0,.19-.81c1.26-.23,2.6-.45,3.93-.65.21,1.21.27,1.24.86,1.43a7.09,7.09,0,0,0,1.77.26c6.36.35,6.36.35,7,.33.87,0,9.17-.68,9.4-.78a.44.44,0,0,0-.16-.1c-2.64-.79-5.26-.62-7.9-1.27-1.28-.32-1.13-.59-1-.71.17-.3.13-.51,0-.66h0c-.22-.42-2.73-1.76-7.11-1.46-1.9.18-3.82.43-5.74.76a80.26,80.26,0,0,0-14.43,3.89,87.78,87.78,0,0,0-14.45,7A95.06,95.06,0,0,0,81.27,63.63,101.35,101.35,0,0,0,66,80.51a104.11,104.11,0,0,0-17.65,40.72A98.87,98.87,0,0,0,46.48,142.39Z" transform="translate(-46.46 -41.76)"/><path class="cls-6" d="M135.79,49.13a.67.67,0,0,0,.2.12c2.92.77,5.59-.11,8.51.65,1.25.33,1.14.71,1.06,1-.3,1,.07,1.69,1,1.74.11,0,10.46-1.29,10.18-2.16-.8-1.47-.8-1.47-3.49-1.93-7-1.1-7.24-1.14-9.28-1.07C141.06,47.55,136,48.52,135.79,49.13Z" transform="translate(-46.46 -41.76)"/><path class="cls-6" d="M138.89,51.58c-7.31-.33-7.31-.33-9.4.16-2.43.56-9.08,3.33-8.22,3.92l.1.05c3.16.84,5.49-1.21,8.73-.09,1,.34.86.86.77,1.24-.18.77-.43,2.55,1,2.45.1,0,10.49-3.5,10.29-5C141.59,51.74,141.59,51.74,138.89,51.58Z" transform="translate(-46.46 -41.76)"/><path class="cls-6" d="M107.58,64.49l.07,0c.46.13,1.29.19,5.33-.7a5.05,5.05,0,0,1,3.26,0c.72.38.62,1,.54,1.47-.13.79-.44,3.36,1,3.08.1,0,10.1-5.41,9.93-7.62-.53-3.53-.53-3.53-3.16-3.42-7.09.39-7.09.39-8.86,1.14C113.21,59.52,106.63,63.84,107.58,64.49Z" transform="translate(-46.46 -41.76)"/><path class="cls-6" d="M102.11,68.33c-2.18,1.38-8.86,7.52-7.54,8,.33.1.94.29,5.08-1.13.82-.29,2.21-.76,3.14-.18.7.45.63,1.17.58,1.81-.1,1-.28,4.21,1.12,3.77.1,0,9.53-7.3,9.31-10.2-.44-3.46-.44-3.46-.6-3.68s-.85-.78-2.53-.56C103.79,67.27,103.79,67.27,102.11,68.33Z" transform="translate(-46.46 -41.76)"/><path class="cls-6" d="M123.55,81.39c.5-.3,10.55-7.6,9-8.21-.34-.14-1.66-.33-6.45.83-1.77.42-2.69.15-3.14-.16a1.45,1.45,0,0,1-.53-1.62c.28-2.45-.14-3.54-1.26-3.24s-9.78,6.23-9.45,9.67c.69,4.66.69,4.66,1.47,5a3,3,0,0,0,1.94.08C122.18,82.23,122.18,82.23,123.55,81.39Z" transform="translate(-46.46 -41.76)"/><path class="cls-6" d="M147,64.29l-.13-.05c-.36-.13-1.73-.35-6.47.24a5.73,5.73,0,0,1-2.94-.19,1,1,0,0,1-.72-1.35c.32-1.81-.09-2.65-1.22-2.48-1.37.19-10,4.2-9.73,6.87.55,3.69.55,3.69,1.31,4a4,4,0,0,0,2,.13c7.13-.89,7.13-.89,8.6-1.47C138.21,69.78,148,64.89,147,64.29Z" transform="translate(-46.46 -41.76)"/><path class="cls-6" d="M151,54.8c-1.77,0-10.38,2.31-10.33,4.32a.5.5,0,0,0,0,.12c.56,3,.56,3,1.37,3.25a5.54,5.54,0,0,0,2.11.23c7.59-.25,7.59-.25,8.91-.52.93-.2,10.22-2.94,10.29-3.5a.67.67,0,0,0-.2-.12c-3.39-1.07-6.4.27-9.77-.72-1.23-.36-1.12-.83-1.05-1.15C152.66,55.42,152.21,54.78,151,54.8Z" transform="translate(-46.46 -41.76)"/><path class="cls-6" d="M153.73,53.67c.77,2.38.77,2.38,1.7,2.68h0a10.32,10.32,0,0,0,2.46.39c8.71.58,8.71.58,9.91.56.11,0,11.66-.87,11.9-1a.91.91,0,0,0-.26-.13c-3.61-1.08-7.22-.92-10.83-1.83-1.76-.45-1.68-.8-1.64-1s.28-1.22-2.05-1.45C162.2,51.59,153.41,52.09,153.73,53.67Z" transform="translate(-46.46 -41.76)"/><path class="cls-6" d="M89.77,81.05c-2,1.75-7.91,9.22-6.61,9.82.68.23,2-.21,5.1-1.68,1.17-.55,2.16-.54,2.73,0a2.61,2.61,0,0,1,.48,2c0,1.51,0,5,1.36,4.38.09,0,8.47-9,8.13-12.47-.59-4.21-.59-4.21-.8-4.53s-.69-.87-2.37-.49C91.31,79.7,91.31,79.7,89.77,81.05Z" transform="translate(-46.46 -41.76)"/><path class="cls-6" d="M79,96.29c-1.73,2.06-6.63,10.8-5.36,11.46.65.27,1.86-.26,4.6-2,1.57-1,2.36-.26,2.63.11a3.81,3.81,0,0,1,.54,2.15c.08,1.36.43,5.73,1.65,5,.08,0,7.18-10.57,6.61-14.6-.85-5-.85-5-1.06-5.33s-.72-1-2.28-.5C80.36,94.69,80.36,94.69,79,96.29Z" transform="translate(-46.46 -41.76)"/><path class="cls-6" d="M67,126.49c.46.14,1,.3,3.86-2,.94-.78,1.85-.69,2.42.24a4.64,4.64,0,0,1,.55,1.71c.61,4.23,1.36,6.35,2.06,5.82.07-.05,5.32-11.62,4.51-15.85-1.19-5.46-1.19-5.46-1.35-5.75a1.51,1.51,0,0,0-2.14-.62c-5.2,2.35-5.2,2.35-6.26,4.11C69.4,116.19,65.74,125.73,67,126.49Z" transform="translate(-46.46 -41.76)"/><path class="cls-6" d="M63.16,145.36c.43.18.92.38,3.17-1.79.75-.73,1.56-.58,2.21.41a6.44,6.44,0,0,1,.74,1.78c1,3.7,1.81,5.74,2.46,6.08.88-.13,3.17-12.38,2.13-16.13-1.77-6.05-1.77-6.05-1.92-6.31a1.41,1.41,0,0,0-2-.71c-4.48,2.46-4.48,2.46-5.21,4.26C63.88,135,61.92,144.51,63.16,145.36Z" transform="translate(-46.46 -41.76)"/><path class="cls-6" d="M80.73,157.49c4.15-2.12,4.15-2.12,4.84-3.74.06-.13,4.36-13.25,2.65-13.89-.38-.14-1.42-.05-4.14,2.12a1.58,1.58,0,0,1-2.57-.38,6.16,6.16,0,0,1-.77-2.34c-.83-4.37-1.49-6.08-2.15-5.54S74.17,144.57,76,150c2.59,6.81,2.59,6.81,3.32,7.37h0A1.23,1.23,0,0,0,80.73,157.49Z" transform="translate(-46.46 -41.76)"/><path class="cls-6" d="M96.06,119.56c-.53-.15-1.81.09-4.9,2.07-1.7,1.09-2.56.15-2.85-.3a4.56,4.56,0,0,1-.56-2.21c-.37-4-1-5.7-1.76-5.16s-6.45,10.78-5.18,16c1.89,6.8,1.89,6.8,2.63,7.31h0a1.48,1.48,0,0,0,1.55.05c5.13-2.52,5.13-2.52,6.19-4.22C91.26,133,98,120.08,96.06,119.56Z" transform="translate(-46.46 -41.76)"/><path class="cls-6" d="M99.79,113.5c.1-.11,8.47-11.5,6.45-12-.46-.11-1.78,0-5.46,1.78-1.78.87-2.63.26-3-.18a3.13,3.13,0,0,1-.5-2.07c-.1-5.3-1.18-4.73-1.53-4.55-1,.51-7.83,9.45-7,14.17,1.35,6.24,1.35,6.24,2.09,6.68a1.87,1.87,0,0,0,1.71,0C98.51,115,98.51,115,99.79,113.5Z" transform="translate(-46.46 -41.76)"/><path class="cls-6" d="M110.64,96.33c.86-.72,9.72-9.86,8.38-10.56-.39-.21-1.74-.31-6.3,1.33-1.61.59-2.5.34-3,0a2.09,2.09,0,0,1-.7-2.08c.11-2.11,0-4.52-1.31-4-1.09.42-9.27,8.14-8.73,12.38,1,5.62,1,5.62,1.76,6a2.43,2.43,0,0,0,1.88,0C109.35,97.41,109.35,97.41,110.64,96.33Z" transform="translate(-46.46 -41.76)"/><path class="cls-6" d="M62.74,164c.24.16.8.53,2.3-1.18.3-.35,1-1.16,2.15.42A9,9,0,0,1,68.1,165c1,2.46,2.3,5.5,3.08,6,.89-.12.72-11.86-.6-15.26-2.44-6.06-2.44-6.06-2.59-6.31-.58-.92-1.21-1.21-1.88-.85-3.55,2.07-3.55,2.07-3.92,3.75C61.7,154.53,61.56,163.09,62.74,164Z" transform="translate(-46.46 -41.76)"/><path class="cls-6" d="M67.19,180c.2-.27.66-.9,1.89.66a13.72,13.72,0,0,1,1.07,1.69c1,1.89,2.83,5.14,3.64,5.73h.13c.12-.25-1.2-10-3.16-13.88-3.92-7.62-3.92-7.62-5-7.14-2.74,1.57-2.74,1.57-2.78,3.06-.05,2,1.2,9.56,2.44,10.6h0C65.69,180.89,66.23,181.3,67.19,180Z" transform="translate(-46.46 -41.76)"/><path class="cls-6" d="M75,197.73c1.55,2.21,3.55,4.89,4.08,5.18A73.63,73.63,0,0,0,74,191.22c-4.49-7-4.49-7-5.21-6.7-2,.95-2,.95-1.72,2.16.45,2.2,2.74,7.76,4,8.85.22.18.72.6,1.2-.21.1-.16.36-.6,1.72,1A16.47,16.47,0,0,1,75,197.73Z" transform="translate(-46.46 -41.76)"/><path class="cls-6" d="M73.44,199.07c-1.57.36-1.57.36-.9,1.61a39.6,39.6,0,0,0,6.06,8c.54.5.79.66.91.34h.12a17.47,17.47,0,0,1,3,2.93c2.81,3.09,4.78,5.05,5.13,5.34l-7.9-10.95C74,199,74,199,73.44,199.07Z" transform="translate(-46.46 -41.76)"/><path class="cls-6" d="M91.32,215.53c-.36.31-.66.59-2.66-1.82-.38-.46-.38-.46-1.7-2.21-2.25-3-3.14-4.11-3.55-4.34-.18.21,2.11,5.67,7.12,11.11,3.77,4,4.91,5.22,6.1,6.34h0a6.58,6.58,0,0,0,.9.76c.3.13.71.31,1,.42l.1,0c-.11-.57-5.39-9.42-5.44-9.49C92.51,215.27,91.87,215,91.32,215.53Z" transform="translate(-46.46 -41.76)"/><path class="cls-6" d="M82.22,198.16a15.31,15.31,0,0,1-1.48-2.22c-2.43-4.16-3.21-5.34-3.67-5.47-.35.39,1.13,7.83,4.92,13,4.57,6,4.57,6,5.4,6.79.59.53.76.57,1,.59,1.86-.25,1.86-.25,1.65-1.37,0-.1-2.58-10.54-4-11.18-.75-.33-1.52.5-1.74.77S83.6,199.84,82.22,198.16Z" transform="translate(-46.46 -41.76)"/><path class="cls-6" d="M82.88,179.91c-.82-.24-1.94.86-2.27,1.2s-1,1-2.23-.61a11,11,0,0,1-1.23-2.27c-1.87-4.25-2.51-5.24-3-5.53-.89,0-.45,9.34,2.45,14.27,3.91,6.34,3.91,6.34,4.66,7,.49.41.74.51,1.06.43,2.49-.94,2.49-.94,2.54-2.25C84.89,192,84.51,180.39,82.88,179.91Z" transform="translate(-46.46 -41.76)"/><path class="cls-6" d="M74.73,169.76c3.24,6.57,3.24,6.57,4,7.17.49.37.77.44,1.18.29,3.22-1.57,3.22-1.57,3.55-3,0-.13,2-12.74.1-13.07-.65-.12-1.69.48-3.09,1.78-1,.95-1.92-.08-2.26-.57a7.92,7.92,0,0,1-1-2.3c-1.49-4.76-2-5.35-2.41-5.55C73.88,154.61,72.41,164.76,74.73,169.76Z" transform="translate(-46.46 -41.76)"/><rect class="cls-7" x="589.96" y="187.92" width="76.1" height="9.21"/><text x="-46.46" y="-41.76"/></g></svg>