<svg id="Layer_1" data-name="Layer 1" xmlns="http://www.w3.org/2000/svg" viewBox="0 0 895.72 216.4"><defs><style>.cls-1,.cls-2,.cls-3,.cls-4,.cls-5{isolation:isolate;}.cls-2,.cls-3,.cls-4,.cls-5{font-size:184.79px;font-family:Raleway-SemiBoldItalic, Raleway;font-weight:600;font-style:italic;}.cls-2,.cls-3,.cls-4,.cls-5,.cls-6{fill:#fff;}.cls-2{letter-spacing:-0.08em;}.cls-3{letter-spacing:-0.03em;}.cls-4{letter-spacing:-0.04em;}.cls-5{letter-spacing:-0.03em;}.cls-7{fill:#ffde00;}</style></defs><g id="Layer_1-2" data-name="Layer 1"><g class="cls-1"><text class="cls-2" transform="translate(196.63 174.63) scale(1.05 1)">A</text><text class="cls-3" transform="translate(313.63 174.63) scale(1.05 1)">u</text><text class="cls-4" transform="translate(421.51 174.63) scale(1.05 1)">t</text><text class="cls-4" transform="translate(482.05 174.63) scale(1.05 1)">o</text><text class="cls-5" transform="translate(587.6 174.63) scale(1.05 1)">fi</text><text class="cls-3" transform="translate(684.23 174.63) scale(1.05 1)">c</text><text class="cls-3" transform="translate(781.44 174.63) scale(1.05 1)">a</text></g><path class="cls-6" d="M151.23,98.4l30.4-24.49c.41,3.2.94,6,1.11,8.92,1.21,20.68-5.11,41-18.55,61.06-.21.31-.47.6-.66.92-.76,1.28-1.31,1.32-2,.5-2.63-3.23-5.4-6.32-8-9.6Q148.22,129,143.12,122a13.05,13.05,0,0,1-1.67-4.52c2,4.68,5.4,7.78,8.65,11.46,6.78-12.56,10.4-24.06,11.22-36.89Z" transform="translate(0 -0.09)"/><path class="cls-6" d="M95.86,180.45l14-26.86h.06c-2.07,5.14-4.13,10.27-6.34,15.75a16.44,16.44,0,0,0,3.56-.51c12.46-4.6,23.42-13.23,33.15-25.11.07-.1.12-.22.39-.7-1.65-1.56-3.27-3.29-5.08-4.75a29.57,29.57,0,0,0-5.44-3.55c-3.37-1.67-7.13-1.13-11.22,2.42,3.25-4.43,9.93-7.24,13.67-5.17a41.21,41.21,0,0,1,9.29,7c4.56,4.61,8.7,9.72,13,14.59.66.73.64,1.32-.34,2.36-17.63,18.71-36,27.86-55.38,25.3C98.09,181,97,180.76,95.86,180.45Z" transform="translate(0 -0.09)"/><path class="cls-6" d="M160.26,75.24c-8.19-20.66-22.72-21.66-26.82-21-.58,5.35-1.15,10.53-1.71,15.71-.14,1.35-.28,2.71-.41,4.07-.07-5.16-.15-10.32-.19-15.48,0-3.86,0-7.75-.08-11.57,0-1.53.43-2,1.73-2.38,17.2-4.61,30.79-1.07,40.4,11.16,2.15,2.74,3.67,6.15,5.46,9.27.39.68.46,1.34-.56,2.18-8.69,7.09-17.37,14.18-26.55,19.91a66.79,66.79,0,0,1-7.47,4.09c-4.37,2-7.85,1.19-10.66-1.29a6.08,6.08,0,0,1-1.87-5c2.38,4.23,6.38,4.8,11.36,2.68a69.39,69.39,0,0,0,16.48-10.16,1.88,1.88,0,0,0,.89-2.18Z" transform="translate(0 -0.09)"/><path class="cls-6" d="M90.07,176c.88-1.8,1.9-3.56,2.84-5.34,5.51-10.4,10.83-20.84,14.59-31.78,2.25-6.53,2-11.91-.69-16.31a6.83,6.83,0,0,0-1.34-1.5,5.12,5.12,0,0,0-2.59-1.2,20.07,20.07,0,0,0-3.54-.38c-9.14.12-18.32.38-27.46.52-1.39,0-2,.5-2.25,2.24-2.85,16.29-1.38,30.41,5.19,41.93a34.56,34.56,0,0,0,12.85,13C88.68,177.77,89.33,177.51,90.07,176Zm-7.93-13.63c-8-8.18-11.27-19.61-10.28-34a3,3,0,0,1,1.89-2.76c3.64-1.87,7.16-2.29,10.66-2.73,4-.5,7.66-1.08,11.88.33,1.45.31,2.91,2.14,3.83,4.21C102.31,132.33,101.27,138,99,144a145.32,145.32,0,0,1-6.26,14.24c-3.33,6.5-7,7.87-10.59,4.13Z" transform="translate(0 -0.09)"/><path class="cls-6" d="M111.14,104c5-4.65,8.66-10,9.89-16.81a131.39,131.39,0,0,0,1.89-22.75c0-5.25,0-10.46-.08-16.14-2,1.09-3.69,1.91-5.35,2.92C96.33,64.12,81.94,83.35,73.3,108c-.48,1.38-.26,1.86.93,1.79,2.87-.16,5.68,0,8.56-.3,6.81-.58,13.62-1.22,20.47-2A13.33,13.33,0,0,0,111.14,104Zm-8.86-2a36.18,36.18,0,0,1-18.48,1.45,5.38,5.38,0,0,1-1.77-.64c-2.52-1.52-3.06-2.46-1.1-6.16.5-.94,1-1.9,1.44-2.86C89,80.88,97.76,70.3,108.87,62.3c4.2-3,7.37-2.25,7.93,2.35a54.63,54.63,0,0,1-3,24.28A29.87,29.87,0,0,1,111,95a19.2,19.2,0,0,1-3,3.68A12.72,12.72,0,0,1,102.28,101.94Z" transform="translate(0 -0.09)"/><path class="cls-6" d="M127.28,98.73c1.38-2.34,1.22-5-.37-6s-4,.12-5.37,2.46-1.22,5,.37,6S125.9,101.06,127.28,98.73Zm-4,.75c-.87-.54-1-2-.2-3.3s2.07-1.88,2.94-1.34,1,2,.2,3.29-2,1.88-2.91,1.35Z" transform="translate(0 -0.09)"/><path class="cls-6" d="M140.29,104c1.38-2.33,1.22-5-.37-6s-4,.12-5.37,2.45-1.21,5,.37,6S138.91,106.29,140.29,104Zm-4,.75c-.87-.54-1-2-.2-3.29s2.07-1.88,2.94-1.34,1,2,.2,3.29-2,1.88-2.91,1.34Z" transform="translate(0 -0.09)"/><path class="cls-6" d="M115.71,114.88c1.38-2.34,1.21-5-.37-6s-4,.11-5.38,2.45-1.21,5,.38,6S114.33,117.24,115.71,114.88Zm-4,.75c-.87-.54-1-2-.21-3.29s2.08-1.88,2.94-1.34,1,2,.21,3.29-2,1.88-2.91,1.34Z" transform="translate(0 -0.09)"/><path class="cls-6" d="M122.35,129.9c1.38-2.34,1.21-5-.37-6s-4,.11-5.38,2.45-1.21,5,.38,6S121,132.24,122.35,129.9Zm-4,.75c-.87-.54-1-2-.21-3.29s2.08-1.88,3-1.35,1,2,.2,3.3-2.09,1.93-3,1.34Z" transform="translate(0 -0.09)"/><path class="cls-6" d="M136.92,122.63c1.38-2.33,1.21-5-.38-6s-4,.11-5.37,2.45-1.21,5,.37,6S135.54,125,136.92,122.63Zm-4,.75c-.87-.54-1-2-.21-3.29s2.07-1.88,2.94-1.34,1,2,.21,3.29-2.05,1.88-2.91,1.34Z" transform="translate(0 -0.09)"/><path class="cls-6" d="M132.12,116.18c2.83-4.8,2.49-10.34-.77-12.36s-8.2.24-11,5-2.49,10.34.77,12.36S129.28,121,132.12,116.18Zm-9.29,3.51c-2.62-1.62-2.9-6.07-.62-9.92s6.25-5.67,8.87-4,2.89,6.07.61,9.92-6.25,5.67-8.86,4Z" transform="translate(0 -0.09)"/><path class="cls-6" d="M130.37,106.91c-2.18-1.35-5.48.16-7.37,3.36s-1.67,6.91.51,8.25,5.48-.15,7.37-3.36S132.54,108.24,130.37,106.91Z" transform="translate(0 -0.09)"/><path class="cls-6" d="M148.38,184.11A108.55,108.55,0,0,0,158.82,175a119.44,119.44,0,0,0,9.65-10.71,129.39,129.39,0,0,0,8.43-11.83,135.13,135.13,0,0,0,6.89-12.33,134.17,134.17,0,0,0,5.45-12.77,130.33,130.33,0,0,0,4-13.11,116.76,116.76,0,0,0,2.51-13.38,105.35,105.35,0,0,0,.87-13.52,89.71,89.71,0,0,0-1-13.5,76.67,76.67,0,0,0-3.23-13.29,64.36,64.36,0,0,0-5.61-12.19,52.68,52.68,0,0,0-7.91-10.17,46.43,46.43,0,0,0-22.66-12.55,52.43,52.43,0,0,0-14.51-1.22,63.51,63.51,0,0,0-16.16,3.06,76.77,76.77,0,0,0-10.72,4.38,83,83,0,0,1,14.39-6.24,67,67,0,0,1,17-3.21,55,55,0,0,1,15.24,1.27c1.14.26,2.25.56,3.35.9s2.17.7,3.22,1.1,2.08.83,3.09,1.3,2,1,3,1.49l-9-4.91c-1-.55-2-1.07-3.07-1.55s-2.12-1-3.21-1.37-2.21-.81-3.34-1.16-2.3-.68-3.47-1A58.84,58.84,0,0,0,136.26,17a68.87,68.87,0,0,0-17.5,3,86.07,86.07,0,0,0-18.56,8.17A107.68,107.68,0,0,0,81.54,42.05a126.5,126.5,0,0,0-16.6,18.76A134,134,0,0,0,52.2,82.5a131,131,0,0,0-8.27,23.06,119.89,119.89,0,0,0-3.56,22.83,100.27,100.27,0,0,0,1,21.2,80.21,80.21,0,0,0,5.17,18.48,64.56,64.56,0,0,0,8.75,15A55.79,55.79,0,0,0,67,194.24c.56.39,1.13.77,1.7,1.14s1.13.72,1.71,1.06l1.72,1c.58.33,1.16.62,1.74.91l9.15,4.56c-.56-.28-1.12-.58-1.67-.88a18.28,18.28,0,0,1-1.66-1c-.55-.38-1.1-.67-1.64-1s-1.09-.72-1.62-1.11A51.92,51.92,0,0,1,65.3,188.08a61.62,61.62,0,0,1-8.25-14.73,78.47,78.47,0,0,1-4.72-18.21,100.26,100.26,0,0,1-.79-18.81,94.1,94.1,0,0,0,.86,14.33A74.67,74.67,0,0,0,56.89,168a58.18,58.18,0,0,0,7.84,14,49.5,49.5,0,0,0,10.62,10.32,46.44,46.44,0,0,0,12.23,6.23A48.54,48.54,0,0,0,100.27,201a57.38,57.38,0,0,0,12.69-.72,69.44,69.44,0,0,0,12.37-3.3,82.05,82.05,0,0,0,11.85-5.48A96.4,96.4,0,0,0,148.38,184.11ZM91,60.11A111.2,111.2,0,0,1,126.64,36,49.94,49.94,0,0,1,154,32.92a41.43,41.43,0,0,1,21,10,49.62,49.62,0,0,1,13.15,19.63,66.75,66.75,0,0,1,3.33,12,62.59,62.59,0,0,0-2.42-7.9,52.21,52.21,0,0,0-5.55-10.73,42.57,42.57,0,0,0-7.71-8.59,39.12,39.12,0,0,0-9.75-6.09A46.45,46.45,0,0,0,154.65,38a45.56,45.56,0,0,0-12.72.4,13.26,13.26,0,0,1,2.09-.13h2.24a38.24,38.24,0,0,1,20.06,5.59,39.43,39.43,0,0,1,14.38,16.2,59.32,59.32,0,0,1,5.87,24,90.28,90.28,0,0,1-3.16,27.17,112.9,112.9,0,0,1-11.23,27.1,111.53,111.53,0,0,1-18.51,24,87.08,87.08,0,0,1-22.74,16.37,57.44,57.44,0,0,1-22.79,6,39.1,39.1,0,0,1-20.34-4.5,36.51,36.51,0,0,1-5.91-4l.24.26q.59.67,1.2,1.32c.41.43.82.84,1.24,1.25s.86.81,1.29,1.19.88.77,1.33,1.13A39.47,39.47,0,0,0,108,190a51.32,51.32,0,0,0,21.75-2.56,67.88,67.88,0,0,0,8.87-3.67,73.15,73.15,0,0,1-12.82,5.71,54,54,0,0,1-22.87,2.72c-7.84-.87-19.38-2.36-25.92-7.68-7-5.66-12.1-13.43-15.31-22.76-3.37-9.79-4.54-21.12-3.43-33.18A106.53,106.53,0,0,1,68.81,90.91,110.82,110.82,0,0,1,91,60.13Z" transform="translate(0 -0.09)"/><path class="cls-6" d="M0,100.63a92.54,92.54,0,0,0,1.39,14.19,85.28,85.28,0,0,0,3.45,13.26,79.81,79.81,0,0,0,5.32,12c1,1.85,2.09,3.64,3.24,5.39a40.27,40.27,0,0,0,4.83,6.7c3.42,3.74,4.34,4.75,5.39,5.76.56.53.66.59.73.62a6.05,6.05,0,0,0,.71.19c.06-.11-5-10.1-6.17-10-.5,0-.15.87-.74.69-.17-.05-.52-.16-1.57-1.4-.46-.54-.63-.77-1.58-2.07-.91-1.69-1.75-3.43-2.54-5.2,3.22,4.72,3.33,4.86,4,5.53.41.41.6.53.79.5,1.41-.55,1.41-.55,1.27-1.55,0-.1-2.61-11-3.78-11.54-.63-.27-1.22.7-1.39,1s-.49.9-1.67-.71a14.53,14.53,0,0,1-1.29-2.18c-1.33-2.56-2.07-3.92-2.55-4.64-.18-.73-.34-1.46-.51-2.19,3.45,5.73,3.45,5.73,4.09,6.3.22.18.57.48.9.32,2-1.12,2-1.12,2-2.37,0-.11-.55-11.08-1.91-11.41-.5-.13-1.18.36-2,1.46-.62.79-1.44-.15-1.76-.59a9.46,9.46,0,0,1-1.13-2A29.59,29.59,0,0,0,5.3,112c-.12-1.49-.21-3-.26-4.52a7.73,7.73,0,0,0,.38,1.05c2.79,5.91,2.79,5.91,3.41,6.42a.87.87,0,0,0,1,.19c2.69-1.67,2.69-1.67,3-3,0-.12,1.61-11.88.07-12.08-.56-.08-1.45.53-2.64,1.81-.87.93-1.64,0-1.92-.4a7.07,7.07,0,0,1-.85-2.07c-1.23-4.19-1.68-4.81-2-5q.27-3,.74-6a8.81,8.81,0,0,0,.37,2.1c2.18,6.1,2.18,6.1,2.8,6.57a.93.93,0,0,0,1.15.08C14.09,95,14.09,95,14.68,93.49c0-.12,4-12.55,2.24-12.76-.27,0-1.14.11-3.4,2.13a1.29,1.29,0,0,1-1.82.24,1.26,1.26,0,0,1-.44-.6,5.85,5.85,0,0,1-.55-2c-.64-3.8-1.15-5.31-1.71-5,.53-1.92,1.12-3.84,1.77-5.74a7.06,7.06,0,0,0,.08,2.2c1.45,5.82,1.45,5.82,2.05,6.23a1.12,1.12,0,0,0,1.26,0c4.2-2.38,4.2-2.38,5.1-3.89.06-.12,5.79-11.53,4.27-11.91-.36-.09-1.35,0-4.06,2-1.41,1-2.1.22-2.33-.16a4,4,0,0,1-.41-1.89c-.24-3.78-.7-4.52-1.11-4.48.78-1.63,1.59-3.25,2.44-4.84A6.11,6.11,0,0,0,18,54.88c1,5.79,1,5.79,1.69,6.17a1.53,1.53,0,0,0,1.52,0c5.32-2.43,5.32-2.43,6.51-3.86.09-.11,7.88-11,6.14-11.38-.41-.09-1.59,0-4.94,1.82-1.52.82-2.27.37-2.58,0a2.77,2.77,0,0,1-.45-2c0-2.44-.16-3.86-.61-4.22l.36-.51c.6-.84,1.21-1.67,1.84-2.49a3.42,3.42,0,0,0,0,.64c.63,4.93.63,4.93,1.28,5.27a2,2,0,0,0,1.59,0c5.73-2,5.73-2,6.87-3,.41-.35,8.74-8.94,7.53-9.52-.27-.13-1.34-.26-5.38,1.34-1.39.55-2.14.36-2.52.1a1.79,1.79,0,0,1-.5-1.82,7.68,7.68,0,0,0-.1-3.13c.81-.82,1.62-1.63,2.45-2.43.39,4.36.39,4.36,1.08,4.67a2.66,2.66,0,0,0,1.76,0c6.45-1.6,6.45-1.6,7.76-2.41.11-.07,10-7.37,8.7-7.91-.31-.12-1.49-.27-5.93.92-1.64.44-2.46.2-2.85-.08-.58-.41-.47-1-.38-1.51a6.58,6.58,0,0,0,.12-2.34c.8-.59,1.6-1.16,2.41-1.72.23,3.1.25,3.12.92,3.39h0A3.55,3.55,0,0,0,54.1,19c6.73-1,6.73-1,8.16-1.6.11,0,10.11-5,9.27-5.62l-.11-.05c-.34-.11-1.6-.3-6.12.35a5.35,5.35,0,0,1-2.75-.13.9.9,0,0,1-.63-1.11,1.22,1.22,0,0,1,.07-.17A4.2,4.2,0,0,0,62.19,9c1-.52,2-1,3.08-1.5.2,2.39.23,2.41.93,2.65a5,5,0,0,0,2,.19c7.11-.37,7.11-.37,8.39-.65,1-.21,10-3,10.13-3.41a.46.46,0,0,0-.18-.13c-3.19-1-6,.37-9.13-.55-1.13-.33-1-.79-.84-1.07a2.81,2.81,0,0,0,.19-.81c1.26-.23,2.6-.45,3.93-.65.21,1.21.27,1.24.86,1.43a7.08,7.08,0,0,0,1.77.26c6.36.35,6.36.35,7,.33.87,0,9.17-.68,9.4-.78a.54.54,0,0,0-.16-.1c-2.64-.79-5.26-.62-7.9-1.27-1.28-.32-1.13-.59-1-.71a.53.53,0,0,0,0-.66h0c-.22-.42-2.73-1.76-7.11-1.46-1.9.18-3.82.43-5.74.76A80.94,80.94,0,0,0,63.38,4.78a87.92,87.92,0,0,0-14.45,7A95.42,95.42,0,0,0,34.81,21.87,101.52,101.52,0,0,0,19.54,38.75,104.2,104.2,0,0,0,1.89,79.47,98.88,98.88,0,0,0,0,100.63Z" transform="translate(0 -0.09)"/><path class="cls-6" d="M89.33,7.37a.82.82,0,0,0,.2.12c2.92.77,5.59-.11,8.51.65,1.25.33,1.14.71,1.06,1-.3,1,.07,1.69,1,1.74.11,0,10.46-1.29,10.18-2.16-.8-1.47-.8-1.47-3.49-1.93-7-1.1-7.24-1.14-9.28-1.07C94.6,5.79,89.54,6.76,89.33,7.37Z" transform="translate(0 -0.09)"/><path class="cls-6" d="M92.43,9.82c-7.31-.33-7.31-.33-9.4.16-2.43.56-9.08,3.33-8.22,3.92l.1,0c3.16.84,5.49-1.21,8.73-.09,1,.34.86.86.77,1.24-.18.77-.43,2.55,1,2.45.1,0,10.49-3.5,10.29-5C95.13,10,95.13,10,92.43,9.82Z" transform="translate(0 -0.09)"/><path class="cls-6" d="M61.12,22.73h.07c.46.13,1.29.19,5.33-.7a5.06,5.06,0,0,1,3.26,0,1.19,1.19,0,0,1,.54,1.47c-.13.79-.44,3.36,1,3.08.1,0,10.1-5.41,9.93-7.62-.53-3.53-.53-3.53-3.16-3.42-7.09.39-7.09.39-8.86,1.14C66.75,17.76,60.17,22.08,61.12,22.73Z" transform="translate(0 -0.09)"/><path class="cls-6" d="M55.65,26.57c-2.18,1.38-8.86,7.52-7.54,8,.33.1.94.29,5.08-1.13.82-.29,2.21-.76,3.14-.18.7.45.63,1.17.58,1.81-.1,1-.28,4.21,1.12,3.77.1,0,9.53-7.3,9.31-10.2-.44-3.46-.44-3.46-.6-3.68s-.85-.78-2.53-.56C57.33,25.51,57.33,25.51,55.65,26.57Z" transform="translate(0 -0.09)"/><path class="cls-6" d="M77.09,39.63c.5-.3,10.55-7.6,9-8.21-.34-.14-1.66-.33-6.45.83-1.77.42-2.69.15-3.14-.16A1.45,1.45,0,0,1,76,30.47c.28-2.45-.14-3.54-1.26-3.24s-9.78,6.23-9.45,9.67c.69,4.66.69,4.66,1.47,5a3,3,0,0,0,1.94.08C75.72,40.47,75.72,40.47,77.09,39.63Z" transform="translate(0 -0.09)"/><path class="cls-6" d="M100.54,22.53l-.13-.05c-.36-.13-1.73-.35-6.47.24A5.76,5.76,0,0,1,91,22.53a1,1,0,0,1-.77-1.19,1,1,0,0,1,0-.16c.32-1.81-.09-2.65-1.22-2.48-1.37.19-10,4.2-9.73,6.87.55,3.69.55,3.69,1.31,4a4,4,0,0,0,2,.13c7.13-.89,7.13-.89,8.6-1.47C91.75,28,101.54,23.13,100.54,22.53Z" transform="translate(0 -0.09)"/><path class="cls-6" d="M104.54,13c-1.77,0-10.38,2.31-10.33,4.32v.12c.56,3,.56,3,1.37,3.25a5.58,5.58,0,0,0,2.11.23c7.59-.25,7.59-.25,8.91-.52.93-.2,10.22-2.94,10.29-3.5a.82.82,0,0,0-.2-.12c-3.39-1.07-6.4.27-9.77-.72-1.23-.36-1.12-.83-1-1.15C106.2,13.66,105.75,13,104.54,13Z" transform="translate(0 -0.09)"/><path class="cls-6" d="M107.27,11.91c.77,2.38.77,2.38,1.7,2.68h0a10.26,10.26,0,0,0,2.46.39c8.71.58,8.71.58,9.91.56.11,0,11.66-.87,11.9-1a.91.91,0,0,0-.26-.13c-3.61-1.08-7.22-.92-10.83-1.83-1.76-.45-1.68-.8-1.64-1s.28-1.22-2.05-1.45C115.74,9.83,107,10.33,107.27,11.91Z" transform="translate(0 -0.09)"/><path class="cls-6" d="M43.31,39.29c-2,1.75-7.91,9.22-6.61,9.82.68.23,2-.21,5.1-1.68,1.17-.55,2.16-.54,2.73,0a2.6,2.6,0,0,1,.48,2c0,1.51,0,5,1.36,4.38.09,0,8.47-9,8.13-12.47-.59-4.21-.59-4.21-.8-4.53s-.69-.87-2.37-.49C44.85,37.94,44.85,37.94,43.31,39.29Z" transform="translate(0 -0.09)"/><path class="cls-6" d="M32.54,54.53c-1.73,2.06-6.63,10.8-5.36,11.46.65.27,1.86-.26,4.6-2,1.57-1,2.36-.26,2.63.11A3.79,3.79,0,0,1,35,66.25c.08,1.36.43,5.73,1.65,5,.08,0,7.18-10.57,6.61-14.6-.85-5-.85-5-1.06-5.33s-.72-1-2.28-.5C33.9,52.93,33.9,52.93,32.54,54.53Z" transform="translate(0 -0.09)"/><path class="cls-6" d="M20.54,84.73c.46.14,1,.3,3.86-2,.94-.78,1.85-.69,2.42.24a4.7,4.7,0,0,1,.55,1.71C28,88.91,28.73,91,29.43,90.5c.07,0,5.32-11.62,4.51-15.85-1.19-5.46-1.19-5.46-1.35-5.75a1.5,1.5,0,0,0-2-.68l-.12.06c-5.2,2.35-5.2,2.35-6.26,4.11C22.94,74.43,19.28,84,20.54,84.73Z" transform="translate(0 -0.09)"/><path class="cls-6" d="M16.7,103.6c.43.18.92.38,3.17-1.79.75-.73,1.56-.58,2.21.41a6.63,6.63,0,0,1,.74,1.78c1,3.7,1.81,5.74,2.46,6.08C26.16,110,28.45,97.7,27.41,94c-1.77-6-1.77-6-1.92-6.31a1.41,1.41,0,0,0-1.83-.79l-.17.08C19,89.39,19,89.39,18.28,91.19,17.42,93.24,15.46,102.75,16.7,103.6Z" transform="translate(0 -0.09)"/><path class="cls-6" d="M34.27,115.73c4.15-2.12,4.15-2.12,4.84-3.74.06-.13,4.36-13.25,2.65-13.89-.38-.14-1.42,0-4.14,2.12a1.57,1.57,0,0,1-2.23.07,1.49,1.49,0,0,1-.34-.45,6.27,6.27,0,0,1-.77-2.34c-.83-4.37-1.49-6.08-2.15-5.54s-4.42,10.85-2.59,16.28c2.59,6.81,2.59,6.81,3.32,7.37h0A1.24,1.24,0,0,0,34.27,115.73Z" transform="translate(0 -0.09)"/><path class="cls-6" d="M49.6,77.8c-.53-.15-1.81.09-4.9,2.07-1.7,1.09-2.56.15-2.85-.3a4.62,4.62,0,0,1-.56-2.21c-.37-4-1-5.7-1.76-5.16S33.08,83,34.35,88.2C36.24,95,36.24,95,37,95.51h0a1.47,1.47,0,0,0,1.55,0C43.66,93,43.66,93,44.72,91.34,44.8,91.24,51.54,78.32,49.6,77.8Z" transform="translate(0 -0.09)"/><path class="cls-6" d="M53.33,71.74c.1-.11,8.47-11.5,6.45-12-.46-.11-1.78,0-5.46,1.78-1.78.87-2.63.26-3-.18a3.15,3.15,0,0,1-.5-2.07c-.1-5.3-1.18-4.73-1.53-4.55-1,.51-7.83,9.45-7,14.17,1.35,6.24,1.35,6.24,2.09,6.68a1.85,1.85,0,0,0,1.71,0C52.05,73.24,52.05,73.24,53.33,71.74Z" transform="translate(0 -0.09)"/><path class="cls-6" d="M64.18,54.57C65,53.85,73.9,44.71,72.56,44c-.39-.21-1.74-.31-6.3,1.33-1.61.59-2.5.34-3,0a2.09,2.09,0,0,1-.7-2.08c.11-2.11,0-4.52-1.31-4-1.09.42-9.27,8.14-8.73,12.38,1,5.62,1,5.62,1.76,6a2.45,2.45,0,0,0,1.88,0C62.89,55.65,62.89,55.65,64.18,54.57Z" transform="translate(0 -0.09)"/><path class="cls-6" d="M16.28,122.24c.24.16.8.53,2.3-1.18.3-.35,1-1.16,2.15.42a8.89,8.89,0,0,1,.91,1.76c1,2.46,2.3,5.5,3.08,6,.89-.12.72-11.86-.6-15.26-2.44-6.06-2.44-6.06-2.59-6.31-.58-.92-1.21-1.21-1.88-.85-3.55,2.07-3.55,2.07-3.92,3.75C15.24,112.77,15.1,121.33,16.28,122.24Z" transform="translate(0 -0.09)"/><path class="cls-6" d="M20.73,138.24c.2-.27.66-.9,1.89.66a14.15,14.15,0,0,1,1.07,1.69c1,1.89,2.83,5.14,3.64,5.73h.13c.12-.25-1.2-10-3.16-13.88-3.92-7.62-3.92-7.62-5-7.14-2.74,1.57-2.74,1.57-2.78,3.06-.05,2,1.2,9.56,2.44,10.6h0C19.23,139.13,19.77,139.54,20.73,138.24Z" transform="translate(0 -0.09)"/><path class="cls-6" d="M28.54,156c1.55,2.21,3.55,4.89,4.08,5.18a73,73,0,0,0-5.08-11.69c-4.49-7-4.49-7-5.21-6.7-2,1-2,1-1.72,2.16.45,2.2,2.74,7.76,4,8.85.22.18.72.6,1.2-.21.1-.16.36-.6,1.72,1A15.69,15.69,0,0,1,28.54,156Z" transform="translate(0 -0.09)"/><path class="cls-6" d="M27,157.31c-1.57.36-1.57.36-.9,1.61a39.66,39.66,0,0,0,6.06,8c.54.5.79.66.91.34h.12a17.7,17.7,0,0,1,3,2.93c2.81,3.09,4.78,5.05,5.13,5.34l-7.9-10.95C27.54,157.24,27.54,157.24,27,157.31Z" transform="translate(0 -0.09)"/><path class="cls-6" d="M44.86,173.77c-.36.31-.66.59-2.66-1.82-.38-.46-.38-.46-1.7-2.21-2.25-3-3.14-4.11-3.55-4.34-.18.21,2.11,5.67,7.12,11.11,3.77,4,4.91,5.22,6.1,6.34h0a7.24,7.24,0,0,0,.9.76c.3.13.71.31,1,.42h.1c-.11-.57-5.39-9.42-5.44-9.49C46.05,173.51,45.41,173.24,44.86,173.77Z" transform="translate(0 -0.09)"/><path class="cls-6" d="M35.76,156.4a15.58,15.58,0,0,1-1.48-2.22c-2.43-4.16-3.21-5.34-3.67-5.47-.35.39,1.13,7.83,4.92,13,4.57,6,4.57,6,5.4,6.79.59.53.76.57,1,.59,1.86-.25,1.86-.25,1.65-1.37,0-.1-2.58-10.54-4-11.18-.75-.33-1.52.5-1.74.77S37.14,158.08,35.76,156.4Z" transform="translate(0 -0.09)"/><path class="cls-6" d="M36.42,138.15c-.82-.24-1.94.86-2.27,1.2s-1,1-2.23-.61a11.08,11.08,0,0,1-1.23-2.27c-1.87-4.25-2.51-5.24-3-5.53-.89,0-.45,9.34,2.45,14.27,3.91,6.34,3.91,6.34,4.66,7,.49.41.74.51,1.06.43,2.49-.94,2.49-.94,2.54-2.25C38.43,150.24,38.05,138.63,36.42,138.15Z" transform="translate(0 -0.09)"/><path class="cls-6" d="M28.27,128c3.24,6.57,3.24,6.57,4,7.17.49.37.77.44,1.18.29,3.22-1.57,3.22-1.57,3.55-3,0-.13,2-12.74.1-13.07-.65-.12-1.69.48-3.09,1.78-1,1-1.92-.08-2.26-.57a8.11,8.11,0,0,1-1-2.3c-1.49-4.76-2-5.35-2.41-5.55C27.42,112.85,26,123,28.27,128Z" transform="translate(0 -0.09)"/><rect class="cls-7" x="589.96" y="187.83" width="76.1" height="9.21"/></g></svg>