<svg xmlns="http://www.w3.org/2000/svg" width="410.802" height="244.505" viewBox="0 0 410.802 244.505"><g transform="translate(0.034 0.002)"><path d="M293.965,510.326c-2.234,0-4.1-6.888-4.1-15.356s1.862-15.36,4.1-15.36,4.1,6.888,4.1,15.36S296.294,510.326,293.965,510.326Z" transform="translate(10.773 -307.862)" fill="#fff"/><path d="M809.71,363.926l-2.42-2.606,2.325-3.07h3.723l-.091.091,2.606,2.792-2.234,2.792Z" transform="translate(-739.063 -210.049)" fill="#fff"/><path d="M786.631,322.526l.1-.091-2.606-2.792,2.325-2.792h3.818l2.511,2.7-2.42,2.978Z" transform="translate(-706.399 -185.775)" fill="#fff"/><path d="M809.71,381.476l-2.42-2.7,2.325-2.979h3.723l-.091.091,2.606,2.792-2.234,2.792Z" transform="translate(-739.063 -220.338)" fill="#fff"/><path d="M786.631,357.176l.1-.091-2.606-2.792,2.325-2.792h3.818l2.511,2.7-2.42,2.978Z" transform="translate(-706.399 -206.091)" fill="#fff"/><path d="M786.631,339.85l.1-.1-2.606-2.792,2.325-2.792h3.818l2.511,2.7-2.42,2.979Z" transform="translate(-706.399 -195.93)" fill="#fff"/><path d="M809.71,329.276l-2.42-2.7,2.325-2.979h3.723l-.091.091,2.606,2.792-2.234,2.792Z" transform="translate(-739.063 -189.733)" fill="#fff"/><path d="M809.71,346.6l-2.42-2.7,2.325-2.979h3.723l-.091.1,2.606,2.792-2.234,2.792Z" transform="translate(-739.063 -199.888)" fill="#fff"/><path d="M786.631,374.726l.1-.091-2.606-2.792,2.325-2.792h3.818l2.511,2.606-2.42,3.07Z" transform="translate(-706.399 -216.381)" fill="#fff"/><path d="M707.768,410.442a9.337,9.337,0,0,1-9.308-9.308,9.356,9.356,0,1,1,9.308,9.31Z" transform="translate(-577.364 -256.284)" fill="#fff"/><path d="M538.681,340.486l-2.511-2.792,2.42-2.979,3.628-.1v.281l2.606,2.792-2.325,2.792Z" transform="translate(-355.876 -196.194)" fill="#fff"/><path d="M583.905,356.05l-2.515-2.7,2.42-2.883,3.632-.1h.091l-.091.1,2.606,2.792-2.234,2.792Z" transform="translate(-419.807 -205.428)" fill="#fff"/><path d="M583.905,373.471l-2.515-2.792,2.42-2.979h3.723l-.091.091,2.606,2.792-2.234,2.792Z" transform="translate(-419.807 -215.589)" fill="#fff"/><path d="M583.905,338.686l-2.515-2.792,2.42-2.979,3.632-.1.091.1h-.091l2.606,2.792-2.234,2.792Z" transform="translate(-419.807 -195.139)" fill="#fff"/><path d="M583.905,390.7,581.39,388l2.42-2.883,3.632-.1.091.1h-.091l2.606,2.792-2.234,2.792Z" transform="translate(-419.807 -225.744)" fill="#fff"/><path d="M583.905,408.212l-2.515-2.792,2.42-2.883,3.632-.186h.091l-.091.186,2.606,2.792-2.234,2.792Z" transform="translate(-419.807 -235.905)" fill="#fff"/><path d="M605.955,382.15l.091-.1-2.606-2.792,2.329-2.792h3.814l2.515,2.7-2.42,2.979Z" transform="translate(-450.978 -220.731)" fill="#fff"/><path d="M605.955,399.571l.091-.186-2.606-2.792,2.329-2.792h3.814l2.515,2.7-2.42,3.074Z" transform="translate(-450.978 -230.892)" fill="#fff"/><path d="M605.955,329.95l.091-.1-2.606-2.792,2.329-2.792h3.814l2.515,2.7-2.42,2.979Z" transform="translate(-450.978 -190.126)" fill="#fff"/><path d="M605.955,347.371l.091-.186-2.606-2.792,2.329-2.792h3.814l2.515,2.7-2.42,3.074Z" transform="translate(-450.978 -200.286)" fill="#fff"/><path d="M605.955,364.826l.091-.091-2.606-2.792,2.329-2.792h3.814l2.515,2.7-2.42,2.979Z" transform="translate(-450.978 -210.576)" fill="#fff"/><path d="M560.951,331.75l.1-.1-2.606-2.792,2.234-2.792h3.909l2.42,2.7-2.329,2.978Z" transform="translate(-387.267 -191.181)" fill="#fff"/><path d="M85.293,142.642c.463-.091,9.585-2.511,16.287-2.606a2.9,2.9,0,0,1,.467-.649c-4.191,0-13.871-.186-14.243-.467-.649-.277-1.862-6.979,1.3-11.447,3.074-4.468,12.473-5.585,18.339-5.585,3.351,0,3.628,3.07,3.351,5.771,7.91-10.239,19.824-24.854,32.681-37.045,12.741-12.1,26.517-22.153,37.951-23.27,35-3.632,85.728-2.979,119.236-2.606,13.122.186,23.456.277,29.413.091,5.771-.091,9.494-.091,16.754.1a62.046,62.046,0,0,1,9.866.649,63.293,63.293,0,0,1,14.611,4.191c9.122,3.909,24.2,17.962,35.837,39.556a35.349,35.349,0,0,1,15.459,5.771c4.1,2.792,10.239,8.563,16.287,26.53a147.119,147.119,0,0,1,6.7,30.613,76.653,76.653,0,0,1,5.792,17.685,141.549,141.549,0,0,1,2.792,23.994c.931,28.131-5.585,51.1-14.611,51.471h-.186l-34.625,1.212-.1-.1a1.775,1.775,0,0,1-.745.1c-4.186,0-7.91-6.238-10.611-16.291l-30.158,12.845c-.745,12.754-2.606,23.923-5.117,31.928-2.606,8.1-6.052,12.75-9.589,12.75l-34.625,1.117-.091-.091c-.186,0-.467.091-.745.091-4.468,0-8.472-7.165-11.265-18.707H268.021l-3.723-2.792L127.369,285.3v4l-15.823.827c-2.606,9.494-7.728,15.823-13.871,15.823H65.841v-.091c-8.191-1.117-14.429-13.5-14.429-29.322v-.463l-.649-.1-2.329-.558-.186-.931C47.871,273.515,24.324,172.15,85.293,142.642Zm342.063,72.324c.745,22.62,6.052,41.05,11.823,40.769,5.792-.186,9.68-18.8,9.1-41.418-.439-13.13-2.308-24.668-4.989-32.114H443.1c0-.186-.1-.463-.1-.745-1.953-4.931-4.1-7.91-6.42-7.91h-.1C430.616,173.548,426.52,192.255,427.356,214.966ZM56.529,176.907h-.186c-1.957,0-3.446,1.953-4.468,6.048a45.845,45.845,0,0,0-1.4,12.382c.1,3.07.654,5.676,2.048,6.516.186.091.654.277,1.212.558a1.506,1.506,0,0,0-.467-.186c-.558-.281-1.58-1.584-1.675-5.866a51.615,51.615,0,0,1,1.4-12.1c.931-3.442,2.139-5.3,3.537-5.49H56.9c2.979.186,7.91,5.378,11.447,10.239l.19.186h.368c2.325.558,23.27,5.3,29.227,6.329.558,0,.931.463,1.3.931a1.878,1.878,0,0,1-.1,1.58c.1-.186.281-.372.372-.558a2.639,2.639,0,0,0,.186-2.511,2.714,2.714,0,0,0-1.953-1.489c-5.68-.931-25.6-5.494-29.231-6.238-2.412-2.706-8.278-9.966-12.187-10.338Zm34.812,20.105-2.9,1.394,2.068,2.329,2.9-1.489Zm.558-1.2c-.186,0-.277-.091-.463-.091l.186.186Zm-18.616,9.4,2.9-1.489-2.048-2.329-2.9,1.489Zm-.558,1.022c.186,0,.281.1.467.1l-.186-.186Zm6.8.1,2.9-1.489-2.068-2.329L77.454,204Zm-.654,1.208a2.259,2.259,0,0,1,.745.1l-.277-.281Zm9.775-1.8L86.575,203.5l-2.9,1.489,2.068,2.325Zm-2.329,2.234.186.277a5.53,5.53,0,0,0,1.584-.186,9.793,9.793,0,0,0,1.58-.931l-.558-.649Zm-3.351-2.515-2.9,1.489.745.745c1.208.186,2.234.281,3.256.467L85,207.69ZM79.8,201.828,77.731,199.5l-2.9,1.489,2.068,2.329Zm-3.165,2.42-2.9,1.489.74.827c.931.186,2.068.467,2.983.654l1.208-.654Zm-2.979-3.537-2.068-2.329-2.9,1.489L70.76,202.2Zm-3.165,2.606-2.9,1.489.277.186c1.208.277,2.515.65,3.723.931l.827-.467Zm-.558-.745-2.068-2.329-2.9,1.489,2.068,2.234Zm-10.053-6.7,2.068,2.325,2.9-1.58-2.068-2.234Zm2.408-2.13-2.048-2.325-2.9,1.489,2.048,2.234Zm.186,4.935L64.522,201l2.9-1.489-2.068-2.325Zm1.766,3.351-2.511,1.3c1.3.463,2.792.745,4.282,1.208l.186-.091Zm-.558-.558-2.048-2.329-2.9,1.489,2.048,2.329ZM58.006,201l-1.489.745c.827.281,1.953.654,2.979.931Zm.372-.931,2.9-1.489-2.048-2.325-2.9,1.489Zm.186-4.468-2.048-2.325-2.9,1.489,2.048,2.325Zm-1.655-3.351,2.9-1.489-2.068-2.325-2.9,1.489Zm1.022-4.84,2.9-1.489L58.78,183.6l-2.9,1.489Zm.559.654,2.068,2.325,2.9-1.489-2.068-2.325Zm2.606,2.979,2.019,2.329,2.9-1.489-2.048-2.325Zm2.515,2.979,2.068,2.325,2.9-1.489-2.068-2.325Zm2.511,2.9,2.068,2.329,2.9-1.489-2.048-2.329Zm5.68.459,2.9-1.489-2.068-2.329-2.9,1.489Zm.558.649,2.04,2.333,2.9-1.489-2.068-2.234Zm5.68.467,2.9-1.489-2.048-2.329-2.9,1.489Zm.558.65,2.068,2.329,2.9-1.489L81.5,197.654Zm2.511,2.9,2.048,2.325,2.9-1.489-2.048-2.325Zm5.68.558,2.9-1.489-2.048-2.234-2.9,1.394Zm.55.658,2.068,2.329,2.9-1.489-2.068-2.329Zm2.511,2.9.567.534a21.845,21.845,0,0,0,1.655-1.584Zm3.165-2.515.558-.277a17.524,17.524,0,0,0,1.584-2.048l-1.3-1.489-2.9,1.489ZM55.6,201.4l2.048-.931L55.6,198.146l-2.143,1.208c.186,1.212.558,1.489.558,1.489a10.793,10.793,0,0,1,1.584.534Zm-.654-4-1.953-2.234v.931c0,.827.091,1.58.091,2.139Zm-1.862-3.26,2.9-1.489-2.068-2.325-.745.463c0,1.212-.1,2.234-.186,3.351Zm.372-4.282.1-.091-.1-.1Zm.745-.463,2.9-1.489-2.048-2.329-1.212.654a10.515,10.515,0,0,1-.277,2.325Zm.372-4.551-.277-.277c0,.186,0,.463-.1.559Zm.745-.277,2.9-1.489-1.957-2.234-.558.186c-.277.559-.745,1.489-1.208,2.7Zm3.818-1.675,1.117-.558a9.688,9.688,0,0,0-2.979-1.957l-.1.1Zm.372.463,2.068,2.234,1.394-.745c-.745-.745-1.489-1.489-2.234-2.139Zm2.606,2.9,2.048,2.234,1.4-.654c-.745-.827-1.4-1.58-2.068-2.325Zm2.511,2.792,2.068,2.325,1.655-.827-.827-.1-.558-.745c-.281-.463-.654-.827-.931-1.3Zm2.627,3.119,2.048,2.325L72.2,193l-1.58-1.862a4.238,4.238,0,0,0-.931-.186Zm5.585.558,1.287-.637a20.026,20.026,0,0,0-2.234-.559Zm.649.372,2.068,2.234,2.9-1.489-1.3-1.3a4.406,4.406,0,0,1-1.655-.467Zm5.763.645.827-.463c-.558-.186-1.117-.281-1.584-.467Zm.372.558,2.068,2.329,2.9-1.489-.931-1.117a21.61,21.61,0,0,1-2.329-.558Zm2.606,2.9,2.068,2.325,2.9-1.489-2.068-2.325Zm3.165-2.42.558-.186a2.391,2.391,0,0,1-.931-.186Zm.467.745,2.048,2.234,2.9-1.489-.649-.745c-.931-.186-1.957-.467-2.978-.654Zm8.274,3.442,2.9-1.489-.558-.649c-.931-.186-2.143-.467-3.446-.654l-.952.467Zm.558.467.931,1.208a29.374,29.374,0,0,0,1.655-2.511ZM263.537,72.944c-2.9,0-18.43-.1-40.024.463-6.329.1-12.564.281-18.893.745-11.169.745-17.685,1.212-22.62,2.234-6.329,1.3-14.425,4.468-29.876,18.616A236.99,236.99,0,0,0,117.5,135l-2.7,4.1c2.068-.091,4.377-.091,6.983-.186,4-4.373,14.425-15.542,25.235-26.339A244.156,244.156,0,0,1,167.029,94.6a44.918,44.918,0,0,1,4-2.979,38.985,38.985,0,0,1,3.26-2.139c1.862-1.117,2.9-1.675,2.9-1.675s-.931.745-2.7,1.953c-.827.558-1.862,1.489-2.979,2.329a38.366,38.366,0,0,0-3.632,3.351,229.754,229.754,0,0,0-18.243,19.443c-7.723,8.936-15.079,18.057-19.638,23.923,54.73-.827,185.413.558,206.354.745l-.186-6.983c-.091-2.234-.091-4.468-.186-6.888l-.186-9.494A257.81,257.81,0,0,1,337,85.657l-122.864-3.07,123.514-3.074c.467-2.139.827-4.186,1.3-5.792C305.981,73.486,282.062,73.2,263.537,72.944Zm75.208,71a14.168,14.168,0,0,0-3.628.745,21.2,21.2,0,0,0-4.191,1.584,26.551,26.551,0,0,0-4.282,2.606,33,33,0,0,0-4.186,3.351c-1.4,1.208-2.515,2.606-3.909,3.909-1.3,1.3-2.234,2.9-3.351,4.186a40.342,40.342,0,0,0-2.9,4.377,48.923,48.923,0,0,0-3.07,5.585V170.2c-4.654,1.3-9.494,2.511-14.148,3.537q-11.17,2.515-22.339,4.186a20.926,20.926,0,0,1-4.191.186c-1.117,0-2.511-.091-4-.186a47.933,47.933,0,0,1-10.425-2.048c-6.425-1.953-28.763-1.3-57.15-.649-28.2.745-60.224,1.489-84.052.091a339.177,339.177,0,0,1-40.4-4.931c.745-1.862,1.584-3.632,2.515-5.589.827-2.048,1.953-4.1,2.792-6.048.931-1.957,1.862-3.632,2.606-5.308,1.489-3.07,2.606-5.117,2.606-5.117a31.712,31.712,0,0,0-4.1,4.186c-1.117,1.3-2.234,2.979-3.537,4.84a62.51,62.51,0,0,0-3.26,6.052,35.466,35.466,0,0,0-2.325,6.425,33.313,33.313,0,0,0-1.3,5.862,23.736,23.736,0,0,0-.19,4.191v1.58s.19-.558.563-1.489c.277-.931.827-2.234,1.394-3.909.277-.827.745-1.862,1.117-2.792a320.218,320.218,0,0,0,41.422,5.026c23.994,1.4,56.033.654,84.329-.091,26.993-.654,50.263-1.212,55.938.463a56.883,56.883,0,0,0,11.169,2.143c1.584.091,2.979.186,4.191.186h.745a28.9,28.9,0,0,0,4-.281c7.541-1.117,15.174-2.511,22.62-4.186,4-.827,7.819-1.957,11.819-2.9-.277.745-.65,1.584-.827,2.234-.467,1.117-.745,1.957-1.117,2.7-.467,1.3-.745,2.139-.745,2.234a20.2,20.2,0,0,0,1.394-2.048c.467-.654.931-1.489,1.489-2.329.654-.827,1.212-1.953,1.957-3.07.091-.1.091-.186.186-.467h.186l-.1-.186c.654-.931,1.3-1.953,1.957-2.9a32.979,32.979,0,0,1,2.7-3.909c.931-1.3,1.957-2.792,2.979-4.1,1.117-1.307,2.143-2.8,3.351-4a33.888,33.888,0,0,1,3.537-3.723c1.3-1.212,2.515-2.329,3.723-3.351a32.455,32.455,0,0,1,3.723-2.792,36.361,36.361,0,0,1,3.632-1.957,22.339,22.339,0,0,1,6.048-1.953,5.63,5.63,0,0,1,1.212-.1,5.034,5.034,0,0,0-1.212-.091C340.888,143.854,339.87,143.945,338.745,143.945Zm-93.728,56.5a9.514,9.514,0,0,0-1.121-2.155,9.689,9.689,0,0,0-.931-1.3,7.439,7.439,0,0,0-1.212-1.212,12.29,12.29,0,0,0-6.048-2.511L115.26,189.818a17.656,17.656,0,0,0-2.048.1,11.546,11.546,0,0,0-7.074,3.537,11.2,11.2,0,0,0-3.074,6.329v2.979c0,1.394.1,2.9.186,4.468,0,.558.1,1.208.1,1.675a33.7,33.7,0,0,0,.558,4.186l.091.745a3.112,3.112,0,0,1,.1.931l.277,1.489c.467,2.068.827,4,1.4,5.792a3.636,3.636,0,0,0,.463,1.3c.467,1.3.745,2.329,1.117,3.351a13.678,13.678,0,0,0,.827,1.957A18.487,18.487,0,0,0,113.1,234.8l.654.463c.091.1.186.1.277.186l.1.1a18.476,18.476,0,0,0,5.3,2.511,20.994,20.994,0,0,0,3.909.745c2.234.186,4.654.467,6.983.745,2.606.186,5.117.467,7.819.745,2.606.186,5.117.467,7.723.654l22.62,1.3c1.208,0,2.511.091,3.723.091l3.07.1c3.537.091,7.446.091,11.356.091h7.819c4,0,7.633-.091,10.983-.091,2.792-.1,5.378-.1,7.633-.281,1.3-.091,2.515-.091,3.446-.186,1.208-.091,2.139-.186,2.979-.277a32.008,32.008,0,0,0,3.256-.745c1.489-.467,3.074-.827,4.84-1.489l.583-.207a26.894,26.894,0,0,0,4-2.068c.277-.186.745-.558,1.117-.827a9.835,9.835,0,0,0,2.234-2.234,1.178,1.178,0,0,0,.186-.277c.745-1.212,1.58-2.329,2.325-3.632.281-.463.654-.931.931-1.489a42.516,42.516,0,0,0,2.515-5.026,35.368,35.368,0,0,0,1.953-5.49c.281-1.117.654-2.048.827-3.074.091-.463.091-.745.186-1.208a28.2,28.2,0,0,0,.827-5.026c.1-1.3.186-2.515.186-3.537V204.8A8.828,8.828,0,0,0,245.016,200.446Zm164.564-1.208a3.112,3.112,0,0,0-3.723-.281L375.6,217.2a1.82,1.82,0,0,0-.931.931L366.95,232.2v4.1l7.537-13.4a4.964,4.964,0,0,1,1.957-1.957l12.564-7.446,15.811-9.5a4.517,4.517,0,0,1,5.121.467l10.516,9.122.559-.186c.1-1.489.1-2.979.186-4.468-1.663-1.3-5.477-4.563-11.62-9.68Zm-42.82,47.656,53.895-24.387v-2.515l-30.435,13.875-23.46,10.7Zm-.1,3.537a19.851,19.851,0,0,1-.091,2.325l54.081-24.478V225.95Zm23.261-18.988c0-.467-.091-.745-.091-1.212l-22.993,10.52v1.208Zm2.606,15.72,28.42-12.278c-.1-1.117-.1-2.139-.1-3.256l-54.375,24.577a13.384,13.384,0,0,1-.091,1.953Zm-5.957-102.387c10.239-.931,20.2-1.675,17.871-12-1.953-8.1-6.329-10.053-8.377-10.611l-.186.186a9.928,9.928,0,0,1,4.654,3.909,13.577,13.577,0,0,1,1.957,9.217c0,.091-.1.091-.1.186,0,0-.277,6.143-8.936,7.074-6.516.745-20.291,1.208-26.434,1.394a14.058,14.058,0,0,0-1.208.745,154.19,154.19,0,0,0,20.767-.1Zm3.165-21.967a37.893,37.893,0,0,0-10.053-1.862,12.91,12.91,0,0,0-8.563,2.7,11.583,11.583,0,0,0-3.442,4.468,23.87,23.87,0,0,0-1.212,4.935c-.186.649-.277,1.394-.277,4.931l32.681-1.655a1.386,1.386,0,0,0,1.3-1.208,11.372,11.372,0,0,0-1.489-7.632c-1.953-2.619-4.745-3.549-8.936-4.666Zm-25.781,9.957a26.04,26.04,0,0,1,1.3-5.676,15.05,15.05,0,0,1,4.186-5.378c6.8-5.4,16.291-2.7,20.945-1.3,1.117.277,1.953.558,2.9.827l6.979-6.511A78.186,78.186,0,0,0,386.4,93.215c-6.048-6.7-13.494-14.8-24.407-15.823a23.94,23.94,0,0,0-6.888.463A6.288,6.288,0,0,0,352.5,79.53a9.991,9.991,0,0,0-1.953,3.074,20.541,20.541,0,0,1,3.723-.558,27.477,27.477,0,0,1,4.745.186,24.115,24.115,0,0,1,5.026,1.117,32.639,32.639,0,0,1,4.935,2.139l2.511,1.3,2.234,1.584a29.254,29.254,0,0,1,4.191,3.537,32.593,32.593,0,0,1,3.537,3.723,47.452,47.452,0,0,1,2.979,3.723c.827,1.3,1.675,2.325,2.511,3.537.827,1.117,1.3,2.139,1.957,3.07a24.549,24.549,0,0,1,1.394,2.329c.745,1.3,1.212,2.048,1.212,2.048s-.558-.745-1.489-1.957c-.467-.649-1.117-1.394-1.655-2.234a27.117,27.117,0,0,0-2.234-2.792c-.827-.931-1.862-2.048-2.792-3.07a37.633,37.633,0,0,0-3.351-3.351,43.355,43.355,0,0,0-3.723-3.26,41.193,41.193,0,0,0-4.191-2.792l-2.139-1.3-2.234-.931a30.422,30.422,0,0,0-4.468-1.394,23.434,23.434,0,0,0-4.282-.467,15.629,15.629,0,0,0-3.723.281,16.426,16.426,0,0,0-2.979.827,16.706,16.706,0,0,0-2.143.931c-.091,0-.091.1-.186.1a260.993,260.993,0,0,0-.827,43.375l.827,7.819c1.4.463,2.7.827,4.1,1.3,2.9.745,5.771,1.394,9.217,1.953.277-.186.649-.463.931-.649l-.1-2.606v-1.3a39.18,39.18,0,0,1-.087-6.04Zm-.467,115.513c.1-2.9.1-5.771.1-8.654-.186-14.615-1.584-41.327-8.274-49.7-6.42-5.308-9.866,1.862-11.26,5.771-.186.745-.467,1.489-.654,2.325,1.489-1.953,3.074-2.979,4.84-2.979,8.178.008,14.706,23.65,15.265,53.249Zm-15.265,55.384c7.728,0,13.962-23.456,13.962-52.124,0-28.763-6.234-52.219-13.962-52.219-2.511,0-4.84,2.329-6.793,6.7-.281,1.4-.654,2.9-.931,4.377,2.139-5.68,4.84-9.122,7.723-9.122,7.446,0,13.4,22.525,13.4,50.168s-6.04,50.18-13.391,50.18-13.4-22.525-13.4-50.172v-.745c-.091,1.957-.277,3.909-.463,5.68.65,26.434,6.7,47.284,13.867,47.284Zm-10.983-64.878,5.026-11.819a5.734,5.734,0,0,0,.1-3.351,13.3,13.3,0,0,0-1.4-3.351c-.463-.827-1.117-.467-1.394.931a107.229,107.229,0,0,0-2.7,16.659c.012.848.2,1.311.385.939Zm-.827,18.9a113.261,113.261,0,0,0,1.862,18.057c.091.558.277.277.463-.281l.654-21.871c.091-1.4-.186-2.606-.654-2.329a4.77,4.77,0,0,0-1.58,1.957c-.463.567-.741,2.519-.741,4.476Zm17.4-18.9a8.538,8.538,0,0,0,.116-4.091c-.186-.745-.467-1.208-.654-1.208s-.277.186-.559.65a7.96,7.96,0,0,0-.277,2.329,11.261,11.261,0,0,0,.186,1.862c.091.463.091.649.277.827.1.186.186.281.281.281.356.1.542-.19.633-.641Zm-.091,17.594c0,1.394.186,2.979.649,3.442.1,0,.1.1.186.1s.281-.186.467-.654a6.8,6.8,0,0,0,.277-1.58c.1-1.584-.091-3.074-.649-3.446-.1-.091-.1-.091-.186-.091-.277-.008-.65.844-.741,2.242Zm.372-41.886,2.048,20.85c.091,1.3.558,1.862.827,1.117a30.313,30.313,0,0,0,1.212-4.282,13.329,13.329,0,0,0,0-5.121,58.059,58.059,0,0,0-3.723-13.308c-.174-.567-.455.1-.36.753Zm2.317,50.548a5.728,5.728,0,0,0,.281,3.26,2.619,2.619,0,0,0,1.58.931c.559,0,.931-1.3,1.212-2.979a143.965,143.965,0,0,0,.649-14.6c0-1.489,0-2.979-.091-4.468,0-.745-.186-.827-.467-.277Zm.1,16.547-5.866,1.957c-.277.091-.649,1.58-.463,2.9a48.208,48.208,0,0,0,.827,5.378c.281,1.489.827,2.143,1.3,1.489,1.584-2.234,3.074-5.792,4.377-10.425.112-.529-.074-1.365-.165-1.274Zm-4.737-9.664c-.091-1.117-.463-1.58-.745-1.58-.091,0-.186.091-.277.277a6.673,6.673,0,0,0-.467,2.7,6.028,6.028,0,0,0,.1,1.3c.091.558.186.931.277,1.3.1.277.281.463.467.463.091,0,.186-.091.277-.277A8.488,8.488,0,0,0,351.776,271.926Zm1.3-20.477c0-9.866-2.139-17.962-4.84-17.962s-4.84,8.1-4.84,17.962,2.143,17.966,4.84,17.966,4.84-8,4.84-17.962Zm-9.122-39.838,5.68,7.074c.277.467.745-.558.745-1.953,0-2.329,0-4.377-.1-6.143-.091-1.957-.649-3.26-1.117-3.351-.186,0-.559-.1-.745-.1-1.489,0-2.979,1.117-4.282,2.979a1.477,1.477,0,0,0-.186,1.493Zm-.186,22.525c-.091-.463-.277-.65-.558-.65-.186,0-.463.463-.649,1.117a11.208,11.208,0,0,0-.186,1.862,7.7,7.7,0,0,0,.277,2.234c.1.463.281.65.467.65.091,0,.186-.091.277-.277a4.339,4.339,0,0,0,.281-.827,8.725,8.725,0,0,0,.091-4.1Zm3.723-6.793a12.084,12.084,0,0,0,.186,2.048c.1.558.281.827.559.827.186,0,.467-.277.558-.827a12.6,12.6,0,0,0,.186-2.048c0-1.584-.277-2.9-.745-2.9-.186,0-.463.281-.559.827a11.119,11.119,0,0,0-.186,2.073ZM344.7,271.835v1.394a5.415,5.415,0,0,0,.467,2.7c.091.186.186.186.277.186s.281-.1.467-.467a4.549,4.549,0,0,0,.277-1.208,7.44,7.44,0,0,0-.463-4c-.1-.186-.186-.277-.281-.277-.277.112-.463.749-.745,1.68Zm2.515,22.43-4.191-15.914c-.186-.931-.745-.745-.827.463-.281,2.068-.467,4-.654,5.68a11.726,11.726,0,0,0,.558,4.84c1.489,3.351,3.074,5.378,4.935,6.143C347.217,295.668,347.316,294.828,347.217,294.265ZM341.525,259.1c.1.467.281.745.467.745.091,0,.091,0,.091-.091.467-.467.745-1.957.654-3.537-.1-1.4-.467-2.234-.745-2.234-.1,0-.1,0-.1.091-.463.281-.65,1.489-.65,2.792v.654a2.221,2.221,0,0,0,.277,1.58Zm-10.8-58.743c4-4.749,8.377-13.776,10.052-17.5a3.06,3.06,0,0,0-.091-2.7,2.706,2.706,0,0,0-2.234-1.3c-5.68-.186-25.413-.463-38.907,7.728-.654.277-1.3.558-2.048.827-.1,0-.1,0-.1.1-11.633,4.373-36.115,6.329-43.561,6.888a2.66,2.66,0,0,0-2.325,1.675,2.391,2.391,0,0,0,.277,2.234,3.087,3.087,0,0,1,.1-.931,1.6,1.6,0,0,1,1.58-1.212c7.26-.558,31.928-2.511,43.747-6.888l.281-.091a20.423,20.423,0,0,0,1.953-.827c13.312-8.191,32.859-7.91,38.535-7.724a2.01,2.01,0,0,1,1.584.931,2.068,2.068,0,0,1,.091,1.953c-1.655,3.632-6.143,12.659-9.866,17.313a4.14,4.14,0,0,1-.65.558,2.916,2.916,0,0,0,1.593-1.026Zm-64.783-3.632-2.9,1.489,2.048,2.329,2.9-1.489Zm-12.286,1.026h-.186a.2.2,0,0,0-.186.186Zm56.141,5.672,2.9-1.489-2.048-2.325-2.9,1.489Zm-.827,1.3a1.627,1.627,0,0,1,.654-.091l-.1-.186Zm17.222-5.3-2.068-2.234-2.9,1.489L323.277,201Zm-2.329,2.139.186.186a16.415,16.415,0,0,0,3.074-1.117h.091l-.558-.649Zm-64.328,2.519a29.7,29.7,0,0,1,2.606,2.139l1.117-.558-2.048-2.325Zm1.117-1.4-2.068-2.234-2.048.931c.931.827,1.655,1.489,2.325,2.143Zm3.165,3.723-.931.558c.745.467,1.117.558,1.117.654,0,0,.186,0,.931.091Zm2.234,1.212h1.58l1.862-.827-2.048-2.325-2.9,1.489ZM264,205.29l2.9-1.489-2.048-2.325-2.9,1.489Zm3.628-1.862,2.9-1.489-2.048-2.325-2.9,1.489Zm.558.654,2.048,2.325,2.9-1.489-2.068-2.325Zm1.4,3.537h.649l-.186-.186Zm48.678-12.659,2.9-1.489-2.048-2.329-2.9,1.489Zm-2.792-1.862-2.9,1.489,2.056,2.321,2.9-1.489Zm3.165,2.511,2.048,2.234,2.9-1.489-2.048-2.234Zm-.745.372-2.9,1.489,2.048,2.329,2.9-1.489Zm-3.628,1.771-2.9,1.489,2.048,2.325,2.9-1.489Zm-.559-.654-2.048-2.325-2.9,1.489,2.048,2.325Zm-5.68-.372-2.9,1.489,2.056,2.325,2.9-1.489Zm-10.7,4.551,2.9-1.489-2.048-2.329-2.9,1.489Zm-2.792-2.048-2.9,1.489,2.048,2.325,2.9-1.489Zm6.42.277,2.9-1.489-2.068-2.325-2.9,1.489Zm3.632-1.953,2.9-1.489-2.048-2.329-2.9,1.489Zm-.186.931-2.9,1.489,2.068,2.325,2.9-1.489Zm-3.632,1.862-2.9,1.489,2.048,2.234,2.9-1.489Zm-1.208,4.84-1.489.745c.745-.1,1.394-.1,2.068-.186Zm-.467-.654-2.048-2.325-2.9,1.489,2.048,2.325Zm-5.676-.558-2.9,1.489.827.931,3.909-.277Zm-.559-.558-2.048-2.325-2.9,1.489,2.056,2.329Zm-3.074,2.515-1.675.827c.745-.091,1.489-.091,2.234-.186Zm-.559-.654-2.048-2.234-2.9,1.489,2.048,2.329Zm-5.676-.463-2.9,1.489.745.827c1.3-.091,2.606-.091,4-.186Zm-.558-.558-2.048-2.329-2.9,1.489,2.056,2.321Zm-3.074,2.325-1.394.745a14.031,14.031,0,0,0,1.953-.091Zm-.558-.558-2.068-2.325-2.9,1.489,1.953,2.234h.228Zm-5.792-.372-2.9,1.489.558.558c1.3,0,2.606-.091,4.1-.091Zm.281-1.022,2.9-1.489-2.048-2.234-2.9,1.394Zm3.628-1.957,2.9-1.489-2.048-2.325-2.9,1.489Zm3.723-1.766,2.9-1.489-2.048-2.329-2.9,1.489Zm.467.558,2.048,2.325,2.9-1.489-2.048-2.325Zm5.771.463,2.9-1.489-2.048-2.325-2.9,1.58Zm3.628-1.766,2.9-1.489-2.048-2.234-2.9,1.489ZM294.7,198.3l2.9-1.489-2.048-2.234-2.9,1.489Zm3.628-1.862,2.9-1.489-2.048-2.329-2.9,1.489Zm3.632-1.862,2.9-1.489-2.048-2.329-2.9,1.489Zm3.723-1.862,2.9-1.489-2.048-2.329-2.9,1.489Zm.463.558,2.068,2.325,2.9-1.489-2.048-2.325Zm5.792.649,2.9-1.489-2.048-2.234-2.9,1.4Zm3.632-1.953,2.9-1.489-2.068-2.329-2.9,1.489Zm3.628-1.862,2.9-1.489-2.048-2.329-2.9,1.489Zm.559.558,2.048,2.325,2.9-1.489-2.048-2.325Zm5.771.558,2.9-1.489-2.048-2.329-2.9,1.584Zm3.632-1.771,2.9-1.489-2.048-2.325-2.9,1.489Zm-.281.931-2.9,1.489,2.068,2.329,2.9-1.489Zm-3.537,1.771-2.9,1.489,2.048,2.325,2.9-1.489Zm-2.42,9.68-.931.558c.467-.1.827-.186,1.212-.281Zm-.372-.654-2.048-2.234-2.9,1.489,2.068,2.329Zm-5.676-.558-2.9,1.489,1.4,1.489c1.208-.091,2.325-.463,3.442-.65Zm-3.723,1.957-2.9,1.489.281.277c1.3-.186,2.606-.463,3.723-.558Zm-6.143-1.117-2.9,1.489,1.862,2.139a2.358,2.358,0,0,0,.745-.091l2.329-1.212Zm-3.723,1.862-2.9,1.489.745.827c.745-.091,1.584-.091,2.329-.186.559-.091.931-.091,1.489-.186ZM256,200.81l2.139-1.117-1.862-2.139a1.026,1.026,0,0,1-.558.091l-2.068.931c.951.848,1.7,1.593,2.35,2.242Zm2.788-1.278,2.9-1.489-.559-.745c-1.394.1-2.792.186-4,.281Zm.559.558,2.048,2.329,2.9-1.489-2.048-2.329Zm3.165-2.528,1.208-.654c-.558.1-1.117.1-1.58.186Zm6.143,1.117,2.9-1.489-.745-.931c-1.3.091-2.606.277-3.909.463Zm.649.559,2.048,2.325,2.9-1.489-2.048-2.325Zm3.074-2.42,2.139-1.117c-.827.091-1.862.186-2.792.277Zm.563.645,2.068,2.329,2.9-1.489-2.048-2.329Zm5.676.559,2.9-1.489-1.3-1.489c-1.117.1-2.143.281-3.26.467l-.463.186Zm3.723-1.953,2.9-1.489-.467-.467c-1.208.186-2.325.467-3.628.654Zm.467.649,2.044,2.333,2.9-1.489-2.068-2.329Zm3.07-2.42,1.117-.558a6.472,6.472,0,0,0-1.3.186Zm.559.558,2.048,2.329,2.9-1.489-2.048-2.329Zm5.68.467,2.9-1.489-1.489-1.675a18.919,18.919,0,0,1-3.442.931Zm3.723-1.862,2.9-1.489-.931-1.212a23.165,23.165,0,0,1-3.351,1.117Zm3.628-1.655,2.9-1.489-.827-1.117a4.312,4.312,0,0,0-1.3.649,13.5,13.5,0,0,0-1.675.745Zm3.723-1.957,2.9-1.489-.931-1.117c-.931.467-1.957.931-2.9,1.489Zm3.632-1.953,2.9-1.489-.65-.654a15.11,15.11,0,0,0-3.074,1.212Zm.463.649,2.048,2.3,2.9-1.489-2.068-2.329Zm3.26-2.42,2.792-1.489c-1.212.281-2.234.654-3.351.931Zm.463.558,2.048,2.234,2.9-1.489-2.068-2.325Zm5.771.559,2.9-1.489-1.957-2.139c-.186.091-.558.091-.827.186l-2.143,1.117Zm3.649-1.969,2.9-1.489-.827-.931a25.06,25.06,0,0,0-3.723.558Zm.558.649,2.048,2.329,2.9-1.489-2.068-2.329Zm3.07-2.42,1.94-.935a22.442,22.442,0,0,1-2.606.186Zm.558.654,2.019,2.325,2.9-1.489-2.048-2.325Zm5.68.372,2.9-1.489-.745-.827c-1.3,0-2.606.1-4.1.1Zm.463.745,2.048,2.234,2.9-1.489-2.048-2.234Zm3.165-2.515,1.117-.558h-1.58Zm.558.745,2.048,2.329.654-.467c.463-.931.827-1.862,1.208-2.511v-.467c-.091-.091-.186-.186-.277-.186H336.9Zm1.862,3.165-2.9,1.489,1.489,1.675a23.267,23.267,0,0,1,1.489-3.07Zm-3.814,1.862-2.9,1.489,2.048,2.329,2.515-1.3a.733.733,0,0,0,.186-.467Zm-.281,4.377.559.649a8.886,8.886,0,0,0,.745-1.3Zm-.745.463-2.9,1.489,2.048,2.329c.558-.931,1.208-1.957,1.675-2.9Zm-3.723,1.862-2.9,1.489,2.048,2.329,2.9-1.489Zm-.372,4.377.654.649a.918.918,0,0,0,.558-.463c.277-.467.65-.827.931-1.3ZM313.63,245.116l6.8-24.842a4.654,4.654,0,0,0-4.484-5.85c-4.1.1-9.031.1-10.983,0-.281,0-1.957-.091-2.143.558-.091.827-.463,5.4-.463,5.4-.281,5.026-.467,13.962.559,29.785a1,1,0,0,0,1.394.931l6.8-2.9a4.906,4.906,0,0,0,2.511-3.078ZM97.484,302c6.7,0,12-10.52,12-23.456V276.68h-1.026v1.3c0,12.659-4.931,22.9-11.074,22.9S86.3,290.642,86.3,277.983a23.036,23.036,0,0,1,.1-2.515,3.223,3.223,0,0,1-.931-.091c-.1.931-.1,2.048-.1,2.979C85.384,291.477,90.782,302,97.484,302ZM62.95,263.276c2.9.827,9.589,1.655,18.152,2.511.745.1,1.584.1,2.515.186,5.117.467,10.983.827,17.031,1.3,3.723.186,7.632.467,11.451.745,24.407,1.4,50.912,2.515,62.921,2.7,16.547.277,97.629-1.584,123.141-2.792,4.191-.186,6.8-.467,7.541-.558,1.862-.467,3.537-2.792,4.654-6.8h-.1L297.6,261.4l-38.44,2.511-16.924-8.642-132.267-2.143-16.754,9.68-.091.1c-9.308.091-24.949-2.143-34.63-3.632A6.1,6.1,0,0,0,62.95,263.276ZM50.386,216.944l6.793,24.85a4.425,4.425,0,0,0,2.606,2.979l6.8,2.9a1,1,0,0,0,1.394-.931c.558-9.589.745-16.663.745-21.78,0-3.351-.091-6.052-.186-7.914a45.583,45.583,0,0,0-.463-5.4c-.186-.745-1.957-.649-2.143-.558-1.953.1-6.888,0-10.983,0a4.708,4.708,0,0,0-4.559,5.821Z" transform="translate(-43.5 -64.44)" fill="#fff"/><path d="M560.951,349.3l.1-.1-2.606-2.792,2.234-2.792h3.909l2.42,2.606-2.329,3.074Z" transform="translate(-387.267 -201.471)" fill="#fff"/><path d="M538.681,392.686l-2.511-2.792,2.42-2.979,3.628-.1v.281l2.606,2.792-2.325,2.792Z" transform="translate(-355.876 -226.8)" fill="#fff"/><path d="M629.04,406.321l-2.42-2.7,2.329-3.07h3.723l-.1.186,2.606,2.792-2.234,2.792Z" transform="translate(-483.652 -234.85)" fill="#fff"/><path d="M538.681,375.4l-2.511-2.792,2.42-2.888h3.628l2.606,2.888-2.325,2.7Z" transform="translate(-355.876 -216.774)" fill="#fff"/><path d="M560.951,383.95l.1-.1-2.606-2.792,2.234-2.792h3.909l2.42,2.7-2.329,2.979Z" transform="translate(-387.267 -221.787)" fill="#fff"/><path d="M786.631,392.05l.1-.1-2.606-2.792,2.325-2.792h3.818l2.511,2.7-2.42,2.978Z" transform="translate(-706.399 -226.536)" fill="#fff"/><path d="M560.951,401.371l.1-.186-2.606-2.792,2.234-2.792h3.909l2.42,2.7-2.329,3.074Z" transform="translate(-387.267 -231.948)" fill="#fff"/><path d="M538.681,357.941l-2.511-2.792,2.42-2.883,3.628-.1v.186l2.606,2.7L542.5,357.85Z" transform="translate(-355.876 -206.484)" fill="#fff"/><path d="M560.951,366.626l.1-.091-2.606-2.792,2.234-2.792h3.909l2.42,2.7-2.329,2.979Z" transform="translate(-387.267 -211.632)" fill="#fff"/><path d="M741.635,341.65l.091-.1-2.606-2.792,2.234-2.792h3.909l2.42,2.7-2.325,2.979Z" transform="translate(-642.692 -196.986)" fill="#fff"/><path d="M741.635,359.071l.091-.186-2.606-2.792,2.234-2.792h3.909l2.42,2.7-2.325,3.074Z" transform="translate(-642.692 -207.146)" fill="#fff"/><path d="M719.355,333.1l-2.515-2.792,2.42-2.888h3.632l2.606,2.888L723.17,333Z" transform="translate(-611.29 -191.972)" fill="#fff"/><path d="M741.635,393.85l.091-.1-2.606-2.792,2.234-2.792h3.909l2.42,2.7-2.325,2.978Z" transform="translate(-642.692 -227.591)" fill="#fff"/><path d="M741.635,376.526l.091-.091-2.606-2.792,2.234-2.792h3.909l2.42,2.792-2.325,2.883Z" transform="translate(-642.692 -217.436)" fill="#fff"/><path d="M741.635,324.326l.091-.091-2.606-2.792,2.234-2.792h3.909l2.42,2.792-2.325,2.883Z" transform="translate(-642.692 -186.831)" fill="#fff"/><path d="M764.581,348.491,762.07,345.7l2.42-2.883,3.628-.1.1.1h-.1l2.606,2.792L768.49,348.4Z" transform="translate(-675.227 -200.943)" fill="#fff"/><path d="M764.581,331.171l-2.511-2.792,2.42-2.979h3.723l-.1.091,2.606,2.792-2.234,2.792Z" transform="translate(-675.227 -190.788)" fill="#fff"/><path d="M764.581,365.912l-2.511-2.792,2.42-2.883,3.628-.186.1.186h-.1l2.606,2.792-2.234,2.792Z" transform="translate(-675.227 -211.104)" fill="#fff"/><path d="M764.581,383.371l-2.511-2.792,2.42-2.978h3.723l-.1.091,2.606,2.792-2.234,2.792Z" transform="translate(-675.227 -221.394)" fill="#fff"/><path d="M764.581,400.691,762.07,397.9l2.42-2.883,3.628-.1.1.1h-.1l2.606,2.792L768.49,400.6Z" transform="translate(-675.227 -231.549)" fill="#fff"/><path d="M719.355,402.491,716.84,399.7l2.42-2.883,3.632-.1.091.1-.091.091L725.5,399.7l-2.329,2.792Z" transform="translate(-611.29 -232.604)" fill="#fff"/><path d="M651.09,397.541l.1-.091-2.515-2.792,2.234-2.792,3.818-.1,2.511,2.792-2.325,2.979Z" transform="translate(-514.824 -229.702)" fill="#fff"/><path d="M674.351,404.426l-2.511-2.606,2.325-3.07h3.818l-.1.091,2.515,2.792-2.234,2.792Z" transform="translate(-547.579 -233.794)" fill="#fff"/><path d="M719.355,350.291,716.84,347.5l2.42-2.883,3.632-.1.091.1-.091.091L725.5,347.5l-2.329,2.792Z" transform="translate(-611.29 -201.999)" fill="#fff"/><path d="M696.31,395.741v-.091h.186l-2.606-2.888,2.234-2.7,3.909-.1,2.42,2.792-2.329,2.888Z" transform="translate(-578.751 -228.647)" fill="#fff"/><path d="M629.04,336.7l-2.42-2.7,2.329-2.979h3.723l-.1.1,2.606,2.792-2.234,2.792Z" transform="translate(-483.652 -194.083)" fill="#fff"/><path d="M629.04,371.576l-2.42-2.7,2.329-2.979h3.723l-.1.091,2.606,2.792-2.234,2.792Z" transform="translate(-483.652 -214.534)" fill="#fff"/><path d="M719.355,385.3l-2.515-2.7,2.42-2.979h3.632l2.606,2.888-2.329,2.7Z" transform="translate(-611.29 -222.578)" fill="#fff"/><path d="M719.355,367.712l-2.515-2.792,2.42-2.883,3.632-.186.091.186-.091.091,2.606,2.792-2.329,2.792Z" transform="translate(-611.29 -212.159)" fill="#fff"/><path d="M629.04,388.9l-2.42-2.7,2.329-2.979h3.723l-.1.1,2.606,2.792-2.234,2.792Z" transform="translate(-483.652 -224.689)" fill="#fff"/><path d="M78.651,398.388c1.655-.1,3.26,5.4,3.446,12,.186,6.7-.931,12.1-2.7,12.286-1.655,0-3.256-5.4-3.537-12C75.673,403.878,76.976,398.388,78.651,398.388Z" transform="translate(315.257 -260.239)" fill="#fff"/><path d="M67.572,332c5.494-.186,10.611,17.408,11.356,39.188s-3.256,39.743-8.654,39.929c-5.585.1-10.611-17.4-11.356-39.279C58.078,350.059,61.975,332.188,67.572,332Zm4.282,25.88a5.791,5.791,0,0,0-.091,1.862c0,.558.091.931.091,1.4a3.6,3.6,0,0,1,.186.65c.1.1.1.186.186.186s.186-.091.281-.559a9.515,9.515,0,0,0,0-3.256c-.1-.654-.281-.827-.558-.827C72.04,357.32,71.949,357.415,71.854,357.878Zm3.723-6.048a56.549,56.549,0,0,0-3.07-10.425c-.1-.281-.281.186-.186.745l1.862,16.473c.091,1.117.463,1.489.745.827.277-1.117.558-2.234.745-3.351A22.116,22.116,0,0,0,75.577,351.83ZM73.145,375.1c0,1.3.186,2.511.558,2.792l.1.091c.091,0,.186-.091.277-.463a4.849,4.849,0,0,0,.1-1.3c0-1.3-.186-2.515-.558-2.792l-.1-.1C73.343,373.424,73.145,374.074,73.145,375.1Zm3.818,10.239a4.452,4.452,0,0,0,.649-2.515c.186-3.628.186-7.537.1-11.447,0-1.212-.1-2.329-.1-3.632,0-.558-.186-.745-.186-.186l-2.048,14.52a5.45,5.45,0,0,0,.281,2.606,2.445,2.445,0,0,0,1.316.654ZM71.1,399.114c.186,1.675.558,3.07.745,4.186.281,1.212.745,1.675,1.117,1.117a24.691,24.691,0,0,0,2.979-8.274c.1-.467,0-1.117-.091-.931l-4.356,1.572c-.381.186-.472,1.3-.381,2.329Zm1.4-27.738c-.186-7.819-2.048-14.148-4.1-14.065s-3.351,6.424-3.074,14.243c.186,7.819,2.068,14.065,4.1,14.065,1.874,0,3.272-6.425,3.086-14.243Zm-7.26,30.249q1.812,3.909,3.909,4.749c.091.091.186-.654.091-.931L65.7,392.971c-.186-.745-.558-.654-.649.277a38.416,38.416,0,0,0-.281,4.468,7.694,7.694,0,0,0,.48,3.909Zm-5.026-24.85a88.25,88.25,0,0,0,1.862,14.148c.091.463.277.277.277-.186l-.091-17.313c0-1.117-.186-2.048-.558-1.862a3.111,3.111,0,0,0-1.117,1.489,8.241,8.241,0,0,0-.36,3.723Zm3.442-27.088a15.162,15.162,0,0,0-1.117-2.606c-.463-.65-.745-.277-1.117.745a85.218,85.218,0,0,0-1.489,13.217c0,.559.1.931.186.745l3.446-9.494a4.727,4.727,0,0,0,.1-2.606Zm.372,23.828a3.78,3.78,0,0,0-.463,2.234,2.151,2.151,0,0,1,.091.654,4.936,4.936,0,0,0,.186,1.3c.1.372.186.463.467.463a.091.091,0,0,0,.091-.091,4.564,4.564,0,0,0,.281-2.792c-.1-1.117-.281-1.862-.654-1.862Zm.186-15.17a7.683,7.683,0,0,0-.091,1.489A11.256,11.256,0,0,0,64.3,361.7c.091.277.186.558.463.558a.2.2,0,0,0,.186-.186c.1-.1.1-.467.186-.654a7.31,7.31,0,0,0-.186-3.256c-.091-.281-.186-.558-.463-.558-.083-.1-.174.091-.269.745Zm.372-18.152,4.389,5.4c.186.281.558-.463.558-1.489-.1-1.862-.1-3.537-.281-4.84-.091-1.489-.463-2.511-.827-2.7-.186,0-.467,0-.558-.1-1.212,0-2.234.931-3.26,2.515a1.373,1.373,0,0,0-.008,1.208Z" transform="translate(325.405 -221.314)" fill="#fff"/><path d="M691.1,385.817c0,.745-.1,2.048-.186,3.351a35.565,35.565,0,0,1-.827,4.84v.186a7.093,7.093,0,0,1-.186.931c-.186.931-.558,1.957-.827,2.9a51.351,51.351,0,0,1-1.969,5.3,37.66,37.66,0,0,1-2.325,4.84c-.281.558-.558.931-.745,1.3-.827,1.4-1.585,2.515-2.234,3.537l-.281.468a6.913,6.913,0,0,1-1.862,1.862c-.463.463-.745.65-.931.827a13.079,13.079,0,0,1-3.442,1.675l-.654.281c-1.394.559-2.978.931-4.468,1.394a17.076,17.076,0,0,1-2.979.654,25.228,25.228,0,0,1-2.792.277c-1.117.1-2.139.1-3.442.186q-3.351.141-7.542.281c-3.351.091-6.979.091-10.983.091H634.61c-4,0-7.819,0-11.356-.091l-6.888-.1-22.525-1.117h-.277c-2.515-.186-4.935-.277-7.26-.558-2.7-.186-5.308-.463-8.1-.745-2.325-.186-4.654-.463-6.793-.649a17.586,17.586,0,0,1-3.446-.654,14.121,14.121,0,0,1-4-1.862l-.1.1-1.394-1.117a15.082,15.082,0,0,1-4.282-5.308c-.281-.649-.654-1.208-.745-1.58a27.9,27.9,0,0,1-1.117-3.351,3.665,3.665,0,0,1-.281-1.212c-.558-1.953-.931-3.909-1.394-5.771L554.1,394a40.9,40.9,0,0,1-.559-4.1v-.277a9.454,9.454,0,0,1-.1-1.489c-.091-1.584-.186-2.978-.186-4.377v-.745a12.2,12.2,0,0,1,.1-1.953,9.441,9.441,0,0,1,2.511-5.121,10.3,10.3,0,0,1,5.866-2.9,13.858,13.858,0,0,1,1.684-.058l120.349,3.632a8.083,8.083,0,0,1,4.468,1.953,6.653,6.653,0,0,0,.827.745c.463.467.558.654.558.745l.277.558a5.565,5.565,0,0,1,.745,1.489,6.234,6.234,0,0,1,.467,3.074v.629Zm-1.771-.649v-.827l-2.139,2.7h-3.632l.1-.1-2.606-2.792,2.234-2.792h3.909l2.139,2.329c-.091-.281-.091-.654-.186-.931a2.482,2.482,0,0,0-.558-1.117l-.277-.558-.468-.467-.649-.65c-.1-.1-.186-.1-.281-.186h-3.256l.091-.1-1.191-1.315-3.723-.091,1.394,1.489-2.234,2.792h-3.909l-2.511-2.792,1.394-1.675-3.537-.1-.745.931h-3.628l.091-.091-.931-1.117-3.723-.1,1.212,1.3-2.234,2.792h-3.909l-2.515-2.792,1.212-1.489-3.537-.091-.654.745h-3.628l.091-.1-.745-.745-3.723-.091.931.931-2.234,2.792h-3.909l-2.511-2.7,1.117-1.3-3.537-.091-.468.559h-3.723l.1-.1-.558-.558-3.723-.091.463.463a12.823,12.823,0,0,1,4.84,1.862h2.606l2.515,2.7-.931,1.208a13.37,13.37,0,0,1,2.234,7.26,12.809,12.809,0,0,1-.186,1.862l1.862-2.234h3.723l-.1.1,2.606,2.792-2.234,2.792h-3.909l-2.139-2.329a14.014,14.014,0,0,1-.931,2.792l.091.1-.558.65a14.553,14.553,0,0,1-3.256,3.909h1.3l2.511,2.7-2.325,2.979h-3.723l.091-.1-2.511-2.792.447-.538a17,17,0,0,1-3.909.654h-.091l2.511,2.792-2.234,2.792h-3.909l-2.511-2.792,2.325-2.979h2.515A12.825,12.825,0,0,1,613.1,399.8l2.325,2.606-2.325,2.978H609.38l.091-.091-2.606-2.792,2.234-2.792h3.723c-.463-.467-.827-.931-1.3-1.489h-2.234l.1-.1-2.606-2.792,2.234-2.792a17.675,17.675,0,0,1-.186-2.234l-1.957-2.139,2.234-2.792h.65a5.5,5.5,0,0,1,.745-1.489H609.28l.1-.1L606.769,381,609,378.206h3.909l1.3,1.4c.745-.559,1.489-.931,2.234-1.4l-.558-.649.827-1.117-3.537-.1-.186.186h-3.723l.1-.091-.281-.281-3.723-.091.467.558-2.234,2.792h-3.909l-2.515-2.792.654-.827-3.537-.091h-3.723l.091-.1-3.723-.1.186.281-2.234,2.792h-3.909l-2.511-2.792.463-.558-10.516-.281-2.234,2.8h-3.909l-2.143-2.329a7.357,7.357,0,0,0-2.234,1.394l1.489,1.584-2.325,2.979h-1.584c-.463.281-.463.467-.463.467a5.6,5.6,0,0,0-.1,1.394H556.5l2.511,2.7-2.325,2.978H555.2c0,.277.091.65.091,1.117v.372h1.3l2.515,2.792-2.308,2.954h-.558l.186,1.117a1.825,1.825,0,0,1,.1.463h.186l2.511,2.792-1.58,1.957a1.606,1.606,0,0,1,.091.649c.1.281.1.559.281,1.117a19.781,19.781,0,0,0,1.117,3.351,5.566,5.566,0,0,0,.65,1.4c.1.186.467.827.827,1.489L562,408.818l3.632-.1-.1.1,2.606,2.792-2.234,2.792h-1.3a16.494,16.494,0,0,0,3.723,1.675,5.585,5.585,0,0,0,1.212.186l-.467-.467L571.3,413h3.909l2.7,2.515-1.117,1.394c.65.1,1.3.1,1.953.186.467,0,.931.1,1.4.1l.641-.765,3.632-.1-.1.1,1.117,1.208c.281,0,.654.1.931.1.931.091,1.957.091,2.979.186l-1.489-1.584,2.234-2.792h3.93l2.515,2.792-1.655,2.143,3.442.186,1.117-1.4h3.632l-.1.1,1.386,1.6,3.909.186-1.655-1.862,2.234-2.792,3.909-.091,2.511,2.792-1.655,2.234,3.26.091h.277l1.212-1.489H622l-.091.1,1.394,1.489h3.632l-1.489-1.675,2.234-2.792h3.909l2.511,2.792-1.489,1.862h3.632l.745-.931h3.723l-.1.091.745.827h3.632l-.827-.931,2.234-2.792h3.909l2.461,2.8-.745.931H653.6a14.756,14.756,0,0,0,2.048-.1h.186c1.862-.091,3.632-.091,5.308-.186.649,0,1.3-.091,1.953-.091l2.068-2.515h3.909l1.3,1.4c.827-.186,1.862-.558,2.792-.827l-1.117-1.208,2.329-2.978h3.628l-.091.091.931,1.117c.745-.649,1.3-1.3,1.58-1.58l.281-.467c.65-.931,1.394-2.048,2.234-3.442a3.18,3.18,0,0,1,.463-.745l-1.953-2.143,2.234-2.792h2.234a.091.091,0,0,1,.091-.091,14.841,14.841,0,0,1,.558-1.4h-2.606l.1-.091-2.606-2.792,2.234-2.792h3.351l.649.649a9.379,9.379,0,0,1,.468-1.489,2.1,2.1,0,0,0,.091-.827v-.186a6.2,6.2,0,0,0,.186-1.3l-1.394,1.675h-3.653l.1-.1-2.606-2.792,2.234-2.792,3.909-.091,1.862,2.048c.091-.468.091-.931.186-1.4.091-1.3.186-2.511.186-3.256v-1.117Zm-67.666-6.888a11.728,11.728,0,1,0,11.728,11.728,11.728,11.728,0,0,0-11.728-11.728Z" transform="translate(-491.262 -245.348)" fill="#fff"/></g></svg>