<svg id="Layer_1" data-name="Layer 1" xmlns="http://www.w3.org/2000/svg" viewBox="0 0 304.8 327.87"><defs><style>.cls-1{fill:#d9d9d9;}.cls-2{fill:#e6e6e6;}.cls-3{fill:#fff;}.cls-4{fill:#012169;}.cls-5{fill:#3f3d56;}</style></defs><g id="undraw_crypto_portfolio_2jy5" data-name="undraw crypto portfolio 2jy5"><path id="Path_996" data-name="Path 996" class="cls-1" d="M39.83,219.89a2.25,2.25,0,0,0-2.25,2.25v77a2.26,2.26,0,0,0,2.25,2.26h262.5a2.27,2.27,0,0,0,2.26-2.26v-77a2.28,2.28,0,0,0-2.26-2.26Z" transform="translate(0.22 0)"/><path id="Path_692" data-name="Path 692" class="cls-1" d="M37.08,115.16a2.26,2.26,0,0,0-2.25,2.26v77a2.26,2.26,0,0,0,2.25,2.26h262.5a2.27,2.27,0,0,0,2.25-2.26v-77a2.26,2.26,0,0,0-2.25-2.26Z" transform="translate(0.22 0)"/><path id="Path_606" data-name="Path 606" class="cls-2" d="M2,246.37a2.26,2.26,0,0,0-2.26,2.26v77A2.26,2.26,0,0,0,2,327.86H264.53a2.26,2.26,0,0,0,2.26-2.25v-77a2.26,2.26,0,0,0-2.26-2.26Z" transform="translate(0.22 0)"/><path id="Path_607" data-name="Path 607" class="cls-3" d="M5.66,322.21H261.35V252H5.66Z" transform="translate(0.22 0)"/><path id="Path_608" data-name="Path 608" class="cls-4" d="M231.48,307.65a3.74,3.74,0,1,0-.13,7.47h15.08a3.74,3.74,0,0,0,0-7.47Z" transform="translate(0.22 0)"/><rect id="Rectangle_124" data-name="Rectangle 124" class="cls-2" x="76.72" y="300.4" width="172.64" height="0.98"/><circle id="Ellipse_124" data-name="Ellipse 124" class="cls-4" cx="40.45" cy="287.12" r="21.78"/><path id="Path_609" data-name="Path 609" class="cls-5" d="M76.77,294.9l-.55-.81,17.94-12,12.3,5.9,17.7-11.3,35.2,15,28-13.77,27.21,11,34.2-30.3.66.74-34.66,30.7-27.38-11.1-28,13.77-35.13-15-17.72,11.32-12.29-5.9Z" transform="translate(0.22 0)"/><path id="Path_610" data-name="Path 610" class="cls-2" d="M79.87,308.16a3.2,3.2,0,0,0-.27,6.4h33.72a3.2,3.2,0,0,0,0-6.4Z" transform="translate(0.22 0)"/><path id="Path_611" data-name="Path 611" class="cls-3" d="M48.67,277.38h3.4l-7.08,7a6.6,6.6,0,0,1-9.28,0l-7.08-7H32l5.38,5.32a4.2,4.2,0,0,0,5.88,0ZM32,296.86h-3.4l7.12-7.05a6.62,6.62,0,0,1,9.29,0l7.12,7.05h-3.4l-5.42-5.37a4.2,4.2,0,0,0-5.88,0Z" transform="translate(0.22 0)"/><path id="Path_612" data-name="Path 612" class="cls-1" d="M37.08,0a2.26,2.26,0,0,0-2.25,2.26v77a2.25,2.25,0,0,0,2.25,2.25h262.5a2.27,2.27,0,0,0,2.26-2.25v-77A2.27,2.27,0,0,0,299.58,0Z" transform="translate(0.22 0)"/><path id="Path_606-2" data-name="Path 606" class="cls-2" d="M2.26,23.22A2.26,2.26,0,0,0,0,25.47v77a2.26,2.26,0,0,0,2.26,2.26H264.75a2.27,2.27,0,0,0,2.26-2.26v-77a2.27,2.27,0,0,0-2.26-2.25Z" transform="translate(0.22 0)"/><path id="Path_613" data-name="Path 613" class="cls-3" d="M5.44,99.05H261.13V28.87H5.44Z" transform="translate(0.22 0)"/><path id="Path_614" data-name="Path 614" class="cls-4" d="M230.67,83.2a3.74,3.74,0,0,0,0,7.48h15a3.74,3.74,0,0,0,.13-7.48H230.67Z" transform="translate(0.22 0)"/><rect id="Rectangle_125" data-name="Rectangle 125" class="cls-2" x="77.75" y="50" width="172.64" height="0.98"/><circle id="Ellipse_125" data-name="Ellipse 125" class="cls-4" cx="39.66" cy="63.96" r="21.78"/><path id="Path_615" data-name="Path 615" class="cls-5" d="M76.19,71.75l-.55-.82L93.58,59l12.3,5.9,17.69-11.3.24.1,35,14.91,28-13.76,27.22,11,34.2-30.29.65.74L214.22,67,186.84,55.9l-28,13.77-35.13-15L106,66,93.66,60.1Z" transform="translate(0.22 0)"/><path id="Path_616" data-name="Path 616" class="cls-2" d="M79.08,83.72a3.2,3.2,0,0,0,0,6.39h33.44a3.2,3.2,0,0,0,0-6.39Z" transform="translate(0.22 0)"/><path id="Path_617" data-name="Path 617" class="cls-3" d="M48.57,60.42c.41-2.73-1.66-4.19-4.5-5.17L45,51.56,42.75,51l-.9,3.6-1.8-.43.9-3.62L38.7,50l-.92,3.69-1.44-.33h0l-3.1-.78-.6,2.4s1.67.38,1.64.41a1.19,1.19,0,0,1,1,1.3l-1,4.21.23.07-.24-.05L32.8,66.79a.8.8,0,0,1-1,.53h0s-1.63-.41-1.63-.41L29,69.49l2.93.72,1.6.42-.93,3.73,2.24.56.93-3.69c.61.16,1.2.32,1.79.46l-.92,3.68,2.24.56.93-3.73c3.84.73,6.72.43,7.93-3,1-2.79,0-4.4-2.06-5.45a3.57,3.57,0,0,0,2.86-3.3Zm-5.13,7.2c-.7,2.79-5.39,1.28-6.92.9l1.24-4.95c1.52.38,6.4,1.14,5.68,4.05Zm.69-7.24c-.63,2.54-4.54,1.25-5.81.93l1.12-4.48C40.71,57.14,44.79,57.73,44.13,60.38Z" transform="translate(0.22 0)"/><path id="Path_606-3" data-name="Path 606" class="cls-2" d="M2.26,136.86A2.26,2.26,0,0,0,0,139.12v77a2.26,2.26,0,0,0,2.26,2.26H264.75A2.27,2.27,0,0,0,267,216.1v-77a2.27,2.27,0,0,0-2.26-2.26Z" transform="translate(0.22 0)"/><path id="Path_619" data-name="Path 619" class="cls-3" d="M5.44,212.7H261.13V142.52H5.44Z" transform="translate(0.22 0)"/><path id="Path_620" data-name="Path 620" class="cls-4" d="M228.86,198.43a3.74,3.74,0,0,0,0,7.48h14.95a3.74,3.74,0,0,0,0-7.48Z" transform="translate(0.22 0)"/><path id="Path_633" data-name="Path 633" class="cls-4" d="M37.58,155.91A21.78,21.78,0,1,1,15.8,177.69a21.78,21.78,0,0,1,21.78-21.78Z" transform="translate(0.22 0)"/><rect id="Rectangle_125-2" data-name="Rectangle 125" class="cls-2" x="76.16" y="155.42" width="172.64" height="0.98"/><path id="Path_621" data-name="Path 621" class="cls-5" d="M75.19,185.43l-.55-.82,17.94-12,12.3,5.9,17.69-11.3.24.1,35,14.91,27.65-13.71,14.8-20.4,47,1.08.65.74-47-.74-15,20.34-28,13.77-35.14-15-17.72,11.32-12.29-5.9Z" transform="translate(0.22 0)"/><path id="Path_622" data-name="Path 622" class="cls-2" d="M77.21,199a3.2,3.2,0,0,0,0,6.39h33.44a3.2,3.2,0,0,0,0-6.39Z" transform="translate(0.22 0)"/><path id="Path_623" data-name="Path 623" class="cls-3" d="M37.64,192.16l8.82-12.42-8.82,5.2h0l-8.81-5.2,8.81,12.42Z" transform="translate(0.22 0)"/><path id="Path_624" data-name="Path 624" class="cls-3" d="M37.64,183.19h0l8.81-5.2-8.81-14.62h0L28.83,178Z" transform="translate(0.22 0)"/></g></svg>