<svg id="undraw_control_panel1_20gm" data-name="undraw control panel1 20gm" xmlns="http://www.w3.org/2000/svg" xmlns:xlink="http://www.w3.org/1999/xlink" viewBox="0 0 321.5 289.16"><defs><style>.cls-1,.cls-10,.cls-13,.cls-14,.cls-15,.cls-16,.cls-17,.cls-18,.cls-19,.cls-20,.cls-21,.cls-22,.cls-23,.cls-28,.cls-31,.cls-33,.cls-34,.cls-4,.cls-5,.cls-6,.cls-7,.cls-8,.cls-9{opacity:0.5;}.cls-1,.cls-10,.cls-13,.cls-14,.cls-15,.cls-16,.cls-17,.cls-18,.cls-19,.cls-20,.cls-21,.cls-22,.cls-23,.cls-25,.cls-26,.cls-28,.cls-31,.cls-33,.cls-34,.cls-4,.cls-5,.cls-6,.cls-7,.cls-8,.cls-9{isolation:isolate;}.cls-1{fill:url(#linear-gradient);}.cls-2{fill:#d9d9d9;}.cls-3{fill:#f5f5f5;}.cls-4{fill:url(#linear-gradient-2);}.cls-5{fill:url(#linear-gradient-3);}.cls-6{fill:url(#linear-gradient-4);}.cls-7{fill:url(#linear-gradient-5);}.cls-8{fill:url(#linear-gradient-6);}.cls-9{fill:url(#linear-gradient-7);}.cls-10,.cls-11{fill:#ffde00;}.cls-12{fill:#ffe850;}.cls-13{fill:url(#linear-gradient-8);}.cls-14{fill:url(#linear-gradient-9);}.cls-15{fill:url(#linear-gradient-10);}.cls-16{fill:url(#linear-gradient-11);}.cls-17{fill:url(#linear-gradient-12);}.cls-18{fill:url(#linear-gradient-13);}.cls-19{fill:url(#linear-gradient-14);}.cls-20{fill:url(#linear-gradient-15);}.cls-21{fill:url(#linear-gradient-16);}.cls-22{fill:#012169;}.cls-23{fill:url(#linear-gradient-17);}.cls-24{fill:#e6e6e6;}.cls-25{opacity:0.03;}.cls-26{opacity:0.05;}.cls-27{fill:url(#linear-gradient-18);}.cls-28{fill:url(#linear-gradient-19);}.cls-29{fill:#fff;}.cls-30{fill:url(#linear-gradient-20);}.cls-31{fill:url(#linear-gradient-21);}.cls-32{fill:url(#linear-gradient-22);}.cls-33{fill:url(#linear-gradient-23);}.cls-34,.cls-37{fill:none;stroke-miterlimit:10;stroke-width:3px;}.cls-34{stroke:#ffe850;stroke-dasharray:12;}.cls-35{fill:url(#linear-gradient-24);}.cls-36{fill:#333;}.cls-37{stroke:#333;}.cls-38{fill:url(#linear-gradient-25);}.cls-39{fill:url(#linear-gradient-26);}.cls-40{fill:url(#linear-gradient-27);}</style><linearGradient id="linear-gradient" x1="-518.83" y1="527.75" x2="-518.83" y2="528.75" gradientTransform="matrix(312.74, 0, 0, -189.88, 162418.62, 100446.99)" gradientUnits="userSpaceOnUse"><stop offset="0" stop-color="gray" stop-opacity="0.25"/><stop offset="0.54" stop-color="gray" stop-opacity="0.12"/><stop offset="1" stop-color="gray" stop-opacity="0.1"/></linearGradient><linearGradient id="linear-gradient-2" x1="-492.33" y1="516.13" x2="-492.33" y2="517.13" gradientTransform="matrix(18.5, 0, 0, -18.5, 9202.73, 9640.99)" xlink:href="#linear-gradient"/><linearGradient id="linear-gradient-3" x1="-492.33" y1="516.13" x2="-492.33" y2="517.13" gradientTransform="matrix(18.5, 0, 0, -18.5, 9153.63, 9665.9)" xlink:href="#linear-gradient"/><linearGradient id="linear-gradient-4" x1="-492.33" y1="516.13" x2="-492.33" y2="517.13" gradientTransform="matrix(18.5, 0, 0, -18.5, 9258.42, 9691.19)" xlink:href="#linear-gradient"/><linearGradient id="linear-gradient-5" x1="-492.33" y1="516.13" x2="-492.33" y2="517.13" gradientTransform="matrix(18.5, 0, 0, -18.5, 9184.04, 9716.1)" xlink:href="#linear-gradient"/><linearGradient id="linear-gradient-6" x1="-492.33" y1="516.13" x2="-492.33" y2="517.13" gradientTransform="matrix(18.5, 0, 0, -18.5, 9136.04, 9741.02)" xlink:href="#linear-gradient"/><linearGradient id="linear-gradient-7" x1="-492.33" y1="516.13" x2="-492.33" y2="517.13" gradientTransform="matrix(18.5, 0, 0, -18.5, 9233.14, 9765.93)" xlink:href="#linear-gradient"/><linearGradient id="linear-gradient-8" x1="-499.67" y1="514.98" x2="-499.67" y2="515.98" gradientTransform="matrix(25.02, 0, 0, -16.98, 12712.36, 8910.84)" xlink:href="#linear-gradient"/><linearGradient id="linear-gradient-9" x1="-499.67" y1="514.98" x2="-499.67" y2="515.98" gradientTransform="matrix(25.02, 0, 0, -16.98, 12745.98, 8910.84)" xlink:href="#linear-gradient"/><linearGradient id="linear-gradient-10" x1="-499.67" y1="514.98" x2="-499.67" y2="515.98" gradientTransform="matrix(25.02, 0, 0, -16.98, 12779.6, 8910.84)" xlink:href="#linear-gradient"/><linearGradient id="linear-gradient-11" x1="-499.67" y1="514.98" x2="-499.67" y2="515.98" gradientTransform="matrix(25.02, 0, 0, -16.98, 12712.36, 8936.64)" xlink:href="#linear-gradient"/><linearGradient id="linear-gradient-12" x1="-499.67" y1="514.98" x2="-499.67" y2="515.98" gradientTransform="matrix(25.02, 0, 0, -16.98, 12745.98, 8936.64)" xlink:href="#linear-gradient"/><linearGradient id="linear-gradient-13" x1="-499.67" y1="514.98" x2="-499.67" y2="515.98" gradientTransform="matrix(25.02, 0, 0, -16.98, 12779.6, 8936.64)" xlink:href="#linear-gradient"/><linearGradient id="linear-gradient-14" x1="-499.67" y1="514.98" x2="-499.67" y2="515.98" gradientTransform="matrix(25.02, 0, 0, -16.98, 12712.36, 8962.44)" xlink:href="#linear-gradient"/><linearGradient id="linear-gradient-15" x1="-499.67" y1="514.98" x2="-499.67" y2="515.98" gradientTransform="matrix(25.02, 0, 0, -16.98, 12745.98, 8962.44)" xlink:href="#linear-gradient"/><linearGradient id="linear-gradient-16" x1="-499.67" y1="514.98" x2="-499.67" y2="515.98" gradientTransform="matrix(25.02, 0, 0, -16.98, 12779.6, 8962.44)" xlink:href="#linear-gradient"/><linearGradient id="linear-gradient-17" x1="-516.98" y1="517.9" x2="-515.98" y2="517.9" gradientTransform="matrix(129.52, 0, 0, -20.51, 66981.76, 10882.23)" xlink:href="#linear-gradient"/><linearGradient id="linear-gradient-18" x1="-494.66" y1="519.78" x2="-494.66" y2="520.78" gradientTransform="matrix(20.16, 0, 0, -25.8, 10226.4, 13450.48)" xlink:href="#linear-gradient"/><linearGradient id="linear-gradient-19" x1="-423.1" y1="458.68" x2="-423.1" y2="459.68" gradientTransform="matrix(5.35, 0, 0, -3.38, 2517.26, 1580.35)" xlink:href="#linear-gradient"/><linearGradient id="linear-gradient-20" x1="-494.66" y1="519.78" x2="-494.66" y2="520.78" gradientTransform="matrix(20.16, 0, 0, -25.8, 10202.28, 13450.48)" xlink:href="#linear-gradient"/><linearGradient id="linear-gradient-21" x1="-423.1" y1="458.65" x2="-423.1" y2="459.65" gradientTransform="matrix(5.35, 0, 0, -3.38, 2491.07, 1579.65)" xlink:href="#linear-gradient"/><linearGradient id="linear-gradient-22" x1="-494.66" y1="519.78" x2="-494.66" y2="520.78" gradientTransform="matrix(20.16, 0, 0, -25.8, 10211.16, 13449.31)" xlink:href="#linear-gradient"/><linearGradient id="linear-gradient-23" x1="-423.1" y1="458.65" x2="-423.1" y2="459.65" gradientTransform="matrix(5.35, 0, 0, -3.38, 2502.02, 1578.47)" xlink:href="#linear-gradient"/><linearGradient id="linear-gradient-24" x1="-502.34" y1="520.7" x2="-502.34" y2="521.7" gradientTransform="matrix(28.68, 0, 0, -28.68, 14634.22, 15033.21)" xlink:href="#linear-gradient"/><linearGradient id="linear-gradient-25" x1="-502.34" y1="520.7" x2="-502.34" y2="521.7" gradientTransform="matrix(28.68, 0, 0, -28.68, 14671.96, 15033.21)" xlink:href="#linear-gradient"/><linearGradient id="linear-gradient-26" x1="-502.34" y1="520.7" x2="-502.34" y2="521.7" gradientTransform="matrix(28.68, 0, 0, -28.68, 14634.22, 15066.92)" xlink:href="#linear-gradient"/><linearGradient id="linear-gradient-27" x1="-502.34" y1="520.7" x2="-502.34" y2="521.7" gradientTransform="matrix(28.68, 0, 0, -28.68, 14671.96, 15066.92)" xlink:href="#linear-gradient"/></defs><rect id="Rectangle_81" data-name="Rectangle 81" class="cls-1" y="49.64" width="312.74" height="189.88"/><rect id="Rectangle_82" data-name="Rectangle 82" class="cls-2" x="2.74" y="52.91" width="318.76" height="183.35"/><rect id="Rectangle_83" data-name="Rectangle 83" class="cls-3" x="16.81" y="82.62" width="159.89" height="5.47"/><circle id="Ellipse_50" data-name="Ellipse 50" class="cls-4" cx="96.56" cy="85.36" r="9.25"/><circle id="Ellipse_51" data-name="Ellipse 51" class="cls-5" cx="47.46" cy="110.27" r="9.25"/><circle id="Ellipse_52" data-name="Ellipse 52" class="cls-6" cx="152.25" cy="135.55" r="9.25"/><circle id="Ellipse_53" data-name="Ellipse 53" class="cls-7" cx="77.87" cy="160.47" r="9.25"/><circle id="Ellipse_54" data-name="Ellipse 54" class="cls-8" cx="29.87" cy="185.38" r="9.25"/><circle id="Ellipse_55" data-name="Ellipse 55" class="cls-9" cx="126.97" cy="210.3" r="9.25"/><path id="Path_990" data-name="Path 990" class="cls-10" d="M96.56,78.32a7,7,0,1,1-7,7,7,7,0,0,1,7-7Z"/><rect id="Rectangle_84" data-name="Rectangle 84" class="cls-3" x="16.81" y="107.64" width="159.89" height="5.47"/><circle id="Ellipse_57" data-name="Ellipse 57" class="cls-10" cx="47.3" cy="110.37" r="7.03"/><rect id="Rectangle_85" data-name="Rectangle 85" class="cls-3" x="16.81" y="132.66" width="159.89" height="5.47"/><circle id="Ellipse_58" data-name="Ellipse 58" class="cls-11" cx="152.07" cy="135.4" r="7.03"/><rect id="Rectangle_86" data-name="Rectangle 86" class="cls-3" x="16.81" y="157.68" width="159.89" height="5.47"/><circle id="Ellipse_59" data-name="Ellipse 59" class="cls-11" cx="77.8" cy="160.41" r="7.03"/><rect id="Rectangle_87" data-name="Rectangle 87" class="cls-3" x="16.81" y="182.7" width="159.89" height="5.47"/><path id="Path_991" data-name="Path 991" class="cls-10" d="M29.71,178.4a7,7,0,1,1-7,7,7,7,0,0,1,7-7Z"/><rect id="Rectangle_88" data-name="Rectangle 88" class="cls-3" x="16.81" y="207.72" width="159.89" height="5.47"/><circle id="Ellipse_61" data-name="Ellipse 61" class="cls-12" cx="127.05" cy="210.45" r="7.03"/><rect id="Rectangle_89" data-name="Rectangle 89" class="cls-13" x="198.98" y="149.97" width="25.02" height="16.98"/><rect id="Rectangle_90" data-name="Rectangle 90" class="cls-14" x="232.6" y="149.97" width="25.02" height="16.98"/><rect id="Rectangle_91" data-name="Rectangle 91" class="cls-15" x="266.23" y="149.97" width="25.02" height="16.98"/><rect id="Rectangle_92" data-name="Rectangle 92" class="cls-16" x="198.98" y="175.77" width="25.02" height="16.98"/><rect id="Rectangle_93" data-name="Rectangle 93" class="cls-17" x="232.6" y="175.77" width="25.02" height="16.98"/><rect id="Rectangle_94" data-name="Rectangle 94" class="cls-18" x="266.23" y="175.77" width="25.02" height="16.98"/><rect id="Rectangle_95" data-name="Rectangle 95" class="cls-19" x="198.98" y="201.57" width="25.02" height="16.98"/><rect id="Rectangle_96" data-name="Rectangle 96" class="cls-20" x="232.6" y="201.57" width="25.02" height="16.98"/><rect id="Rectangle_97" data-name="Rectangle 97" class="cls-21" x="266.23" y="201.57" width="25.02" height="16.98"/><rect id="Rectangle_98" data-name="Rectangle 98" class="cls-12" x="200.55" y="151.03" width="21.89" height="14.85"/><rect id="Rectangle_99" data-name="Rectangle 99" class="cls-12" x="234.17" y="151.03" width="21.89" height="14.85"/><rect id="Rectangle_100" data-name="Rectangle 100" class="cls-22" x="267.79" y="151.03" width="21.89" height="14.85"/><rect id="Rectangle_101" data-name="Rectangle 101" class="cls-12" x="200.55" y="176.83" width="21.89" height="14.85"/><rect id="Rectangle_102" data-name="Rectangle 102" class="cls-12" x="234.17" y="176.83" width="21.89" height="14.85"/><rect id="Rectangle_103" data-name="Rectangle 103" class="cls-22" x="267.79" y="176.83" width="21.89" height="14.85"/><rect id="Rectangle_104" data-name="Rectangle 104" class="cls-12" x="200.55" y="202.63" width="21.89" height="14.85"/><rect id="Rectangle_105" data-name="Rectangle 105" class="cls-22" x="234.17" y="202.63" width="21.89" height="14.85"/><rect id="Rectangle_106" data-name="Rectangle 106" class="cls-22" x="267.79" y="202.63" width="21.89" height="14.85"/><path id="Path_427" data-name="Path 427" class="cls-23" d="M136.83,251.5c-2.2,0-3.83.37-5,2.38H84.7v-5.07c0-1.32-1.68-.83-2.8-.83H81c-1.1,0-2-.49-2,.83v1.13H26c-2.75,0-3.83,2.4-4.2,5.53,0-.08,0-.16,0-.24,0,.22,0,.45,0,.68v3.42c0,3.56,1.26,6.44,4.26,6.44H79v1.72c0,1.32.9.82,2,.82h.92c1.1,0,2.8.5,2.8-.82v-5h47.42a7.49,7.49,0,0,0,.71.89c2,1,2.06,1.26,3.92,1.26L151.3,264V252.3Z"/><rect id="Rectangle_107" data-name="Rectangle 107" class="cls-24" x="60.98" y="254.63" width="72.71" height="7.03"/><path id="Path_428" data-name="Path 428" class="cls-25" d="M131.31,258.15h0a6.2,6.2,0,0,0,1.09,3.51h.92v-7h-.92A6.21,6.21,0,0,0,131.31,258.15Z"/><path id="Path_429" data-name="Path 429" class="cls-24" d="M150.9,262.93l-13,1.47a6.23,6.23,0,0,1-6.23-6.23h0a6.23,6.23,0,0,1,6.23-6.23h0l13,1.44Z"/><path id="Path_430" data-name="Path 430" class="cls-26" d="M132.39,259.32H60.58v1.95h71.81a6.22,6.22,0,0,0,5.16,2.72l13-1.43v-1.95l-13,1.44A6.23,6.23,0,0,1,132.39,259.32Z"/><path id="Path_431" data-name="Path 431" class="cls-11" d="M27.48,251.4H80.16v13H27.48a5,5,0,0,1-4.95-4.94v-3.08A5,5,0,0,1,27.48,251.4Z"/><path id="Rectangle_108" data-name="Rectangle 108" class="cls-2" d="M81.61,248.52h0a2.4,2.4,0,0,1,2.4,2.4v14.4a2.4,2.4,0,0,1-2.4,2.4h0a2.39,2.39,0,0,1-2.4-2.4v-14.4A2.39,2.39,0,0,1,81.61,248.52Z"/><path id="Path_433" data-name="Path 433" class="cls-27" d="M254.11,13.42,244,19.24V33.41l10.09,5.81,10.08-5.81V19.24Z"/><path id="Path_434" data-name="Path 434" class="cls-28" d="M254.1,28a3,3,0,0,1-2.67-1.7,3,3,0,0,1,5.35,0A3,3,0,0,1,254.1,28Z"/><path id="Path_435" data-name="Path 435" class="cls-24" d="M254.1,16.66l-9.38,5.42V32.91l9.38,5.41,9.39-5.41V22.08Zm0,13.56a1.14,1.14,0,1,1,2.27,0,1.12,1.12,0,0,1-1.14,1.13,1.14,1.14,0,0,1-1.13-1.13Z"/><path id="Path_436" data-name="Path 436" class="cls-29" d="M254.1,14.32l-9.38,5.42V30.57L254.1,36l9.39-5.41V19.74Zm0,13.55A1.14,1.14,0,1,1,255.23,29a1.15,1.15,0,0,1-1.13-1.13Z"/><path id="Path_437" data-name="Path 437" class="cls-30" d="M227.92,13.42l-10.09,5.82V33.41l10.09,5.81L238,33.41V19.24Z"/><path id="Path_438" data-name="Path 438" class="cls-31" d="M227.91,28a3,3,0,0,1-2.67-1.7,3,3,0,0,1,5.35,0A3,3,0,0,1,227.91,28Z"/><path id="Path_439" data-name="Path 439" class="cls-24" d="M227.91,16.66l-9.38,5.42V32.91l9.38,5.41,9.39-5.41V22.08Zm0,13.56a1.14,1.14,0,1,1,2.27,0A1.12,1.12,0,0,1,229,31.36a1.14,1.14,0,0,1-1.13-1.13Z"/><path id="Path_440" data-name="Path 440" class="cls-29" d="M227.91,14.32l-9.38,5.42V30.57L227.91,36l9.39-5.41V19.74Zm0,13.55a1.14,1.14,0,0,1,1.15-1.12A1.14,1.14,0,0,1,229,29a1.15,1.15,0,0,1-1.13-1.13Z"/><path id="Path_441" data-name="Path 441" class="cls-32" d="M238.86,12.25l-10.08,5.82V32.23l10.08,5.82,10.08-5.82V18.07Z"/><path id="Path_442" data-name="Path 442" class="cls-33" d="M238.86,26.84a2.94,2.94,0,0,1-2.67-1.69,3,3,0,0,1,5.35,0A3,3,0,0,1,238.86,26.84Z"/><path id="Path_443" data-name="Path 443" class="cls-24" d="M238.86,15.49l-9.38,5.42V31.73l9.38,5.42,9.38-5.42V20.91Zm0,13.56a1.14,1.14,0,1,1,2.27,0,1.14,1.14,0,0,1-2.27,0Z"/><path id="Path_444" data-name="Path 444" class="cls-29" d="M238.86,13.14l-9.38,5.42V29.39l9.38,5.42,9.38-5.42V18.56Zm0,13.56A1.13,1.13,0,0,1,240,25.57a1.14,1.14,0,1,1,0,2.27,1.13,1.13,0,0,1-1.13-1.12Z"/><path id="Path_445" data-name="Path 445" class="cls-34" d="M59,38.44V7.17H188.82"/><circle id="Ellipse_62" data-name="Ellipse 62" class="cls-34" cx="201.53" cy="6.97" r="5.47"/><path id="Path_446" data-name="Path 446" class="cls-34" d="M297.89,250.72V282H168.1"/><circle id="Ellipse_63" data-name="Ellipse 63" class="cls-34" cx="155.4" cy="282.19" r="5.47"/><circle id="Ellipse_64" data-name="Ellipse 64" class="cls-35" cx="226.24" cy="84.09" r="14.34"/><circle id="Ellipse_65" data-name="Ellipse 65" class="cls-29" cx="226.24" cy="84.09" r="13.44"/><circle id="Ellipse_66" data-name="Ellipse 66" class="cls-36" cx="226.24" cy="84.09" r="0.9"/><line id="Line_5" data-name="Line 5" class="cls-37" x1="226.24" y1="84.09" x2="234.31" y2="76.02"/><path id="Path_447" data-name="Path 447" class="cls-26" d="M228.57,83.73a13.45,13.45,0,0,0,6,11.21,13.45,13.45,0,0,0-.75-21.88A13.41,13.41,0,0,0,228.57,83.73Z"/><circle id="Ellipse_67" data-name="Ellipse 67" class="cls-38" cx="263.98" cy="84.09" r="14.34"/><circle id="Ellipse_68" data-name="Ellipse 68" class="cls-29" cx="263.98" cy="84.09" r="13.44"/><circle id="Ellipse_69" data-name="Ellipse 69" class="cls-36" cx="263.98" cy="84.09" r="0.9"/><line id="Line_6" data-name="Line 6" class="cls-37" x1="263.98" y1="84.09" x2="272.05" y2="76.02"/><path id="Path_448" data-name="Path 448" class="cls-26" d="M266.31,83.73a13.43,13.43,0,0,0,6,11.21,13.45,13.45,0,0,0-.75-21.88,13.37,13.37,0,0,0-5.27,10.67Z"/><circle id="Ellipse_70" data-name="Ellipse 70" class="cls-39" cx="226.24" cy="117.8" r="14.34"/><circle id="Ellipse_71" data-name="Ellipse 71" class="cls-29" cx="226.24" cy="117.8" r="13.44"/><circle id="Ellipse_72" data-name="Ellipse 72" class="cls-36" cx="226.24" cy="117.8" r="0.9"/><line id="Line_7" data-name="Line 7" class="cls-37" x1="226.24" y1="117.8" x2="217.67" y2="126.37"/><path id="Path_449" data-name="Path 449" class="cls-26" d="M228.57,117.44a13.45,13.45,0,0,0,6,11.21,13.44,13.44,0,0,0-.75-21.88A13.41,13.41,0,0,0,228.57,117.44Z"/><circle id="Ellipse_73" data-name="Ellipse 73" class="cls-40" cx="263.98" cy="117.8" r="14.34"/><circle id="Ellipse_74" data-name="Ellipse 74" class="cls-29" cx="263.98" cy="117.8" r="13.44"/><circle id="Ellipse_75" data-name="Ellipse 75" class="cls-36" cx="263.98" cy="117.8" r="0.9"/><line id="Line_8" data-name="Line 8" class="cls-37" x1="263.98" y1="117.8" x2="272.05" y2="109.73"/><path id="Path_450" data-name="Path 450" class="cls-26" d="M266.31,117.44a13.43,13.43,0,0,0,6,11.21,13.44,13.44,0,0,0-.75-21.88A13.41,13.41,0,0,0,266.31,117.44Z"/></svg>