<svg id="binance-logo" xmlns="http://www.w3.org/2000/svg" width="22" height="21.998" viewBox="0 0 22 21.998">
  <path id="Path_711" data-name="Path 711" d="M26.982,8.795l4.4-4.063L35.79,8.8l2.561-2.366L31.385,0,24.42,6.431Z" transform="translate(-20.383)" fill="#f3ba2f"/>
  <path id="Path_712" data-name="Path 712" d="M0,51.366,2.364,49,4.73,51.366,2.364,53.73Z" transform="translate(0 -40.365)" fill="#f3ba2f"/>
  <path id="Path_713" data-name="Path 713" d="M26.982,73.4l4.4,4.065,4.4-4.067,2.562,2.362-6.965,6.432L24.42,75.767Z" transform="translate(-20.383 -60.197)" fill="#f3ba2f"/>
  <path id="Path_714" data-name="Path 714" d="M98,51.366,100.364,49l2.366,2.364-2.366,2.367Z" transform="translate(-80.73 -40.365)" fill="#f3ba2f"/>
  <path id="Path_715" data-name="Path 715" d="M53.607,51.18l-2.4-2.4-1.774,1.774-.2.2-.42.42,2.4,2.4,2.4-2.392Z" transform="translate(-40.206 -40.181)" fill="#f3ba2f"/>
</svg>
