<svg xmlns="http://www.w3.org/2000/svg" xmlns:xlink="http://www.w3.org/1999/xlink" width="13.475" height="21.943" viewBox="0 0 13.475 21.943">
  <defs>
    <clipPath id="clip-path">
      <path id="Path_698" data-name="Path 698" d="M720.6,306.4h13.47v7.043H720.6Z" transform="translate(-720.6 -306.4)"/>
    </clipPath>
    <clipPath id="clip-path-2">
      <path id="Path_700" data-name="Path 700" d="M720.6,0h6.736V15.156H720.6Z" transform="translate(-720.6)"/>
    </clipPath>
    <clipPath id="clip-path-3">
      <path id="Path_702" data-name="Path 702" d="M975,0h6.736V15.156H975Z" transform="translate(-975)"/>
    </clipPath>
    <clipPath id="clip-path-4">
      <path id="Path_704" data-name="Path 704" d="M720.6,470.3h6.736v9.49H720.6Z" transform="translate(-720.6 -470.3)"/>
    </clipPath>
    <clipPath id="clip-path-5">
      <path id="Path_706" data-name="Path 706" d="M975,470.3h6.739v9.49H975Z" transform="translate(-975 -470.3)"/>
    </clipPath>
  </defs>
  <g id="ethereum" transform="translate(-80.985)">
    <g id="Group_33" data-name="Group 33" transform="translate(80.985 8.113)" opacity="0.6">
      <g id="Group_32" data-name="Group 32" clip-path="url(#clip-path)">
        <path id="Path_697" data-name="Path 697" d="M727.336,306.4l-6.736,3.064,6.736,3.98,6.733-3.98Z" transform="translate(-720.6 -306.4)" fill="#010101"/>
      </g>
    </g>
    <g id="Group_35" data-name="Group 35" transform="translate(80.985)" opacity="0.45">
      <g id="Group_34" data-name="Group 34" clip-path="url(#clip-path-2)">
        <path id="Path_699" data-name="Path 699" d="M720.6,11.177l6.736,3.98V0Z" transform="translate(-720.6)" fill="#010101"/>
      </g>
    </g>
    <g id="Group_37" data-name="Group 37" transform="translate(87.721)" opacity="0.8">
      <g id="Group_36" data-name="Group 36" clip-path="url(#clip-path-3)">
        <path id="Path_701" data-name="Path 701" d="M975,0V15.156l6.733-3.98Z" transform="translate(-975)" fill="#010101"/>
      </g>
    </g>
    <g id="Group_39" data-name="Group 39" transform="translate(80.985 12.453)" opacity="0.45">
      <g id="Group_38" data-name="Group 38" clip-path="url(#clip-path-4)">
        <path id="Path_703" data-name="Path 703" d="M720.6,470.3l6.736,9.49v-5.51Z" transform="translate(-720.6 -470.3)" fill="#010101"/>
      </g>
    </g>
    <g id="Group_41" data-name="Group 41" transform="translate(87.721 12.453)" opacity="0.8">
      <g id="Group_40" data-name="Group 40" clip-path="url(#clip-path-5)">
        <path id="Path_705" data-name="Path 705" d="M975,474.28v5.51l6.739-9.49Z" transform="translate(-975 -470.3)" fill="#010101"/>
      </g>
    </g>
  </g>
</svg>
