<svg id="Layer_1" data-name="Layer 1" xmlns="http://www.w3.org/2000/svg" viewBox="0 0 839.54 190.1"><defs><style>.cls-1{isolation:isolate;}.cls-2{fill:#fff;}.cls-3{fill:#ffde00;}</style></defs><g id="Layer_1-2" data-name="Layer 1"><g class="cls-1"><g class="cls-1"><path class="cls-2" d="M278.77,40.75h18l20.73,123H296L291,130.3H244.58l-19.83,33.42H203.29Zm11.45,75.17L283,63.09l-31.64,52.83Z" transform="translate(-28.09 -0.04)"/></g><g class="cls-1"><path class="cls-2" d="M349.33,165.46q-22.18,0-22.19-22.52A65.49,65.49,0,0,1,329,128.56l12.55-55.42h19.82l-11.64,51.61a46.51,46.51,0,0,0-1.27,10.4q0,14,12.55,14a30.31,30.31,0,0,0,16.09-5,46.42,46.42,0,0,0,14.28-14.55l12.55-56.46h20L408.8,141.21a8,8,0,0,0-.55,2.6q0,3.28,4.18,3.63L409,163.72l-4.73.61a28.94,28.94,0,0,1-3.64.26q-5.44,0-8.54-2.17a7.37,7.37,0,0,1-3.1-6.49,23.16,23.16,0,0,1,.37-3.64q.36-2.25,1.27-6.93a55.35,55.35,0,0,1-18.91,15A51.54,51.54,0,0,1,349.33,165.46Z" transform="translate(-28.09 -0.04)"/></g><g class="cls-1"><path class="cls-2" d="M450.08,165.11a23,23,0,0,1-13.1-3.55q-5.26-3.56-5.27-11.35a22.18,22.18,0,0,1,.73-5.71l12.73-56.64H433l3.46-14.72h11.82L455,43.35h20l-6.73,29.79H487.9l-3.27,14.72H465.17L453.9,138.44a13.4,13.4,0,0,0-.37,2.59c0,2.32.73,4,2.18,5a8.84,8.84,0,0,0,5.28,1.56,23.13,23.13,0,0,0,8-1.39c2.55-.92,4.48-1.67,5.82-2.25l.73,15.07a45.34,45.34,0,0,1-11.1,4.24A56.29,56.29,0,0,1,450.08,165.11Z" transform="translate(-28.09 -0.04)"/></g><g class="cls-1"><path class="cls-2" d="M520.64,165.46a39.54,39.54,0,0,1-16-3,33.79,33.79,0,0,1-18.82-20.09,42.92,42.92,0,0,1-2.46-14.63,50.91,50.91,0,0,1,4.55-21,59.29,59.29,0,0,1,12.37-17.92,60.06,60.06,0,0,1,18.45-12.47,56.08,56.08,0,0,1,22.83-4.68,40.19,40.19,0,0,1,16.09,3,35.3,35.3,0,0,1,11.82,8.14,33.87,33.87,0,0,1,7.28,12,43.93,43.93,0,0,1,2.45,14.72,49.93,49.93,0,0,1-4.54,20.79,59.37,59.37,0,0,1-12.46,17.84,62.71,62.71,0,0,1-18.55,12.55A55.57,55.57,0,0,1,520.64,165.46Zm3.82-16.29a28.22,28.22,0,0,0,12.46-2.94,36,36,0,0,0,10.82-8,41.48,41.48,0,0,0,7.64-11.87,35.91,35.91,0,0,0,2.91-14.37q0-10.39-5.55-17.24a18.11,18.11,0,0,0-14.82-6.84,27.12,27.12,0,0,0-12.37,3A39,39,0,0,0,514.73,99,40.49,40.49,0,0,0,507,110.9a35.91,35.91,0,0,0-2.91,14.37q0,10.39,5.55,17.15A18.21,18.21,0,0,0,524.46,149.17Z" transform="translate(-28.09 -0.04)"/></g><g class="cls-1"><path class="cls-2" d="M600.11,90.11H588.29l3.27-14.72h12l.72-3.64a44.1,44.1,0,0,1,5.28-13.59A47.63,47.63,0,0,1,619,46.64a45.07,45.07,0,0,1,13-8,41.39,41.39,0,0,1,15.91-3,42.83,42.83,0,0,1,16.91,3,54.63,54.63,0,0,1,12.19,7L665.76,59.8a25.26,25.26,0,0,0-8.54-5.71,29.39,29.39,0,0,0-11.64-2.25,18.66,18.66,0,0,0-7.91,1.64,20.17,20.17,0,0,0-6.19,4.42A27.69,27.69,0,0,0,627,64.13a26,26,0,0,0-2.55,7.1l-.91,4.16h47.65L651.4,163.72h-20l16.37-73.61H620.12l-16.37,73.61h-20Z" transform="translate(-28.09 -0.04)"/></g><g class="cls-1"><path class="cls-2" d="M710.69,165.46a40.86,40.86,0,0,1-16.19-3,34.31,34.31,0,0,1-11.91-8.22,34.78,34.78,0,0,1-7.28-12.13,43.85,43.85,0,0,1-2.45-14.72,51,51,0,0,1,4.46-21,56.59,56.59,0,0,1,12.36-17.75,62.24,62.24,0,0,1,18.55-12.38,56.93,56.93,0,0,1,23.19-4.68q14.19,0,22.91,6.15A29.31,29.31,0,0,1,766,94.1L745.24,100a17.57,17.57,0,0,0-6.64-8.92,19.16,19.16,0,0,0-11.18-3.21,29.35,29.35,0,0,0-12.64,2.86,34.66,34.66,0,0,0-10.82,8,39.75,39.75,0,0,0-7.55,11.86,37.36,37.36,0,0,0-2.82,14.55,30.54,30.54,0,0,0,1.46,9.61,22.29,22.29,0,0,0,4.18,7.62,19.86,19.86,0,0,0,6.46,5,18.61,18.61,0,0,0,8.27,1.81,25.69,25.69,0,0,0,6.91-.95,31.54,31.54,0,0,0,12.37-6.67,22.46,22.46,0,0,0,4.18-4.85l18.37,5.55a45,45,0,0,1-8.09,9.26,56,56,0,0,1-23.19,12.21A55,55,0,0,1,710.69,165.46Z" transform="translate(-28.09 -0.04)"/></g><g class="cls-1"><path class="cls-2" d="M797.8,165.46a33.26,33.26,0,0,1-14.28-3,31.79,31.79,0,0,1-10.64-8,34.37,34.37,0,0,1-6.64-11.86A46.29,46.29,0,0,1,764,128a54.53,54.53,0,0,1,4.28-21.3,59.9,59.9,0,0,1,11.54-18,57.74,57.74,0,0,1,16.73-12.47,44.19,44.19,0,0,1,19.83-4.68q10.36,0,17.36,5.28a28.64,28.64,0,0,1,9.92,13.43l3.81-17h20.19l-15.28,67.9q-.18.87-.27,1.47a7.78,7.78,0,0,0-.09,1.13q0,3.47,4.18,3.63l-3.63,16.28c-1.7.23-3.25.44-4.64.61a30.34,30.34,0,0,1-3.55.26q-11.82,0-11.82-9a41.67,41.67,0,0,1,1.27-8.31,46.23,46.23,0,0,1-16.73,13.51A44.56,44.56,0,0,1,797.8,165.46Zm8.73-16.29a24.15,24.15,0,0,0,7.72-1.38,38.48,38.48,0,0,0,8-3.81,39.4,39.4,0,0,0,7.18-5.72,29.4,29.4,0,0,0,5.27-7.1l5.1-23.73a22.36,22.36,0,0,0-2.46-7.7,23.59,23.59,0,0,0-4.82-6.24,22.37,22.37,0,0,0-6.36-4.16,18.43,18.43,0,0,0-7.28-1.47,27,27,0,0,0-13,3.29,39.55,39.55,0,0,0-10.73,8.49,41,41,0,0,0-7.37,11.86,35.37,35.37,0,0,0-2.72,13.43,30.54,30.54,0,0,0,1.45,9.61,21.68,21.68,0,0,0,4.27,7.62,21,21,0,0,0,6.83,5.11A20.42,20.42,0,0,0,806.53,149.17Z" transform="translate(-28.09 -0.04)"/></g></g><path class="cls-2" d="M169.83,92.19l28.5-23c.38,3,.88,5.62,1,8.36C200.5,97,194.58,116,182,134.83c-.2.29-.44.56-.62.86-.71,1.2-1.22,1.24-1.87.47-2.47-3-5.06-5.92-7.5-9q-5-6.31-9.76-12.86a12.53,12.53,0,0,1-1.56-4.24c1.87,4.39,5.06,7.3,8.11,10.75,6.35-11.78,9.74-22.55,10.51-34.58Z" transform="translate(-28.09 -0.04)"/><path class="cls-2" d="M117.94,169.09l13.12-25.17h.06l-6,14.76a15.65,15.65,0,0,0,3.34-.48c11.68-4.31,22-12.4,31.07-23.53.07-.1.11-.21.37-.66-1.55-1.46-3.07-3.08-4.77-4.45a28,28,0,0,0-5.09-3.33c-3.16-1.56-6.69-1.06-10.52,2.27,3.05-4.15,9.31-6.78,12.81-4.84a38.45,38.45,0,0,1,8.71,6.56c4.27,4.32,8.15,9.11,12.23,13.67.62.69.6,1.24-.32,2.21-16.52,17.54-33.74,26.12-51.9,23.72A30.8,30.8,0,0,1,117.94,169.09Z" transform="translate(-28.09 -0.04)"/><path class="cls-2" d="M178.3,70.48c-7.68-19.36-21.3-20.3-25.14-19.68-.54,5-1.08,9.87-1.6,14.73l-.39,3.81c-.06-4.84-.14-9.67-.17-14.51,0-3.62,0-7.26-.08-10.84,0-1.44.4-1.88,1.62-2.23,16.12-4.32,28.86-1,37.87,10.46,2,2.56,3.44,5.76,5.12,8.68.36.64.43,1.26-.53,2.05-8.14,6.64-16.28,13.29-24.88,18.66a63.37,63.37,0,0,1-7,3.83c-4.09,1.88-7.35,1.12-10-1.21a5.69,5.69,0,0,1-1.75-4.68c2.23,4,6,4.5,10.65,2.51a64.59,64.59,0,0,0,15.44-9.52,1.79,1.79,0,0,0,.84-2.05Z" transform="translate(-28.09 -0.04)"/><path class="cls-2" d="M112.51,164.92c.83-1.68,1.78-3.33,2.66-5,5.17-9.75,10.15-19.53,13.68-29.79,2.11-6.12,1.87-11.16-.65-15.28a6.28,6.28,0,0,0-1.26-1.41,4.76,4.76,0,0,0-2.42-1.13,19.59,19.59,0,0,0-3.32-.35c-8.57.11-17.17.35-25.74.49-1.3,0-1.87.46-2.11,2.1-2.67,15.26-1.29,28.5,4.87,39.3a32.22,32.22,0,0,0,12,12.18C111.21,166.58,111.82,166.34,112.51,164.92Zm-7.43-12.77c-7.5-7.67-10.57-18.38-9.64-31.87a2.83,2.83,0,0,1,1.77-2.59c3.42-1.75,6.72-2.14,10-2.55,3.74-.47,7.18-1,11.13.3,1.36.3,2.73,2,3.59,4,2,4.6,1.08,10-1.06,15.54A137.81,137.81,0,0,1,115,148.28c-3.12,6.09-6.52,7.37-9.92,3.87Z" transform="translate(-28.09 -0.04)"/><path class="cls-2" d="M132.26,97.43c4.69-4.36,8.12-9.37,9.27-15.76a122.79,122.79,0,0,0,1.77-21.32c0-4.92,0-9.8-.07-15.13-1.88,1-3.46,1.79-5,2.74-19.83,12.1-33.32,30.12-41.42,53.19-.45,1.29-.24,1.74.87,1.68,2.69-.15,5.33,0,8-.28,6.38-.55,12.76-1.15,19.18-1.88A12.45,12.45,0,0,0,132.26,97.43ZM124,95.51a33.88,33.88,0,0,1-17.32,1.36,5,5,0,0,1-1.66-.6c-2.36-1.43-2.86-2.31-1-5.78.47-.88.94-1.78,1.35-2.68,6.22-12,14.43-22,24.84-29.45,3.94-2.82,6.91-2.11,7.43,2.2a51,51,0,0,1-2.81,22.75A28,28,0,0,1,132.11,89a18.22,18.22,0,0,1-2.86,3.45A12,12,0,0,1,124,95.51Z" transform="translate(-28.09 -0.04)"/><path class="cls-2" d="M147.39,92.5c1.29-2.19,1.14-4.69-.35-5.62s-3.75.11-5,2.3-1.15,4.69.34,5.63S146.09,94.68,147.39,92.5Zm-3.75.7c-.82-.5-.94-1.87-.19-3.09s1.94-1.76,2.76-1.26.93,1.88.18,3.09-1.91,1.76-2.72,1.26Z" transform="translate(-28.09 -0.04)"/><path class="cls-2" d="M159.58,97.39c1.29-2.18,1.14-4.68-.35-5.62s-3.75.11-5,2.3-1.13,4.68.35,5.62S158.29,99.59,159.58,97.39Zm-3.75.71c-.81-.51-.94-1.88-.19-3.09s1.94-1.76,2.76-1.25.94,1.87.19,3.08-1.91,1.76-2.73,1.26Z" transform="translate(-28.09 -0.04)"/><path class="cls-2" d="M136.54,107.64c1.3-2.2,1.14-4.69-.34-5.63s-3.75.11-5,2.3-1.13,4.69.36,5.62S135.25,109.85,136.54,107.64Zm-3.75.7c-.81-.51-.93-1.87-.19-3.08s2-1.77,2.75-1.26.94,1.88.2,3.08-1.91,1.77-2.73,1.26Z" transform="translate(-28.09 -0.04)"/><path class="cls-2" d="M142.77,121.72c1.29-2.2,1.13-4.69-.35-5.63s-3.75.1-5,2.3-1.14,4.68.35,5.62S141.47,123.91,142.77,121.72Zm-3.75.7c-.82-.51-.94-1.88-.2-3.09s2-1.76,2.81-1.26.89,1.87.19,3.09-2,1.81-2.78,1.26Z" transform="translate(-28.09 -0.04)"/><path class="cls-2" d="M156.42,114.9c1.3-2.18,1.14-4.69-.35-5.62s-3.75.1-5,2.29-1.13,4.69.35,5.63S155.13,117.09,156.42,114.9Zm-3.75.7c-.81-.5-.93-1.87-.19-3.08s1.94-1.76,2.75-1.26.94,1.88.2,3.09-1.92,1.76-2.73,1.25Z" transform="translate(-28.09 -0.04)"/><path class="cls-2" d="M151.92,108.86c2.66-4.5,2.34-9.7-.72-11.59s-7.68.23-10.31,4.69-2.33,9.69.72,11.58S149.26,113.35,151.92,108.86Zm-8.7,3.29c-2.46-1.52-2.72-5.69-.59-9.3s5.86-5.32,8.32-3.8,2.71,5.69.57,9.3-5.86,5.31-8.3,3.8Z" transform="translate(-28.09 -0.04)"/><path class="cls-2" d="M150.28,100.17c-2-1.27-5.13.15-6.9,3.15s-1.57,6.47.47,7.73,5.14-.14,6.91-3.15S152.32,101.41,150.28,100.17Z" transform="translate(-28.09 -0.04)"/><path class="cls-2" d="M167.16,172.53A102.9,102.9,0,0,0,177,164a113,113,0,0,0,9-10,121.19,121.19,0,0,0,7.9-11.09,125.74,125.74,0,0,0,6.46-11.56,123.65,123.65,0,0,0,5.11-12,119.29,119.29,0,0,0,3.75-12.29,108.6,108.6,0,0,0,2.35-12.54,97.55,97.55,0,0,0,.82-12.67,85.09,85.09,0,0,0-.94-12.65,72.11,72.11,0,0,0-3-12.46,60,60,0,0,0-5.26-11.42,49.31,49.31,0,0,0-7.41-9.54A43.6,43.6,0,0,0,174.5,24a48.94,48.94,0,0,0-13.6-1.14,59.17,59.17,0,0,0-15.14,2.87,71.31,71.31,0,0,0-10,4.1A77.91,77.91,0,0,1,149.2,24a62.57,62.57,0,0,1,15.93-3,51.54,51.54,0,0,1,14.28,1.19c1.07.25,2.11.53,3.14.85s2,.65,3,1,2,.78,2.9,1.22,1.87.93,2.81,1.39l-8.44-4.6c-.93-.51-1.87-1-2.87-1.45s-2-.94-3-1.28-2.07-.76-3.13-1.09-2.16-.64-3.26-.94a54.74,54.74,0,0,0-14.77-1.44,64.79,64.79,0,0,0-16.4,2.81A80.54,80.54,0,0,0,122,26.36a100.22,100.22,0,0,0-17.49,13A118.16,118.16,0,0,0,89,57,125.18,125.18,0,0,0,77,77.29,123.73,123.73,0,0,0,69.26,98.9a113.07,113.07,0,0,0-3.33,21.4,93.7,93.7,0,0,0,.94,19.87,74.94,74.94,0,0,0,4.84,17.32,60.5,60.5,0,0,0,8.2,14.06,52.33,52.33,0,0,0,11,10.47c.52.37,1,.72,1.59,1.07s1.06.67,1.6,1l1.61.94c.55.31,1.09.58,1.63.85l8.58,4.28-1.56-.83a16.15,16.15,0,0,1-1.56-.94c-.52-.35-1-.62-1.54-.93s-1-.68-1.52-1a49.16,49.16,0,0,1-10.46-10.16,57.65,57.65,0,0,1-7.73-13.81,73.43,73.43,0,0,1-4.42-17.07,93.62,93.62,0,0,1-.74-17.63,87.43,87.43,0,0,0,.8,13.43,70.15,70.15,0,0,0,4.21,16.25,54.76,54.76,0,0,0,7.35,13.12,46.79,46.79,0,0,0,9.95,9.67,43.41,43.41,0,0,0,11.47,5.84,45.82,45.82,0,0,0,11.89,2.27,53.17,53.17,0,0,0,11.89-.68,64.43,64.43,0,0,0,11.6-3.09,77.11,77.11,0,0,0,11.11-5.14A91,91,0,0,0,167.16,172.53ZM113.38,56.3a104.33,104.33,0,0,1,33.41-22.56,46.77,46.77,0,0,1,25.67-2.92,38.89,38.89,0,0,1,19.68,9.37,46.52,46.52,0,0,1,12.33,18.4,62.54,62.54,0,0,1,3.12,11.25,58.13,58.13,0,0,0-2.27-7.41,48.6,48.6,0,0,0-5.2-10,40.47,40.47,0,0,0-7.23-8.06,36.69,36.69,0,0,0-9.14-5.7A37.73,37.73,0,0,0,161.12,36a12.82,12.82,0,0,1,2-.12h2.1A35.82,35.82,0,0,1,184,41.08a36.93,36.93,0,0,1,13.48,15.19A55.67,55.67,0,0,1,203,78.76a84.86,84.86,0,0,1-3,25.47,106.06,106.06,0,0,1-10.53,25.4,104.39,104.39,0,0,1-17.35,22.49,81.72,81.72,0,0,1-21.31,15.34,53.92,53.92,0,0,1-21.36,5.63,36.75,36.75,0,0,1-19.07-4.22,33.92,33.92,0,0,1-5.54-3.75l.23.24c.36.42.74.84,1.12,1.24s.77.79,1.17,1.17.8.76,1.2,1.12.83.72,1.25,1.06a37,37,0,0,0,19.52,8.13,48,48,0,0,0,20.38-2.4,63.47,63.47,0,0,0,8.31-3.44,68.33,68.33,0,0,1-12,5.36,50.67,50.67,0,0,1-21.44,2.55c-7.34-.82-18.16-2.22-24.29-7.2-6.56-5.31-11.34-12.59-14.35-21.34-3.16-9.17-4.26-19.79-3.22-31.09a100,100,0,0,1,9.87-35.35,104,104,0,0,1,20.8-28.85Z" transform="translate(-28.09 -0.04)"/><path class="cls-2" d="M28.11,94.28a86,86,0,0,0,1.3,13.3A80.8,80.8,0,0,0,32.64,120a75.81,75.81,0,0,0,5,11.25q1.42,2.6,3,5.05a37.24,37.24,0,0,0,4.53,6.28c3.2,3.5,4.06,4.45,5,5.4a3.66,3.66,0,0,0,.68.58,5.89,5.89,0,0,0,.67.18c0-.11-4.69-9.47-5.79-9.38-.46,0-.14.82-.69.65-.16-.05-.49-.15-1.47-1.31-.43-.51-.59-.72-1.48-1.94-.86-1.59-1.64-3.22-2.38-4.88,3,4.43,3.12,4.56,3.75,5.19.38.38.56.49.74.47,1.32-.52,1.32-.52,1.19-1.46,0-.09-2.45-10.31-3.55-10.81-.59-.26-1.14.65-1.3.93s-.46.85-1.56-.66a13.19,13.19,0,0,1-1.21-2c-1.25-2.4-1.94-3.68-2.39-4.35-.17-.69-.32-1.37-.48-2.06,3.23,5.37,3.23,5.37,3.83,5.91.21.17.54.45.85.3,1.87-1,1.87-1,1.87-2.22,0-.11-.52-10.39-1.79-10.7-.47-.12-1.11.34-1.87,1.37-.59.74-1.35-.14-1.65-.55a8.93,8.93,0,0,1-1.06-1.91,28.58,28.58,0,0,0-2.1-4.35c-.12-1.4-.2-2.81-.25-4.24a8.33,8.33,0,0,0,.36,1c2.61,5.53,2.61,5.53,3.2,6a.8.8,0,0,0,.93.18c2.52-1.56,2.52-1.56,2.82-2.81,0-.11,1.5-11.14.06-11.32-.52-.08-1.36.49-2.47,1.69-.82.87-1.54,0-1.8-.37a6.58,6.58,0,0,1-.8-1.94c-1.15-3.93-1.57-4.51-1.87-4.69.16-1.87.4-3.75.69-5.62a8.23,8.23,0,0,0,.35,2c2,5.71,2,5.71,2.62,6.15A.89.89,0,0,0,38,91c3.32-2,3.32-2,3.87-3.44,0-.11,3.75-11.76,2.1-12-.25,0-1.07.1-3.19,2a1.22,1.22,0,0,1-1.71.22,1.21,1.21,0,0,1-.41-.56,5.37,5.37,0,0,1-.51-1.88c-.6-3.56-1.08-5-1.6-4.68.49-1.8,1-3.6,1.65-5.38a6.79,6.79,0,0,0,.08,2.06c1.36,5.45,1.36,5.45,1.92,5.84a1.06,1.06,0,0,0,1.18,0C45.3,71,45.3,71,46.14,69.6c.06-.11,5.43-10.8,4-11.16-.33-.08-1.26.05-3.8,1.87-1.32.94-2,.21-2.19-.15a3.72,3.72,0,0,1-.38-1.77c-.22-3.54-.66-4.23-1-4.2.73-1.52,1.49-3,2.29-4.53a5.64,5.64,0,0,0-.08,1.74c.94,5.43.94,5.43,1.59,5.78a1.44,1.44,0,0,0,1.42,0c5-2.27,5-2.27,6.1-3.61.09-.11,7.39-10.31,5.76-10.67-.39-.08-1.49,0-4.63,1.71-1.43.76-2.13.34-2.42,0a2.56,2.56,0,0,1-.42-1.88c0-2.29-.15-3.62-.57-3.95l.33-.48c.57-.79,1.14-1.57,1.73-2.34a2,2,0,0,0,0,.6c.59,4.62.59,4.62,1.2,4.94a1.84,1.84,0,0,0,1.49,0c5.37-1.87,5.37-1.87,6.44-2.81.38-.33,8.19-8.38,7.05-8.92-.25-.12-1.25-.25-5,1.25-1.3.52-2,.34-2.36.1a1.69,1.69,0,0,1-.47-1.71,7.23,7.23,0,0,0-.09-2.93c.76-.77,1.52-1.53,2.29-2.28.37,4.09.37,4.09,1,4.38a2.46,2.46,0,0,0,1.65,0c6-1.5,6-1.5,7.27-2.26.1-.07,9.37-6.91,8.15-7.41-.29-.12-1.39-.26-5.55.86-1.54.41-2.31.18-2.68-.08-.54-.38-.44-.93-.35-1.41a6.25,6.25,0,0,0,.11-2.2c.75-.55,1.5-1.08,2.26-1.61.21,2.91.23,2.93.86,3.18h0a3.24,3.24,0,0,0,1.72.08c6.3-.93,6.3-.93,7.64-1.5.11,0,9.48-4.68,8.69-5.26l-.1-.05c-.32-.1-1.5-.28-5.74.33a5.09,5.09,0,0,1-2.57-.12.84.84,0,0,1-.59-1,.76.76,0,0,1,.06-.16,4.08,4.08,0,0,0,.19-1.51c.94-.49,1.87-.94,2.89-1.41.18,2.24.21,2.26.87,2.48A4.54,4.54,0,0,0,92,9.67c6.67-.34,6.67-.34,7.87-.61.89-.19,9.37-2.81,9.49-3.19a.3.3,0,0,0-.17-.12c-3-.94-5.62.34-8.56-.52-1-.31-.93-.74-.78-1a3.36,3.36,0,0,0,.18-.76c1.18-.22,2.43-.42,3.68-.61.2,1.13.25,1.16.8,1.34a6.72,6.72,0,0,0,1.66.24c6,.33,6,.33,6.56.31.82,0,8.6-.64,8.82-.73a.6.6,0,0,0-.15-.09c-2.48-.74-4.93-.58-7.41-1.19-1.2-.3-1.06-.56-.94-.67.16-.28.13-.48,0-.62h0c-.2-.39-2.56-1.65-6.66-1.37-1.78.17-3.58.41-5.38.72A75.52,75.52,0,0,0,87.49,4.44,83.27,83.27,0,0,0,74,11a89.42,89.42,0,0,0-13.23,9.46A95.58,95.58,0,0,0,46.4,36.28,97.73,97.73,0,0,0,29.86,74.45,93,93,0,0,0,28.11,94.28Z" transform="translate(-28.09 -0.04)"/><path class="cls-2" d="M111.82,6.87A.49.49,0,0,0,112,7c2.74.72,5.24-.1,8,.61,1.17.31,1.07.67,1,.94-.28.94.07,1.58.94,1.63.1,0,9.81-1.21,9.54-2-.75-1.38-.75-1.38-3.27-1.81-6.56-1-6.78-1.07-8.7-1C116.76,5.39,112,6.3,111.82,6.87Z" transform="translate(-28.09 -0.04)"/><path class="cls-2" d="M114.72,9.17c-6.85-.31-6.85-.31-8.81.15-2.28.52-8.51,3.12-7.7,3.67l.09,0c3,.79,5.15-1.14,8.18-.09.94.32.81.81.73,1.17-.17.72-.41,2.39.93,2.29.1,0,9.83-3.28,9.65-4.68C117.25,9.32,117.25,9.32,114.72,9.17Z" transform="translate(-28.09 -0.04)"/><path class="cls-2" d="M85.38,21.27h.06c.43.12,1.21.18,5-.66a4.69,4.69,0,0,1,3,0c.68.36.58.94.51,1.38-.12.74-.41,3.15.94,2.89.09,0,9.46-5.08,9.3-7.15-.49-3.31-.49-3.31-3-3.2-6.64.36-6.64.36-8.3,1.07C90.65,16.61,84.49,20.66,85.38,21.27Z" transform="translate(-28.09 -0.04)"/><path class="cls-2" d="M80.25,24.87c-2,1.29-8.3,7-7.07,7.49.31.1.88.28,4.76-1.05.77-.28,2.08-.72,3-.17.65.42.59,1.09.54,1.69-.09.94-.26,4,1,3.54.09,0,8.93-6.85,8.73-9.56-.42-3.25-.42-3.25-.57-3.45s-.79-.73-2.37-.53C81.82,23.87,81.82,23.87,80.25,24.87Z" transform="translate(-28.09 -0.04)"/><path class="cls-2" d="M100.34,37.11c.47-.28,9.89-7.13,8.44-7.7-.32-.13-1.56-.31-6,.78-1.65.39-2.52.14-2.94-.15a1.36,1.36,0,0,1-.5-1.52c.27-2.29-.13-3.32-1.18-3S89,31.32,89.26,34.55c.64,4.37.64,4.37,1.37,4.68a2.78,2.78,0,0,0,1.82.08C99.06,37.89,99.06,37.89,100.34,37.11Z" transform="translate(-28.09 -0.04)"/><path class="cls-2" d="M122.32,21.08l-.12,0c-.34-.12-1.62-.33-6.06.23a5.39,5.39,0,0,1-2.76-.18.94.94,0,0,1-.72-1.11,1,1,0,0,1,0-.16c.3-1.69-.09-2.48-1.15-2.32-1.28.18-9.37,3.94-9.12,6.44.52,3.46.52,3.46,1.23,3.75a3.75,3.75,0,0,0,1.88.12c6.68-.83,6.68-.83,8.06-1.38C114.09,26.23,123.26,21.64,122.32,21.08Z" transform="translate(-28.09 -0.04)"/><path class="cls-2" d="M126.07,12.18c-1.66,0-9.73,2.17-9.68,4.05v.12c.53,2.81.53,2.81,1.28,3a5.32,5.32,0,0,0,2,.22c7.12-.24,7.12-.24,8.35-.49.88-.19,9.58-2.75,9.65-3.28a.52.52,0,0,0-.19-.11c-3.18-1-6,.25-9.16-.68-1.15-.33-1.05-.78-1-1.07C127.63,12.77,127.21,12.17,126.07,12.18Z" transform="translate(-28.09 -0.04)"/><path class="cls-2" d="M128.63,11.13c.72,2.23.72,2.23,1.6,2.51h0a9.93,9.93,0,0,0,2.3.36c8.16.55,8.16.55,9.29.53.1,0,10.93-.82,11.15-.94a.9.9,0,0,0-.24-.12c-3.38-1-6.77-.86-10.15-1.72-1.65-.42-1.58-.75-1.54-.93s.26-1.15-1.92-1.36C136.57,9.18,128.33,9.64,128.63,11.13Z" transform="translate(-28.09 -0.04)"/><path class="cls-2" d="M68.68,36.79c-1.87,1.64-7.41,8.64-6.19,9.2.64.22,1.87-.19,4.78-1.57,1.09-.52,2-.51,2.56,0a2.44,2.44,0,0,1,.45,1.87c0,1.42,0,4.69,1.27,4.11.09,0,7.94-8.44,7.62-11.69-.55-4-.55-4-.75-4.25s-.65-.81-2.22-.46C70.13,35.52,70.13,35.52,68.68,36.79Z" transform="translate(-28.09 -0.04)"/><path class="cls-2" d="M58.59,51.07C57,53,52.37,61.2,53.57,61.81c.6.26,1.74-.24,4.31-1.87,1.47-.94,2.21-.24,2.46.1a3.59,3.59,0,0,1,.51,2c.07,1.27.4,5.37,1.54,4.68.08,0,6.73-9.9,6.2-13.68-.8-4.69-.8-4.69-1-5s-.68-.93-2.14-.46C59.86,49.57,59.86,49.57,58.59,51.07Z" transform="translate(-28.09 -0.04)"/><path class="cls-2" d="M47.34,79.38c.43.13.94.28,3.62-1.88.88-.73,1.73-.64,2.27.23a4.29,4.29,0,0,1,.51,1.6c.57,4,1.28,6,1.93,5.46.07-.05,5-10.89,4.23-14.86-1.11-5.12-1.11-5.12-1.26-5.39a1.42,1.42,0,0,0-1.9-.64l-.11.06c-4.87,2.2-4.87,2.2-5.87,3.85C49.59,69.72,46.16,78.67,47.34,79.38Z" transform="translate(-28.09 -0.04)"/><path class="cls-2" d="M43.74,97.06c.41.17.86.36,3-1.67.71-.69,1.47-.55,2.07.38a6,6,0,0,1,.7,1.67c.94,3.47,1.69,5.38,2.3,5.7.83-.12,3-11.61,2-15.12-1.66-5.67-1.66-5.67-1.8-5.91a1.33,1.33,0,0,0-1.71-.75l-.16.08c-4.2,2.31-4.2,2.31-4.89,4C44.42,87.35,42.58,96.27,43.74,97.06Z" transform="translate(-28.09 -0.04)"/><path class="cls-2" d="M60.21,108.43c3.89-2,3.89-2,4.54-3.5,0-.12,4.08-12.42,2.48-13-.36-.13-1.33,0-3.88,2a1.49,1.49,0,0,1-2.09.07,1.66,1.66,0,0,1-.32-.43,5.83,5.83,0,0,1-.72-2.19c-.78-4.1-1.4-5.7-2-5.2s-4.14,10.17-2.42,15.26c2.42,6.39,2.42,6.39,3.11,6.91h0A1.15,1.15,0,0,0,60.21,108.43Z" transform="translate(-28.09 -0.04)"/><path class="cls-2" d="M74.58,72.88c-.5-.14-1.7.09-4.59,1.94-1.6,1-2.4.14-2.68-.28a4.38,4.38,0,0,1-.52-2.07c-.35-3.75-.94-5.34-1.65-4.84s-6,10.11-4.85,15C62.06,89,62.06,89,62.75,89.48h0a1.38,1.38,0,0,0,1.45,0c4.81-2.36,4.81-2.36,5.8-4C70.08,85.48,76.4,73.37,74.58,72.88Z" transform="translate(-28.09 -0.04)"/><path class="cls-2" d="M78.07,67.2c.1-.1,7.94-10.78,6.05-11.24-.43-.11-1.67,0-5.12,1.66-1.67.82-2.46.25-2.81-.16a3,3,0,0,1-.47-1.94c-.09-5-1.1-4.44-1.43-4.27-.94.48-7.34,8.86-6.56,13.28,1.26,5.85,1.26,5.85,2,6.26a1.74,1.74,0,0,0,1.6,0C76.88,68.61,76.88,68.61,78.07,67.2Z" transform="translate(-28.09 -0.04)"/><path class="cls-2" d="M88.24,51.11c.81-.67,9.11-9.24,7.86-9.9-.37-.19-1.63-.29-5.91,1.25-1.51.55-2.34.32-2.81,0a2,2,0,0,1-.65-2c.1-2,0-4.24-1.23-3.75-1,.39-8.69,7.63-8.18,11.6.93,5.27.93,5.27,1.65,5.63a2.33,2.33,0,0,0,1.76,0C87,52.12,87,52.12,88.24,51.11Z" transform="translate(-28.09 -0.04)"/><path class="cls-2" d="M43.35,114.54c.22.15.75.49,2.15-1.11.29-.33.94-1.09,2,.39a8.58,8.58,0,0,1,.85,1.65c.94,2.31,2.16,5.16,2.89,5.63.83-.12.67-11.12-.56-14.31-2.29-5.68-2.29-5.68-2.43-5.91-.54-.86-1.13-1.13-1.76-.8-3.33,1.94-3.33,1.94-3.68,3.52C42.37,105.66,42.24,113.68,43.35,114.54Z" transform="translate(-28.09 -0.04)"/><path class="cls-2" d="M47.52,129.53c.19-.25.62-.84,1.77.62a12.37,12.37,0,0,1,1,1.58c.94,1.78,2.66,4.82,3.42,5.38h.12c.11-.24-1.13-9.38-3-13-3.68-7.15-3.68-7.15-4.69-6.7-2.57,1.48-2.57,1.48-2.61,2.87,0,1.88,1.13,9,2.29,9.94h0C46.11,130.37,46.62,130.75,47.52,129.53Z" transform="translate(-28.09 -0.04)"/><path class="cls-2" d="M54.84,146.15A34.19,34.19,0,0,0,58.66,151a68.26,68.26,0,0,0-4.76-11c-4.21-6.56-4.21-6.56-4.88-6.28-1.88.89-1.88.89-1.61,2,.42,2.07,2.57,7.28,3.75,8.3.2.17.67.56,1.12-.2.09-.15.34-.56,1.61.94A13.8,13.8,0,0,1,54.84,146.15Z" transform="translate(-28.09 -0.04)"/><path class="cls-2" d="M53.38,147.41c-1.47.33-1.47.33-.85,1.51a37.06,37.06,0,0,0,5.68,7.49c.51.47.74.62.86.32h.11A16.25,16.25,0,0,1,62,159.48c2.63,2.89,4.48,4.73,4.81,5l-7.41-10.26C53.9,147.34,53.9,147.34,53.38,147.41Z" transform="translate(-28.09 -0.04)"/><path class="cls-2" d="M70.14,162.83c-.34.29-.62.56-2.5-1.7-.35-.43-.35-.43-1.59-2.07-2.11-2.82-2.94-3.86-3.33-4.07-.17.2,2,5.31,6.68,10.41,3.53,3.75,4.6,4.89,5.71,5.94h0a5.88,5.88,0,0,0,.85.72c.28.12.66.29.93.39H77c-.11-.53-5-8.83-5.1-8.89C71.25,162.59,70.65,162.34,70.14,162.83Z" transform="translate(-28.09 -0.04)"/><path class="cls-2" d="M61.61,146.55a13.23,13.23,0,0,1-1.39-2.08c-2.28-3.9-3-5-3.44-5.12-.33.36,1.06,7.33,4.61,12.18,4.28,5.62,4.28,5.62,5.06,6.36.56.5.71.54.94.56,1.74-.24,1.74-.24,1.55-1.29,0-.09-2.42-9.88-3.75-10.48-.71-.3-1.43.47-1.63.73S62.9,148.13,61.61,146.55Z" transform="translate(-28.09 -0.04)"/><path class="cls-2" d="M62.23,129.45c-.77-.23-1.82.8-2.13,1.12s-.94.94-2.09-.57a10,10,0,0,1-1.16-2.13c-1.75-4-2.35-4.91-2.81-5.18-.83,0-.42,8.75,2.3,13.38C60,142,60,142,60.71,142.63c.46.38.69.47,1,.4,2.33-.88,2.33-.88,2.38-2.11C64.11,140.78,63.75,129.9,62.23,129.45Z" transform="translate(-28.09 -0.04)"/><path class="cls-2" d="M54.59,119.93c3,6.16,3,6.16,3.75,6.72.46.35.72.42,1.1.28,3-1.47,3-1.47,3.33-2.82,0-.12,1.87-11.94.09-12.25-.61-.11-1.58.45-2.89,1.67-.94.89-1.8-.07-2.12-.53a7.42,7.42,0,0,1-.94-2.16c-1.4-4.46-1.87-5-2.26-5.2C53.79,105.73,52.41,115.25,54.59,119.93Z" transform="translate(-28.09 -0.04)"/><rect class="cls-3" x="552.96" y="176.05" width="71.33" height="8.63"/></g></svg>